<svg xmlns="http://www.w3.org/2000/svg" width="40" height="40" viewBox="0 0 40 40" fill="none">
    <mask id="mask0_25_96" style="mask-type:alpha" maskUnits="userSpaceOnUse" x="0" y="0" width="40" height="40">
        <rect width="40" height="40" fill="#D9D9D9"/>
    </mask>
    <g mask="url(#mask0_25_96)">
        <path d="M18.1975 26.1793L25.663 21.395C26.1775 21.0664 26.4348 20.6014 26.4348 20C26.4348 19.3986 26.1775 18.9336 25.663 18.605L18.1975 13.8207C17.6552 13.4644 17.0942 13.4436 16.5145 13.7582C15.9348 14.0728 15.6449 14.5586 15.6449 15.2156V24.7844C15.6449 25.4414 15.9348 25.9272 16.5145 26.2418C17.0942 26.5564 17.6552 26.5356 18.1975 26.1793ZM4.80615 21.6667C5.41968 21.6667 5.97282 21.8626 6.46557 22.2545C6.95832 22.6465 7.29769 23.1492 7.48369 23.7627C7.60325 24.1975 7.74183 24.6093 7.89944 24.9982C8.05705 25.3871 8.24154 25.7729 8.4529 26.1557C8.74998 26.7137 8.86985 27.3034 8.81248 27.9248C8.75512 28.5462 8.50482 29.0785 8.06157 29.5217C7.6461 29.9372 7.14548 30.1311 6.55973 30.1033C5.97398 30.0755 5.52471 29.8183 5.2119 29.3315C4.67929 28.5018 4.21643 27.6214 3.82332 26.6902C3.43021 25.7591 3.12254 24.805 2.90032 23.8279C2.76987 23.2579 2.90151 22.7551 3.29523 22.3197C3.68896 21.8844 4.1926 21.6667 4.80615 21.6667ZM8.06157 10.4547C8.50482 10.898 8.75211 11.4342 8.80344 12.0634C8.85475 12.6926 8.7379 13.2802 8.4529 13.8261C8.24154 14.209 8.05705 14.5978 7.89944 14.9927C7.74183 15.3877 7.60325 15.7947 7.48369 16.2137C7.282 16.8273 6.94262 17.3339 6.46557 17.7337C5.98851 18.1335 5.43537 18.3333 4.80615 18.3333C4.1926 18.3333 3.69287 18.1048 3.30698 17.6476C2.92115 17.1905 2.79948 16.6769 2.94198 16.1069C3.16421 15.1455 3.46796 14.1992 3.85323 13.2681C4.23848 12.3369 4.69137 11.4644 5.2119 10.6504C5.52471 10.1636 5.97398 9.90548 6.55973 9.87587C7.14548 9.84629 7.6461 10.0392 8.06157 10.4547ZM10.3949 31.8967C10.8382 31.4414 11.3696 31.1842 11.9891 31.125C12.6087 31.0658 13.2053 31.1848 13.779 31.4819C14.1618 31.6932 14.5516 31.8807 14.9484 32.0444C15.3451 32.208 15.7548 32.3496 16.1775 32.4692C16.791 32.6552 17.2977 32.9955 17.6974 33.49C18.0972 33.9846 18.2971 34.5465 18.2971 35.1757C18.2971 35.7893 18.0724 36.286 17.6232 36.6658C17.1739 37.0456 16.6642 37.1703 16.0942 37.0399C15.1171 36.8176 14.1712 36.51 13.2563 36.1169C12.3415 35.7238 11.4631 35.273 10.6214 34.7645C10.1226 34.4517 9.85625 34.0025 9.82244 33.4167C9.78861 32.8309 9.97943 32.3243 10.3949 31.8967ZM18.3333 4.82424C18.3333 5.45349 18.1443 6.01148 17.7663 6.4982C17.3882 6.98492 16.8925 7.32127 16.2789 7.50725C15.8442 7.62683 15.4293 7.76541 15.0344 7.92299C14.6395 8.08061 14.2506 8.27113 13.8678 8.49458C13.2941 8.79166 12.6896 8.91152 12.0544 8.85416C11.4191 8.7968 10.872 8.53865 10.413 8.07971C9.96978 7.63646 9.77292 7.11893 9.82244 6.52712C9.87194 5.93534 10.1539 5.48305 10.6684 5.17025C11.4945 4.6618 12.3671 4.21797 13.2862 3.83875C14.2053 3.4595 15.1533 3.15876 16.1304 2.93654C16.7005 2.80612 17.2101 2.93474 17.6594 3.32241C18.1087 3.71011 18.3333 4.21072 18.3333 4.82424ZM33.0507 20C33.0507 17.0181 32.1522 14.369 30.3551 12.0525C28.558 9.73612 26.2458 8.1854 23.4185 7.40037C22.8762 7.22645 22.4487 6.90007 22.1359 6.4212C21.8231 5.94234 21.6667 5.41002 21.6667 4.82424C21.6667 4.23849 21.8508 3.74483 22.2192 3.34324C22.5876 2.94169 23.029 2.79827 23.5435 2.91299C27.5737 3.75358 30.9019 5.75841 33.5281 8.9275C36.1543 12.0966 37.4674 15.7874 37.4674 20C37.4674 24.2126 36.1543 27.9034 33.5281 31.0725C30.9019 34.2416 27.5737 36.2464 23.5435 37.087C23.029 37.2017 22.5876 37.0583 22.2192 36.6567C21.8508 36.2552 21.6667 35.7615 21.6667 35.1757C21.6667 34.59 21.8231 34.0576 22.1359 33.5788C22.4487 33.0999 22.8762 32.7735 23.4185 32.5996C26.2458 31.8146 28.558 30.2639 30.3551 27.9475C32.1522 25.631 33.0507 22.9819 33.0507 20Z" fill="#00A1D4"/>
    </g>
</svg>