<svg width="155" height="56" viewBox="0 0 155 56" fill="none" xmlns="http://www.w3.org/2000/svg">
<rect width="155" height="56" rx="12" fill="#00A1D4"/>
<mask id="mask0_25_95" style="mask-type:alpha" maskUnits="userSpaceOnUse" x="12" y="8" width="40" height="40">
<rect x="12" y="8" width="40" height="40" fill="#D9D9D9"/>
</mask>
<g mask="url(#mask0_25_95)">
<path d="M30.1975 34.1793L37.663 29.395C38.1775 29.0664 38.4348 28.6014 38.4348 28C38.4348 27.3986 38.1775 26.9336 37.663 26.605L30.1975 21.8207C29.6552 21.4644 29.0942 21.4436 28.5145 21.7582C27.9348 22.0728 27.6449 22.5586 27.6449 23.2156V32.7844C27.6449 33.4414 27.9348 33.9272 28.5145 34.2418C29.0942 34.5564 29.6552 34.5356 30.1975 34.1793ZM16.8062 29.6667C17.4197 29.6667 17.9728 29.8626 18.4656 30.2545C18.9583 30.6465 19.2977 31.1492 19.4837 31.7627C19.6032 32.1975 19.7418 32.6093 19.8994 32.9982C20.0571 33.3871 20.2415 33.7729 20.4529 34.1557C20.75 34.7137 20.8698 35.3034 20.8125 35.9248C20.7551 36.5462 20.5048 37.0785 20.0616 37.5217C19.6461 37.9372 19.1455 38.1311 18.5597 38.1033C17.974 38.0755 17.5247 37.8183 17.2119 37.3315C16.6793 36.5018 16.2164 35.6214 15.8233 34.6902C15.4302 33.7591 15.1225 32.805 14.9003 31.8279C14.7699 31.2579 14.9015 30.7551 15.2952 30.3197C15.689 29.8844 16.1926 29.6667 16.8062 29.6667ZM20.0616 18.4547C20.5048 18.898 20.7521 19.4342 20.8034 20.0634C20.8547 20.6926 20.7379 21.2802 20.4529 21.8261C20.2415 22.209 20.0571 22.5978 19.8994 22.9927C19.7418 23.3877 19.6032 23.7947 19.4837 24.2137C19.282 24.8273 18.9426 25.3339 18.4656 25.7337C17.9885 26.1335 17.4354 26.3333 16.8062 26.3333C16.1926 26.3333 15.6929 26.1048 15.307 25.6476C14.9212 25.1905 14.7995 24.6769 14.942 24.1069C15.1642 23.1455 15.468 22.1992 15.8532 21.2681C16.2385 20.3369 16.6914 19.4644 17.2119 18.6504C17.5247 18.1636 17.974 17.9055 18.5597 17.8759C19.1455 17.8463 19.6461 18.0392 20.0616 18.4547ZM22.3949 39.8967C22.8382 39.4414 23.3696 39.1842 23.9891 39.125C24.6087 39.0658 25.2053 39.1848 25.779 39.4819C26.1618 39.6932 26.5516 39.8807 26.9484 40.0444C27.3451 40.208 27.7548 40.3496 28.1775 40.4692C28.791 40.6552 29.2977 40.9955 29.6974 41.49C30.0972 41.9846 30.2971 42.5465 30.2971 43.1757C30.2971 43.7893 30.0724 44.286 29.6232 44.6658C29.1739 45.0456 28.6642 45.1703 28.0942 45.0399C27.1171 44.8176 26.1712 44.51 25.2563 44.1169C24.3415 43.7238 23.4631 43.273 22.6214 42.7645C22.1226 42.4517 21.8562 42.0025 21.8224 41.4167C21.7886 40.8309 21.9794 40.3243 22.3949 39.8967ZM30.3333 12.8242C30.3333 13.4535 30.1443 14.0115 29.7663 14.4982C29.3882 14.9849 28.8925 15.3213 28.2789 15.5072C27.8442 15.6268 27.4293 15.7654 27.0344 15.923C26.6395 16.0806 26.2506 16.2711 25.8678 16.4946C25.2941 16.7917 24.6896 16.9115 24.0544 16.8542C23.4191 16.7968 22.872 16.5386 22.413 16.0797C21.9698 15.6365 21.7729 15.1189 21.8224 14.5271C21.8719 13.9353 22.1539 13.4831 22.6684 13.1702C23.4945 12.6618 24.3671 12.218 25.2862 11.8387C26.2053 11.4595 27.1533 11.1588 28.1304 10.9365C28.7005 10.8061 29.2101 10.9347 29.6594 11.3224C30.1087 11.7101 30.3333 12.2107 30.3333 12.8242ZM45.0507 28C45.0507 25.0181 44.1522 22.369 42.3551 20.0525C40.558 17.7361 38.2458 16.1854 35.4185 15.4004C34.8762 15.2265 34.4487 14.9001 34.1359 14.4212C33.8231 13.9423 33.6667 13.41 33.6667 12.8242C33.6667 12.2385 33.8508 11.7448 34.2192 11.3432C34.5876 10.9417 35.029 10.7983 35.5435 10.913C39.5737 11.7536 42.9019 13.7584 45.5281 16.9275C48.1543 20.0966 49.4674 23.7874 49.4674 28C49.4674 32.2126 48.1543 35.9034 45.5281 39.0725C42.9019 42.2416 39.5737 44.2464 35.5435 45.087C35.029 45.2017 34.5876 45.0583 34.2192 44.6567C33.8508 44.2552 33.6667 43.7615 33.6667 43.1757C33.6667 42.59 33.8231 42.0576 34.1359 41.5788C34.4487 41.0999 34.8762 40.7735 35.4185 40.5996C38.2458 39.8146 40.558 38.2639 42.3551 35.9475C44.1522 33.631 45.0507 30.9819 45.0507 28Z" fill="white"/>
</g>
<path d="M135.931 41.5046C134.337 41.5046 132.961 41.0942 131.801 40.2735C130.649 39.4441 129.762 38.2728 129.142 36.7595C128.521 35.2377 128.21 33.4465 128.21 31.386C128.21 29.3598 128.521 27.5814 129.142 26.051C129.769 24.5121 130.646 23.3151 131.77 22.4602C132.895 21.5966 134.216 21.1649 135.734 21.1649C136.714 21.1649 137.639 21.3615 138.508 21.7548C139.384 22.1396 140.157 22.738 140.827 23.5503C141.503 24.3625 142.034 25.397 142.42 26.6538C142.807 27.902 143 29.3897 143 31.1167V31.5403C143 32.0925 142.552 32.5403 142 32.5403H130.969C130.417 32.5403 129.969 32.0925 129.969 31.5403V30.4111C129.969 29.8588 130.417 29.4111 130.969 29.4111H138.401C138.956 29.4111 139.415 28.956 139.332 28.407C139.257 27.9147 139.127 27.4585 138.943 27.0385C138.639 26.3375 138.215 25.786 137.67 25.3842C137.132 24.9823 136.504 24.7814 135.786 24.7814C135.02 24.7814 134.347 25.0122 133.768 25.4739C133.188 25.9271 132.736 26.5255 132.412 27.2694C132.095 28.0046 131.933 28.8126 131.926 29.6932V32.4248C131.926 33.5705 132.095 34.5537 132.433 35.3745C132.771 36.1867 133.244 36.8108 133.851 37.2469C134.458 37.6743 135.169 37.8881 135.983 37.8881C136.528 37.8881 137.021 37.794 137.463 37.6059C137.904 37.4093 138.287 37.1229 138.612 36.7467C138.767 36.5663 138.904 36.3652 139.024 36.1434C139.257 35.7081 139.708 35.3992 140.197 35.4674L141.801 35.6908C142.369 35.7698 142.761 36.3113 142.583 36.8558C142.345 37.5857 142.011 38.2461 141.582 38.8371C140.968 39.6835 140.181 40.3419 139.222 40.8121C138.263 41.2738 137.166 41.5046 135.931 41.5046Z" fill="white"/>
<path d="M111.701 41.1199C111.148 41.1199 110.701 40.6722 110.701 40.1199V15.8552C110.701 15.3029 111.148 14.8552 111.701 14.8552H113.447C114 14.8552 114.447 15.3029 114.447 15.8552V24.5861C114.447 24.6373 114.489 24.6788 114.54 24.6788C114.578 24.6788 114.612 24.6559 114.626 24.621C114.818 24.1591 115.082 23.6697 115.42 23.1527C115.772 22.6055 116.248 22.1396 116.848 21.7548C117.449 21.3615 118.215 21.1649 119.146 21.1649C120.374 21.1649 121.482 21.5539 122.468 22.3319C123.462 23.1014 124.249 24.2428 124.828 25.7561C125.415 27.2608 125.708 29.1076 125.708 31.2963C125.708 33.4594 125.422 35.2975 124.849 36.8108C124.276 38.3241 123.497 39.4783 122.51 40.2735C121.523 41.0686 120.405 41.4661 119.156 41.4661C118.246 41.4661 117.49 41.2781 116.89 40.9019C116.29 40.5257 115.807 40.0725 115.441 39.5425C115.102 39.0337 114.834 38.5516 114.637 38.0963C114.616 38.048 114.568 38.0163 114.516 38.0163C114.444 38.0163 114.385 38.0748 114.385 38.1468V40.1199C114.385 40.6722 113.937 41.1199 113.385 41.1199H111.701ZM114.375 31.2706C114.375 32.5445 114.52 33.6603 114.81 34.6178C115.106 35.5754 115.531 36.3235 116.083 36.8621C116.641 37.3922 117.318 37.6573 118.111 37.6573C118.939 37.6573 119.633 37.3837 120.191 36.8365C120.75 36.2808 121.171 35.5241 121.454 34.5665C121.744 33.6004 121.889 32.5018 121.889 31.2706C121.889 30.048 121.747 28.9622 121.464 28.0132C121.182 27.0642 120.761 26.3204 120.202 25.7817C119.643 25.2431 118.946 24.9738 118.111 24.9738C117.311 24.9738 116.631 25.2346 116.072 25.7561C115.513 26.2776 115.089 27.0086 114.799 27.9491C114.516 28.8895 114.375 29.9967 114.375 31.2706Z" fill="white"/>
<path d="M102.936 32.8352V22.4214C102.936 21.8691 103.383 21.4214 103.936 21.4214H105.682C106.235 21.4214 106.682 21.8691 106.682 22.4214V40.1199C106.682 40.6722 106.235 41.1199 105.682 41.1199H104.05C103.497 41.1199 103.05 40.6722 103.05 40.1199V37.7147C103.05 37.6617 103.007 37.6188 102.954 37.6188C102.912 37.6188 102.875 37.6456 102.862 37.685C102.501 38.7578 101.919 39.6378 101.114 40.3248C100.3 41.0258 99.296 41.3764 98.1023 41.3764C97.0604 41.3764 96.1393 41.09 95.3389 40.5171C94.5454 39.9357 93.9244 39.0936 93.4759 37.9907C93.0274 36.8792 92.8032 35.5369 92.8032 33.9638V22.4214C92.8032 21.8691 93.2509 21.4214 93.8032 21.4214H95.5498C96.1021 21.4214 96.5498 21.8691 96.5498 22.4214V33.2456C96.5498 34.4939 96.8258 35.4856 97.3778 36.2209C97.9298 36.9562 98.6543 37.3238 99.5513 37.3238C100.103 37.3238 100.638 37.1571 101.156 36.8237C101.673 36.4902 102.097 35.9943 102.429 35.336C102.767 34.6691 102.936 33.8355 102.936 32.8352Z" fill="white"/>
<path d="M75.96 18.8437C75.4077 18.8437 74.96 18.3959 74.96 17.8437V15.8552C74.96 15.3029 75.4077 14.8552 75.96 14.8552H90.8716C91.4239 14.8552 91.8716 15.3029 91.8716 15.8552V17.8437C91.8716 18.3959 91.4239 18.8437 90.8716 18.8437H86.3202C85.7679 18.8437 85.3202 19.2914 85.3202 19.8437V40.1199C85.3202 40.6722 84.8725 41.1199 84.3202 41.1199H82.5114C81.9591 41.1199 81.5114 40.6722 81.5114 40.1199V19.8437C81.5114 19.2914 81.0637 18.8437 80.5114 18.8437H75.96Z" fill="white"/>
<path d="M74.6099 21.5595L74.61 21.5595L74.6121 21.5518C74.9492 20.3035 73.167 19.6736 72.6448 20.8563L66.5068 34.7575L63.336 22.058C63.1693 21.3901 62.5692 20.9214 61.8807 20.9214H59.9946C58.997 20.9214 58.2774 21.877 58.5529 22.8357L63.6395 40.5342C63.8243 41.177 64.4123 41.6199 65.0811 41.6199H67.7149C68.3838 41.6199 68.9718 41.177 69.1566 40.5342L74.6099 21.5595Z" stroke="white"/>
</svg>
