<svg width="156" height="56" viewBox="0 0 156 56" fill="none" xmlns="http://www.w3.org/2000/svg">
<rect width="155.667" height="56" rx="12" fill="#00A1D4"/>
<mask id="mask0_25_95" style="mask-type:alpha" maskUnits="userSpaceOnUse" x="12" y="8" width="40" height="40">
<rect x="12" y="8" width="40" height="40" fill="#D9D9D9"/>
</mask>
<g mask="url(#mask0_25_95)">
<path d="M30.1975 34.1793L37.663 29.395C38.1775 29.0664 38.4348 28.6014 38.4348 28C38.4348 27.3986 38.1775 26.9336 37.663 26.605L30.1975 21.8207C29.6552 21.4644 29.0942 21.4436 28.5145 21.7582C27.9348 22.0728 27.6449 22.5586 27.6449 23.2156V32.7844C27.6449 33.4414 27.9348 33.9272 28.5145 34.2418C29.0942 34.5564 29.6552 34.5356 30.1975 34.1793ZM16.8062 29.6667C17.4197 29.6667 17.9728 29.8626 18.4656 30.2545C18.9583 30.6465 19.2977 31.1492 19.4837 31.7627C19.6032 32.1975 19.7418 32.6093 19.8994 32.9982C20.0571 33.3871 20.2415 33.7729 20.4529 34.1557C20.75 34.7137 20.8698 35.3034 20.8125 35.9248C20.7551 36.5462 20.5048 37.0785 20.0616 37.5217C19.6461 37.9372 19.1455 38.1311 18.5597 38.1033C17.974 38.0755 17.5247 37.8183 17.2119 37.3315C16.6793 36.5018 16.2164 35.6214 15.8233 34.6902C15.4302 33.7591 15.1225 32.805 14.9003 31.8279C14.7699 31.2579 14.9015 30.7551 15.2952 30.3197C15.689 29.8844 16.1926 29.6667 16.8062 29.6667ZM20.0616 18.4547C20.5048 18.898 20.7521 19.4342 20.8034 20.0634C20.8547 20.6926 20.7379 21.2802 20.4529 21.8261C20.2415 22.209 20.0571 22.5978 19.8994 22.9927C19.7418 23.3877 19.6032 23.7947 19.4837 24.2137C19.282 24.8273 18.9426 25.3339 18.4656 25.7337C17.9885 26.1335 17.4354 26.3333 16.8062 26.3333C16.1926 26.3333 15.6929 26.1048 15.307 25.6476C14.9212 25.1905 14.7995 24.6769 14.942 24.1069C15.1642 23.1455 15.468 22.1992 15.8532 21.2681C16.2385 20.3369 16.6914 19.4644 17.2119 18.6504C17.5247 18.1636 17.974 17.9055 18.5597 17.8759C19.1455 17.8463 19.6461 18.0392 20.0616 18.4547ZM22.3949 39.8967C22.8382 39.4414 23.3696 39.1842 23.9891 39.125C24.6087 39.0658 25.2053 39.1848 25.779 39.4819C26.1618 39.6932 26.5516 39.8807 26.9484 40.0444C27.3451 40.208 27.7548 40.3496 28.1775 40.4692C28.791 40.6552 29.2977 40.9955 29.6974 41.49C30.0972 41.9846 30.2971 42.5465 30.2971 43.1757C30.2971 43.7893 30.0724 44.286 29.6232 44.6658C29.1739 45.0456 28.6642 45.1703 28.0942 45.0399C27.1171 44.8176 26.1712 44.51 25.2563 44.1169C24.3415 43.7238 23.4631 43.273 22.6214 42.7645C22.1226 42.4517 21.8562 42.0025 21.8224 41.4167C21.7886 40.8309 21.9794 40.3243 22.3949 39.8967ZM30.3333 12.8242C30.3333 13.4535 30.1443 14.0115 29.7663 14.4982C29.3882 14.9849 28.8925 15.3213 28.2789 15.5072C27.8442 15.6268 27.4293 15.7654 27.0344 15.923C26.6395 16.0806 26.2506 16.2711 25.8678 16.4946C25.2941 16.7917 24.6896 16.9115 24.0544 16.8542C23.4191 16.7968 22.872 16.5386 22.413 16.0797C21.9698 15.6365 21.7729 15.1189 21.8224 14.5271C21.8719 13.9353 22.1539 13.4831 22.6684 13.1702C23.4945 12.6618 24.3671 12.218 25.2862 11.8387C26.2053 11.4595 27.1533 11.1588 28.1304 10.9365C28.7005 10.8061 29.2101 10.9347 29.6594 11.3224C30.1087 11.7101 30.3333 12.2107 30.3333 12.8242ZM45.0507 28C45.0507 25.0181 44.1522 22.369 42.3551 20.0525C40.558 17.7361 38.2458 16.1854 35.4185 15.4004C34.8762 15.2265 34.4487 14.9001 34.1359 14.4212C33.8231 13.9423 33.6667 13.41 33.6667 12.8242C33.6667 12.2385 33.8508 11.7448 34.2192 11.3432C34.5876 10.9417 35.029 10.7983 35.5435 10.913C39.5737 11.7536 42.9019 13.7584 45.5281 16.9275C48.1543 20.0966 49.4674 23.7874 49.4674 28C49.4674 32.2126 48.1543 35.9034 45.5281 39.0725C42.9019 42.2416 39.5737 44.2464 35.5435 45.087C35.029 45.2017 34.5876 45.0583 34.2192 44.6567C33.8508 44.2552 33.6667 43.7615 33.6667 43.1757C33.6667 42.59 33.8231 42.0576 34.1359 41.5788C34.4487 41.0999 34.8762 40.7735 35.4185 40.5996C38.2458 39.8146 40.558 38.2639 42.3551 35.9475C44.1522 33.631 45.0507 30.9819 45.0507 28Z" fill="white"/>
</g>
<mask id="path-4-outside-1_25_95" maskUnits="userSpaceOnUse" x="58.6667" y="15" width="85" height="27" fill="black">
<rect fill="white" x="58.6667" y="15" width="85" height="27"/>
<path d="M63.5007 16.1191C63.9108 16.1191 64.3093 16.1895 64.696 16.3301C65.0944 16.4707 65.4753 16.6758 65.8386 16.9453C65.8972 17.0039 65.9616 17.0625 66.0319 17.1211C66.0905 17.0625 66.155 17.0039 66.2253 16.9453C66.5886 16.6758 66.9636 16.4707 67.3503 16.3301C67.7487 16.1895 68.1472 16.1191 68.5456 16.1191C68.9557 16.1191 69.3542 16.1895 69.7409 16.3301C70.1393 16.4707 70.5143 16.6816 70.8659 16.9629C71.2292 17.2324 71.5456 17.5957 71.8151 18.0527C72.0964 18.5098 72.237 19.0547 72.237 19.6875V26.0332C72.1667 26.7363 71.78 27.1172 71.0768 27.1758C70.7487 27.1758 70.4616 27.0703 70.2155 26.8594C69.9811 26.6367 69.864 26.3613 69.864 26.0332V19.8281C69.864 19.5469 69.8112 19.3125 69.7057 19.125C69.6003 18.9258 69.4831 18.7734 69.3542 18.668C69.2253 18.5508 69.0905 18.4688 68.9499 18.4219C68.8093 18.3633 68.6686 18.334 68.528 18.334C68.3874 18.334 68.2468 18.3633 68.1061 18.4219C67.9772 18.4688 67.8483 18.5508 67.7194 18.668C67.5905 18.7734 67.4733 18.9258 67.3679 19.125C67.2624 19.3125 67.2038 19.5469 67.1921 19.8281V26.0332C67.1218 26.7363 66.735 27.1172 66.0319 27.1758C65.7038 27.1758 65.4167 27.0703 65.1706 26.8594C64.9362 26.6367 64.819 26.3613 64.819 26.0332V19.8281C64.819 19.5469 64.7663 19.3125 64.6608 19.125C64.5554 18.9258 64.4382 18.7734 64.3093 18.668C64.1804 18.5508 64.0456 18.4688 63.905 18.4219C63.7643 18.3633 63.6237 18.334 63.4831 18.334C63.3425 18.334 63.2018 18.3633 63.0612 18.4219C62.9323 18.4688 62.8034 18.5508 62.6745 18.668C62.5456 18.7734 62.4284 18.9258 62.3229 19.125C62.2175 19.3125 62.1589 19.5469 62.1472 19.8281V26.0332C62.0886 26.7363 61.7077 27.1172 61.0046 27.1758C60.6765 27.1758 60.3893 27.0703 60.1432 26.8594C59.9089 26.6367 59.7917 26.3613 59.7917 26.0332V19.6875C59.8151 19.0547 59.9616 18.5098 60.2311 18.0527C60.5007 17.5957 60.8171 17.2324 61.1804 16.9629C61.5436 16.6816 61.9186 16.4707 62.3054 16.3301C62.7038 16.1895 63.1022 16.1191 63.5007 16.1191ZM78.0905 26.9648C77.0593 26.9297 76.28 26.6895 75.7526 26.2441C75.2253 25.7871 74.8444 25.2773 74.61 24.7148C74.3757 24.1406 74.2585 23.5605 74.2585 22.9746C74.2585 22.3652 74.3698 21.7793 74.5925 21.2168C74.8268 20.6426 75.2077 20.1328 75.735 19.6875C76.2741 19.2305 76.9538 18.9961 77.7741 18.9844H83.4694C84.2897 18.9961 84.9636 19.2305 85.4909 19.6875C86.03 20.1328 86.4108 20.6426 86.6335 21.2168C86.8679 21.7793 86.985 22.3652 86.985 22.9746C86.985 23.5605 86.8679 24.1406 86.6335 24.7148C86.3991 25.2773 86.0182 25.7871 85.4909 26.2441C84.9636 26.6895 84.1843 26.9297 83.153 26.9648H78.0905ZM77.7038 21.3398C77.4811 21.3398 77.2878 21.4336 77.1237 21.6211C76.9597 21.7969 76.8366 22.0078 76.7546 22.2539C76.6843 22.4883 76.6491 22.7227 76.6491 22.957C76.6491 23.2031 76.6843 23.4492 76.7546 23.6953C76.8366 23.9297 76.9597 24.1406 77.1237 24.3281C77.2878 24.5039 77.4811 24.5977 77.7038 24.6094H83.5397C83.7624 24.5977 83.9557 24.5039 84.1198 24.3281C84.2839 24.1406 84.4011 23.9297 84.4714 23.6953C84.5534 23.4492 84.5944 23.2031 84.5944 22.957C84.5944 22.7227 84.5534 22.4883 84.4714 22.2539C84.4011 22.0078 84.2839 21.7969 84.1198 21.6211C83.9557 21.4336 83.7624 21.3398 83.5397 21.3398H77.7038ZM92.7331 18.7207C93.1432 18.7207 93.5417 18.791 93.9284 18.9316C94.3268 19.0723 94.7077 19.2773 95.071 19.5469C95.1296 19.6055 95.194 19.6641 95.2643 19.7227C95.3229 19.6641 95.3874 19.6055 95.4577 19.5469C95.821 19.2773 96.196 19.0723 96.5827 18.9316C96.9811 18.791 97.3796 18.7207 97.778 18.7207C98.1882 18.7207 98.5866 18.791 98.9733 18.9316C99.3718 19.0723 99.7468 19.2832 100.098 19.5645C100.462 19.834 100.778 20.1973 101.048 20.6543C101.329 21.1113 101.469 21.6562 101.469 22.2891V26.0332C101.399 26.7363 101.012 27.1172 100.309 27.1758C99.9811 27.1758 99.694 27.0703 99.4479 26.8594C99.2136 26.6367 99.0964 26.3613 99.0964 26.0332V22.4297C99.0964 22.1484 99.0436 21.9141 98.9382 21.7266C98.8327 21.5273 98.7155 21.375 98.5866 21.2695C98.4577 21.1523 98.3229 21.0703 98.1823 21.0234C98.0417 20.9648 97.9011 20.9355 97.7604 20.9355C97.6198 20.9355 97.4792 20.9648 97.3386 21.0234C97.2097 21.0703 97.0807 21.1523 96.9518 21.2695C96.8229 21.375 96.7057 21.5273 96.6003 21.7266C96.4948 21.9141 96.4362 22.1484 96.4245 22.4297V26.0332C96.3542 26.7363 95.9675 27.1172 95.2643 27.1758C94.9362 27.1758 94.6491 27.0703 94.403 26.8594C94.1686 26.6367 94.0515 26.3613 94.0515 26.0332V22.4297C94.0515 22.1484 93.9987 21.9141 93.8932 21.7266C93.7878 21.5273 93.6706 21.375 93.5417 21.2695C93.4128 21.1523 93.278 21.0703 93.1374 21.0234C92.9968 20.9648 92.8561 20.9355 92.7155 20.9355C92.5749 20.9355 92.4343 20.9648 92.2936 21.0234C92.1647 21.0703 92.0358 21.1523 91.9069 21.2695C91.778 21.375 91.6608 21.5273 91.5554 21.7266C91.4499 21.9141 91.3913 22.1484 91.3796 22.4297V26.0332C91.321 26.7363 90.9401 27.1172 90.237 27.1758C89.9089 27.1758 89.6218 27.0703 89.3757 26.8594C89.1413 26.6367 89.0241 26.3613 89.0241 26.0332V22.2891C89.0475 21.6562 89.194 21.1113 89.4636 20.6543C89.7331 20.1973 90.0495 19.834 90.4128 19.5645C90.7761 19.2832 91.1511 19.0723 91.5378 18.9316C91.9362 18.791 92.3347 18.7207 92.7331 18.7207ZM107.253 26.9648C106.221 26.9297 105.442 26.6895 104.915 26.2441C104.387 25.7871 104.007 25.2773 103.772 24.7148C103.538 24.1406 103.421 23.5605 103.421 22.9746C103.421 22.3652 103.532 21.7793 103.755 21.2168C103.989 20.6426 104.37 20.1328 104.897 19.6875C105.436 19.2305 106.116 18.9961 106.936 18.9844H113.616C113.944 18.9844 114.219 19.0957 114.442 19.3184C114.676 19.5293 114.794 19.7871 114.794 20.0918C114.794 20.4082 114.676 20.6777 114.442 20.9004C114.219 21.1113 113.944 21.2168 113.616 21.2168H107.042C106.784 21.2168 106.555 21.3047 106.356 21.4805C106.169 21.6562 106.028 21.8848 105.934 22.166C105.852 22.4473 105.811 22.7227 105.811 22.9922C105.811 23.2852 105.852 23.5723 105.934 23.8535C106.028 24.1348 106.169 24.3633 106.356 24.5391C106.555 24.7031 106.784 24.791 107.042 24.8027H113.616C113.944 24.8027 114.219 24.9082 114.442 25.1191C114.676 25.3301 114.794 25.582 114.794 25.875C114.794 26.1797 114.676 26.4375 114.442 26.6484C114.219 26.8594 113.944 26.9648 113.616 26.9648H107.253ZM114.583 22.9395C114.583 23.1621 114.483 23.3555 114.284 23.5195C114.108 23.6719 113.885 23.748 113.616 23.748H107.868C107.598 23.748 107.37 23.6719 107.182 23.5195C106.995 23.3555 106.901 23.1621 106.901 22.9395C106.901 22.7285 106.995 22.541 107.182 22.377C107.37 22.2246 107.598 22.1484 107.868 22.1484H113.616C113.885 22.1484 114.114 22.2305 114.301 22.3945C114.489 22.5469 114.583 22.7285 114.583 22.9395ZM122.423 18.7207C123.032 18.7207 123.63 18.791 124.216 18.9316C124.813 19.0723 125.382 19.2832 125.921 19.5645C126.46 19.834 126.934 20.1973 127.344 20.6543C127.766 21.1113 127.995 21.6562 128.03 22.2891V23.0273V26.0332C127.96 26.7363 127.573 27.1172 126.87 27.1758C126.542 27.1758 126.255 27.0703 126.008 26.8594C125.774 26.6367 125.657 26.3613 125.657 26.0332V25.2598V22.834C125.633 22.4707 125.493 22.1719 125.235 21.9375C124.989 21.6914 124.708 21.498 124.391 21.3574C124.087 21.2168 123.764 21.1113 123.424 21.041C123.096 20.9707 122.762 20.9355 122.423 20.9355C122.083 20.9355 121.743 20.9707 121.403 21.041C121.075 21.1113 120.753 21.2168 120.436 21.3574C120.132 21.498 119.85 21.6914 119.592 21.9375C119.346 22.1719 119.212 22.4707 119.188 22.834V25.2598V26.0332C119.13 26.7363 118.749 27.1172 118.046 27.1758C117.717 27.1758 117.43 27.0703 117.184 26.8594C116.95 26.6367 116.833 26.3613 116.833 26.0332V23.0273V22.2891C116.868 21.6562 117.091 21.1113 117.501 20.6543C117.911 20.1973 118.385 19.834 118.924 19.5645C119.464 19.2832 120.026 19.0723 120.612 18.9316C121.21 18.791 121.813 18.7207 122.423 18.7207ZM134.077 16.3125C134.405 16.3125 134.686 16.4238 134.921 16.6465C135.155 16.8574 135.278 17.127 135.29 17.4551V18.9844H141.266C141.594 18.9844 141.876 19.0957 142.11 19.3184C142.333 19.5527 142.444 19.834 142.444 20.1621C142.444 20.4902 142.327 20.7715 142.092 21.0059C141.87 21.2285 141.594 21.3398 141.266 21.3398H135.29V21.6914C135.278 22.1719 135.307 22.6172 135.378 23.0273C135.46 23.4258 135.647 23.7832 135.94 24.0996C136.233 24.416 136.602 24.5859 137.048 24.6094H141.337C141.665 24.6211 141.934 24.7441 142.145 24.9785C142.368 25.2129 142.479 25.4941 142.479 25.8223C142.467 26.1387 142.35 26.4082 142.128 26.6309C141.917 26.8418 141.653 26.9531 141.337 26.9648H136.45C135.63 26.918 134.95 26.6426 134.411 26.1387C133.883 25.623 133.503 24.9961 133.268 24.2578C133.046 23.5195 132.928 22.7344 132.917 21.9023V21.3398H130.895C130.567 21.3398 130.292 21.2227 130.069 20.9883C129.835 20.7656 129.717 20.4902 129.717 20.1621C129.717 19.834 129.829 19.5586 130.051 19.3359C130.286 19.1016 130.567 18.9844 130.895 18.9844H132.917V17.4551C132.928 17.1387 133.046 16.875 133.268 16.6641C133.491 16.4414 133.76 16.3242 134.077 16.3125ZM68.3737 33.8223C68.3737 34.0775 68.2826 34.2917 68.1003 34.4648C67.9271 34.6471 67.7129 34.7383 67.4577 34.7383H61.989C61.8158 34.7474 61.6699 34.7884 61.5515 34.8613C61.4421 34.9251 61.36 35.0026 61.3054 35.0938C61.2507 35.1758 61.2233 35.2624 61.2233 35.3535C61.2233 35.4447 61.2507 35.5358 61.3054 35.627C61.36 35.709 61.4421 35.7865 61.5515 35.8594C61.6699 35.9232 61.8158 35.9596 61.989 35.9688H65.8718C66.5098 35.987 67.0339 36.1374 67.444 36.4199C67.8633 36.6934 68.1595 37.0124 68.3327 37.377C68.515 37.7324 68.6061 38.097 68.6061 38.4707C68.6061 38.8353 68.515 39.1999 68.3327 39.5645C68.1504 39.9199 67.8542 40.2389 67.444 40.5215C67.0339 40.7949 66.5098 40.9316 65.8718 40.9316H65.7897C65.735 40.9408 65.6804 40.9453 65.6257 40.9453H60.4577C60.2025 40.9453 59.9837 40.8587 59.8015 40.6855C59.6283 40.5033 59.5417 40.2845 59.5417 40.0293C59.5417 39.7741 59.6328 39.5599 59.8151 39.3867C59.9883 39.2044 60.2025 39.1133 60.4577 39.1133H65.9538C66.127 39.1224 66.2682 39.0905 66.3776 39.0176C66.4961 38.9447 66.5827 38.8626 66.6374 38.7715C66.6921 38.6712 66.7194 38.571 66.7194 38.4707C66.7194 38.4069 66.6921 38.3203 66.6374 38.2109C66.5827 38.0924 66.4961 37.9967 66.3776 37.9238C66.2682 37.8509 66.127 37.8099 65.9538 37.8008H62.071C61.433 37.7826 60.9043 37.6367 60.485 37.3633C60.0749 37.0898 59.7787 36.7799 59.5964 36.4336C59.4232 36.0781 59.3366 35.7181 59.3366 35.3535C59.3366 34.998 59.4278 34.6471 59.61 34.3008C59.7923 33.9453 60.0886 33.6309 60.4987 33.3574C60.9089 33.084 61.433 32.9382 62.071 32.9199H62.153C62.2077 32.9108 62.2624 32.9062 62.3171 32.9062H67.4577C67.7129 32.9062 67.9271 32.9974 68.1003 33.1797C68.2826 33.3529 68.3737 33.5671 68.3737 33.8223ZM79.8275 40.9727C79.0254 40.9453 78.4193 40.7585 78.0091 40.4121C77.599 40.0566 77.3027 39.6602 77.1204 39.2227C76.9381 38.776 76.847 38.3249 76.847 37.8691C76.847 37.3952 76.9336 36.9395 77.1068 36.502C77.2891 36.0553 77.5853 35.6589 77.9954 35.3125C78.4147 34.957 78.9434 34.7747 79.5814 34.7656H84.0111C84.6491 34.7747 85.1732 34.957 85.5833 35.3125C86.0026 35.6589 86.2988 36.0553 86.472 36.502C86.6543 36.9395 86.7454 37.3952 86.7454 37.8691C86.7454 38.3249 86.6543 38.776 86.472 39.2227C86.2897 39.6602 85.9935 40.0566 85.5833 40.4121C85.1732 40.7585 84.5671 40.9453 83.765 40.9727H79.8275ZM79.5267 36.5977C79.3535 36.5977 79.2031 36.6706 79.0755 36.8164C78.9479 36.9531 78.8522 37.1172 78.7884 37.3086C78.7337 37.4909 78.7064 37.6732 78.7064 37.8555C78.7064 38.0469 78.7337 38.2383 78.7884 38.4297C78.8522 38.612 78.9479 38.776 79.0755 38.9219C79.2031 39.0586 79.3535 39.1315 79.5267 39.1406H84.0658C84.2389 39.1315 84.3893 39.0586 84.5169 38.9219C84.6445 38.776 84.7357 38.612 84.7904 38.4297C84.8542 38.2383 84.8861 38.0469 84.8861 37.8555C84.8861 37.6732 84.8542 37.4909 84.7904 37.3086C84.7357 37.1172 84.6445 36.9531 84.5169 36.8164C84.3893 36.6706 84.2389 36.5977 84.0658 36.5977H79.5267ZM97.9531 40.9727C97.151 40.9453 96.5449 40.7585 96.1347 40.4121C95.7246 40.0566 95.4284 39.6602 95.2461 39.2227C95.0638 38.776 94.9726 38.3249 94.9726 37.8691C94.9726 37.3952 95.0592 36.9395 95.2324 36.502C95.4147 36.0553 95.7109 35.6589 96.1211 35.3125C96.5403 34.957 97.069 34.7747 97.707 34.7656H102.902C103.158 34.7656 103.372 34.8568 103.545 35.0391C103.727 35.2122 103.818 35.4264 103.818 35.6816C103.818 35.9368 103.727 36.1556 103.545 36.3379C103.372 36.5111 103.158 36.5977 102.902 36.5977H97.6523C97.4791 36.5977 97.3287 36.6706 97.2011 36.8164C97.0735 36.9531 96.9778 37.1172 96.914 37.3086C96.8593 37.4909 96.832 37.6732 96.832 37.8555C96.832 38.0469 96.8593 38.2383 96.914 38.4297C96.9778 38.612 97.0735 38.776 97.2011 38.9219C97.3287 39.0586 97.4791 39.1315 97.6523 39.1406H102.902C103.158 39.1406 103.372 39.2318 103.545 39.4141C103.727 39.5872 103.818 39.8014 103.818 40.0566C103.818 40.3118 103.727 40.526 103.545 40.6992C103.372 40.8815 103.158 40.9727 102.902 40.9727H97.9531ZM113.057 34.6289C113.303 34.638 113.513 34.7292 113.686 34.9023C113.859 35.0664 113.95 35.2715 113.96 35.5176V40.248C113.905 40.7949 113.604 41.0911 113.057 41.1367C112.802 41.1367 112.579 41.0547 112.387 40.8906C112.205 40.7174 112.114 40.5033 112.114 40.248V35.5176C112.123 35.2624 112.219 35.0527 112.401 34.8887C112.583 34.7155 112.802 34.6289 113.057 34.6289ZM111.909 32.8516C111.909 32.5964 112.018 32.3776 112.237 32.1953C112.456 32.013 112.72 31.9219 113.03 31.9219C113.34 31.9219 113.604 32.013 113.823 32.1953C114.042 32.3776 114.151 32.5964 114.151 32.8516C114.151 33.1159 114.042 33.3392 113.823 33.5215C113.604 33.7038 113.34 33.7949 113.03 33.7949C112.72 33.7949 112.456 33.7038 112.237 33.5215C112.018 33.3392 111.909 33.1159 111.909 32.8516ZM130.13 40.248V36.9531C130.13 36.7253 130.012 36.6068 129.775 36.5977H124.99C124.816 36.6068 124.666 36.6842 124.538 36.8301C124.411 36.9668 124.315 37.1309 124.251 37.3223C124.197 37.5046 124.169 37.6914 124.169 37.8828C124.169 38.0651 124.197 38.252 124.251 38.4434C124.315 38.6257 124.411 38.7897 124.538 38.9355C124.666 39.0723 124.816 39.1406 124.99 39.1406H128.49C128.745 39.1406 128.959 39.2318 129.132 39.4141C129.314 39.5872 129.406 39.8014 129.406 40.0566C129.406 40.3118 129.314 40.526 129.132 40.6992C128.959 40.8815 128.745 40.9727 128.49 40.9727H125.044C124.406 40.9635 123.878 40.7858 123.458 40.4395C123.048 40.084 122.752 39.6875 122.57 39.25C122.396 38.8034 122.31 38.3431 122.31 37.8691C122.31 37.4134 122.401 36.9668 122.583 36.5293C122.766 36.0827 123.062 35.6862 123.472 35.3398C123.882 34.9844 124.488 34.793 125.29 34.7656H131.032C131.288 34.7656 131.506 34.8522 131.689 35.0254C131.871 35.1895 131.967 35.3991 131.976 35.6543V40.248C131.976 40.5033 131.88 40.7174 131.689 40.8906C131.506 41.0547 131.288 41.1367 131.032 41.1367C130.486 41.0911 130.185 40.7949 130.13 40.248ZM141.543 32.6875C141.789 32.6966 141.999 32.7878 142.172 32.9609C142.345 33.125 142.436 33.3301 142.445 33.5762V40.2754C142.391 40.8223 142.09 41.1185 141.543 41.1641C141.288 41.1641 141.064 41.082 140.873 40.918C140.691 40.7448 140.6 40.5306 140.6 40.2754V33.5762C140.609 33.321 140.704 33.1113 140.887 32.9473C141.069 32.7741 141.288 32.6875 141.543 32.6875Z"/>
</mask>
<path d="M63.5007 16.1191C63.9108 16.1191 64.3093 16.1895 64.696 16.3301C65.0944 16.4707 65.4753 16.6758 65.8386 16.9453C65.8972 17.0039 65.9616 17.0625 66.0319 17.1211C66.0905 17.0625 66.155 17.0039 66.2253 16.9453C66.5886 16.6758 66.9636 16.4707 67.3503 16.3301C67.7487 16.1895 68.1472 16.1191 68.5456 16.1191C68.9557 16.1191 69.3542 16.1895 69.7409 16.3301C70.1393 16.4707 70.5143 16.6816 70.8659 16.9629C71.2292 17.2324 71.5456 17.5957 71.8151 18.0527C72.0964 18.5098 72.237 19.0547 72.237 19.6875V26.0332C72.1667 26.7363 71.78 27.1172 71.0768 27.1758C70.7487 27.1758 70.4616 27.0703 70.2155 26.8594C69.9811 26.6367 69.864 26.3613 69.864 26.0332V19.8281C69.864 19.5469 69.8112 19.3125 69.7057 19.125C69.6003 18.9258 69.4831 18.7734 69.3542 18.668C69.2253 18.5508 69.0905 18.4688 68.9499 18.4219C68.8093 18.3633 68.6686 18.334 68.528 18.334C68.3874 18.334 68.2468 18.3633 68.1061 18.4219C67.9772 18.4688 67.8483 18.5508 67.7194 18.668C67.5905 18.7734 67.4733 18.9258 67.3679 19.125C67.2624 19.3125 67.2038 19.5469 67.1921 19.8281V26.0332C67.1218 26.7363 66.735 27.1172 66.0319 27.1758C65.7038 27.1758 65.4167 27.0703 65.1706 26.8594C64.9362 26.6367 64.819 26.3613 64.819 26.0332V19.8281C64.819 19.5469 64.7663 19.3125 64.6608 19.125C64.5554 18.9258 64.4382 18.7734 64.3093 18.668C64.1804 18.5508 64.0456 18.4688 63.905 18.4219C63.7643 18.3633 63.6237 18.334 63.4831 18.334C63.3425 18.334 63.2018 18.3633 63.0612 18.4219C62.9323 18.4688 62.8034 18.5508 62.6745 18.668C62.5456 18.7734 62.4284 18.9258 62.3229 19.125C62.2175 19.3125 62.1589 19.5469 62.1472 19.8281V26.0332C62.0886 26.7363 61.7077 27.1172 61.0046 27.1758C60.6765 27.1758 60.3893 27.0703 60.1432 26.8594C59.9089 26.6367 59.7917 26.3613 59.7917 26.0332V19.6875C59.8151 19.0547 59.9616 18.5098 60.2311 18.0527C60.5007 17.5957 60.8171 17.2324 61.1804 16.9629C61.5436 16.6816 61.9186 16.4707 62.3054 16.3301C62.7038 16.1895 63.1022 16.1191 63.5007 16.1191ZM78.0905 26.9648C77.0593 26.9297 76.28 26.6895 75.7526 26.2441C75.2253 25.7871 74.8444 25.2773 74.61 24.7148C74.3757 24.1406 74.2585 23.5605 74.2585 22.9746C74.2585 22.3652 74.3698 21.7793 74.5925 21.2168C74.8268 20.6426 75.2077 20.1328 75.735 19.6875C76.2741 19.2305 76.9538 18.9961 77.7741 18.9844H83.4694C84.2897 18.9961 84.9636 19.2305 85.4909 19.6875C86.03 20.1328 86.4108 20.6426 86.6335 21.2168C86.8679 21.7793 86.985 22.3652 86.985 22.9746C86.985 23.5605 86.8679 24.1406 86.6335 24.7148C86.3991 25.2773 86.0182 25.7871 85.4909 26.2441C84.9636 26.6895 84.1843 26.9297 83.153 26.9648H78.0905ZM77.7038 21.3398C77.4811 21.3398 77.2878 21.4336 77.1237 21.6211C76.9597 21.7969 76.8366 22.0078 76.7546 22.2539C76.6843 22.4883 76.6491 22.7227 76.6491 22.957C76.6491 23.2031 76.6843 23.4492 76.7546 23.6953C76.8366 23.9297 76.9597 24.1406 77.1237 24.3281C77.2878 24.5039 77.4811 24.5977 77.7038 24.6094H83.5397C83.7624 24.5977 83.9557 24.5039 84.1198 24.3281C84.2839 24.1406 84.4011 23.9297 84.4714 23.6953C84.5534 23.4492 84.5944 23.2031 84.5944 22.957C84.5944 22.7227 84.5534 22.4883 84.4714 22.2539C84.4011 22.0078 84.2839 21.7969 84.1198 21.6211C83.9557 21.4336 83.7624 21.3398 83.5397 21.3398H77.7038ZM92.7331 18.7207C93.1432 18.7207 93.5417 18.791 93.9284 18.9316C94.3268 19.0723 94.7077 19.2773 95.071 19.5469C95.1296 19.6055 95.194 19.6641 95.2643 19.7227C95.3229 19.6641 95.3874 19.6055 95.4577 19.5469C95.821 19.2773 96.196 19.0723 96.5827 18.9316C96.9811 18.791 97.3796 18.7207 97.778 18.7207C98.1882 18.7207 98.5866 18.791 98.9733 18.9316C99.3718 19.0723 99.7468 19.2832 100.098 19.5645C100.462 19.834 100.778 20.1973 101.048 20.6543C101.329 21.1113 101.469 21.6562 101.469 22.2891V26.0332C101.399 26.7363 101.012 27.1172 100.309 27.1758C99.9811 27.1758 99.694 27.0703 99.4479 26.8594C99.2136 26.6367 99.0964 26.3613 99.0964 26.0332V22.4297C99.0964 22.1484 99.0436 21.9141 98.9382 21.7266C98.8327 21.5273 98.7155 21.375 98.5866 21.2695C98.4577 21.1523 98.3229 21.0703 98.1823 21.0234C98.0417 20.9648 97.9011 20.9355 97.7604 20.9355C97.6198 20.9355 97.4792 20.9648 97.3386 21.0234C97.2097 21.0703 97.0807 21.1523 96.9518 21.2695C96.8229 21.375 96.7057 21.5273 96.6003 21.7266C96.4948 21.9141 96.4362 22.1484 96.4245 22.4297V26.0332C96.3542 26.7363 95.9675 27.1172 95.2643 27.1758C94.9362 27.1758 94.6491 27.0703 94.403 26.8594C94.1686 26.6367 94.0515 26.3613 94.0515 26.0332V22.4297C94.0515 22.1484 93.9987 21.9141 93.8932 21.7266C93.7878 21.5273 93.6706 21.375 93.5417 21.2695C93.4128 21.1523 93.278 21.0703 93.1374 21.0234C92.9968 20.9648 92.8561 20.9355 92.7155 20.9355C92.5749 20.9355 92.4343 20.9648 92.2936 21.0234C92.1647 21.0703 92.0358 21.1523 91.9069 21.2695C91.778 21.375 91.6608 21.5273 91.5554 21.7266C91.4499 21.9141 91.3913 22.1484 91.3796 22.4297V26.0332C91.321 26.7363 90.9401 27.1172 90.237 27.1758C89.9089 27.1758 89.6218 27.0703 89.3757 26.8594C89.1413 26.6367 89.0241 26.3613 89.0241 26.0332V22.2891C89.0475 21.6562 89.194 21.1113 89.4636 20.6543C89.7331 20.1973 90.0495 19.834 90.4128 19.5645C90.7761 19.2832 91.1511 19.0723 91.5378 18.9316C91.9362 18.791 92.3347 18.7207 92.7331 18.7207ZM107.253 26.9648C106.221 26.9297 105.442 26.6895 104.915 26.2441C104.387 25.7871 104.007 25.2773 103.772 24.7148C103.538 24.1406 103.421 23.5605 103.421 22.9746C103.421 22.3652 103.532 21.7793 103.755 21.2168C103.989 20.6426 104.37 20.1328 104.897 19.6875C105.436 19.2305 106.116 18.9961 106.936 18.9844H113.616C113.944 18.9844 114.219 19.0957 114.442 19.3184C114.676 19.5293 114.794 19.7871 114.794 20.0918C114.794 20.4082 114.676 20.6777 114.442 20.9004C114.219 21.1113 113.944 21.2168 113.616 21.2168H107.042C106.784 21.2168 106.555 21.3047 106.356 21.4805C106.169 21.6562 106.028 21.8848 105.934 22.166C105.852 22.4473 105.811 22.7227 105.811 22.9922C105.811 23.2852 105.852 23.5723 105.934 23.8535C106.028 24.1348 106.169 24.3633 106.356 24.5391C106.555 24.7031 106.784 24.791 107.042 24.8027H113.616C113.944 24.8027 114.219 24.9082 114.442 25.1191C114.676 25.3301 114.794 25.582 114.794 25.875C114.794 26.1797 114.676 26.4375 114.442 26.6484C114.219 26.8594 113.944 26.9648 113.616 26.9648H107.253ZM114.583 22.9395C114.583 23.1621 114.483 23.3555 114.284 23.5195C114.108 23.6719 113.885 23.748 113.616 23.748H107.868C107.598 23.748 107.37 23.6719 107.182 23.5195C106.995 23.3555 106.901 23.1621 106.901 22.9395C106.901 22.7285 106.995 22.541 107.182 22.377C107.37 22.2246 107.598 22.1484 107.868 22.1484H113.616C113.885 22.1484 114.114 22.2305 114.301 22.3945C114.489 22.5469 114.583 22.7285 114.583 22.9395ZM122.423 18.7207C123.032 18.7207 123.63 18.791 124.216 18.9316C124.813 19.0723 125.382 19.2832 125.921 19.5645C126.46 19.834 126.934 20.1973 127.344 20.6543C127.766 21.1113 127.995 21.6562 128.03 22.2891V23.0273V26.0332C127.96 26.7363 127.573 27.1172 126.87 27.1758C126.542 27.1758 126.255 27.0703 126.008 26.8594C125.774 26.6367 125.657 26.3613 125.657 26.0332V25.2598V22.834C125.633 22.4707 125.493 22.1719 125.235 21.9375C124.989 21.6914 124.708 21.498 124.391 21.3574C124.087 21.2168 123.764 21.1113 123.424 21.041C123.096 20.9707 122.762 20.9355 122.423 20.9355C122.083 20.9355 121.743 20.9707 121.403 21.041C121.075 21.1113 120.753 21.2168 120.436 21.3574C120.132 21.498 119.85 21.6914 119.592 21.9375C119.346 22.1719 119.212 22.4707 119.188 22.834V25.2598V26.0332C119.13 26.7363 118.749 27.1172 118.046 27.1758C117.717 27.1758 117.43 27.0703 117.184 26.8594C116.95 26.6367 116.833 26.3613 116.833 26.0332V23.0273V22.2891C116.868 21.6562 117.091 21.1113 117.501 20.6543C117.911 20.1973 118.385 19.834 118.924 19.5645C119.464 19.2832 120.026 19.0723 120.612 18.9316C121.21 18.791 121.813 18.7207 122.423 18.7207ZM134.077 16.3125C134.405 16.3125 134.686 16.4238 134.921 16.6465C135.155 16.8574 135.278 17.127 135.29 17.4551V18.9844H141.266C141.594 18.9844 141.876 19.0957 142.11 19.3184C142.333 19.5527 142.444 19.834 142.444 20.1621C142.444 20.4902 142.327 20.7715 142.092 21.0059C141.87 21.2285 141.594 21.3398 141.266 21.3398H135.29V21.6914C135.278 22.1719 135.307 22.6172 135.378 23.0273C135.46 23.4258 135.647 23.7832 135.94 24.0996C136.233 24.416 136.602 24.5859 137.048 24.6094H141.337C141.665 24.6211 141.934 24.7441 142.145 24.9785C142.368 25.2129 142.479 25.4941 142.479 25.8223C142.467 26.1387 142.35 26.4082 142.128 26.6309C141.917 26.8418 141.653 26.9531 141.337 26.9648H136.45C135.63 26.918 134.95 26.6426 134.411 26.1387C133.883 25.623 133.503 24.9961 133.268 24.2578C133.046 23.5195 132.928 22.7344 132.917 21.9023V21.3398H130.895C130.567 21.3398 130.292 21.2227 130.069 20.9883C129.835 20.7656 129.717 20.4902 129.717 20.1621C129.717 19.834 129.829 19.5586 130.051 19.3359C130.286 19.1016 130.567 18.9844 130.895 18.9844H132.917V17.4551C132.928 17.1387 133.046 16.875 133.268 16.6641C133.491 16.4414 133.76 16.3242 134.077 16.3125ZM68.3737 33.8223C68.3737 34.0775 68.2826 34.2917 68.1003 34.4648C67.9271 34.6471 67.7129 34.7383 67.4577 34.7383H61.989C61.8158 34.7474 61.6699 34.7884 61.5515 34.8613C61.4421 34.9251 61.36 35.0026 61.3054 35.0938C61.2507 35.1758 61.2233 35.2624 61.2233 35.3535C61.2233 35.4447 61.2507 35.5358 61.3054 35.627C61.36 35.709 61.4421 35.7865 61.5515 35.8594C61.6699 35.9232 61.8158 35.9596 61.989 35.9688H65.8718C66.5098 35.987 67.0339 36.1374 67.444 36.4199C67.8633 36.6934 68.1595 37.0124 68.3327 37.377C68.515 37.7324 68.6061 38.097 68.6061 38.4707C68.6061 38.8353 68.515 39.1999 68.3327 39.5645C68.1504 39.9199 67.8542 40.2389 67.444 40.5215C67.0339 40.7949 66.5098 40.9316 65.8718 40.9316H65.7897C65.735 40.9408 65.6804 40.9453 65.6257 40.9453H60.4577C60.2025 40.9453 59.9837 40.8587 59.8015 40.6855C59.6283 40.5033 59.5417 40.2845 59.5417 40.0293C59.5417 39.7741 59.6328 39.5599 59.8151 39.3867C59.9883 39.2044 60.2025 39.1133 60.4577 39.1133H65.9538C66.127 39.1224 66.2682 39.0905 66.3776 39.0176C66.4961 38.9447 66.5827 38.8626 66.6374 38.7715C66.6921 38.6712 66.7194 38.571 66.7194 38.4707C66.7194 38.4069 66.6921 38.3203 66.6374 38.2109C66.5827 38.0924 66.4961 37.9967 66.3776 37.9238C66.2682 37.8509 66.127 37.8099 65.9538 37.8008H62.071C61.433 37.7826 60.9043 37.6367 60.485 37.3633C60.0749 37.0898 59.7787 36.7799 59.5964 36.4336C59.4232 36.0781 59.3366 35.7181 59.3366 35.3535C59.3366 34.998 59.4278 34.6471 59.61 34.3008C59.7923 33.9453 60.0886 33.6309 60.4987 33.3574C60.9089 33.084 61.433 32.9382 62.071 32.9199H62.153C62.2077 32.9108 62.2624 32.9062 62.3171 32.9062H67.4577C67.7129 32.9062 67.9271 32.9974 68.1003 33.1797C68.2826 33.3529 68.3737 33.5671 68.3737 33.8223ZM79.8275 40.9727C79.0254 40.9453 78.4193 40.7585 78.0091 40.4121C77.599 40.0566 77.3027 39.6602 77.1204 39.2227C76.9381 38.776 76.847 38.3249 76.847 37.8691C76.847 37.3952 76.9336 36.9395 77.1068 36.502C77.2891 36.0553 77.5853 35.6589 77.9954 35.3125C78.4147 34.957 78.9434 34.7747 79.5814 34.7656H84.0111C84.6491 34.7747 85.1732 34.957 85.5833 35.3125C86.0026 35.6589 86.2988 36.0553 86.472 36.502C86.6543 36.9395 86.7454 37.3952 86.7454 37.8691C86.7454 38.3249 86.6543 38.776 86.472 39.2227C86.2897 39.6602 85.9935 40.0566 85.5833 40.4121C85.1732 40.7585 84.5671 40.9453 83.765 40.9727H79.8275ZM79.5267 36.5977C79.3535 36.5977 79.2031 36.6706 79.0755 36.8164C78.9479 36.9531 78.8522 37.1172 78.7884 37.3086C78.7337 37.4909 78.7064 37.6732 78.7064 37.8555C78.7064 38.0469 78.7337 38.2383 78.7884 38.4297C78.8522 38.612 78.9479 38.776 79.0755 38.9219C79.2031 39.0586 79.3535 39.1315 79.5267 39.1406H84.0658C84.2389 39.1315 84.3893 39.0586 84.5169 38.9219C84.6445 38.776 84.7357 38.612 84.7904 38.4297C84.8542 38.2383 84.8861 38.0469 84.8861 37.8555C84.8861 37.6732 84.8542 37.4909 84.7904 37.3086C84.7357 37.1172 84.6445 36.9531 84.5169 36.8164C84.3893 36.6706 84.2389 36.5977 84.0658 36.5977H79.5267ZM97.9531 40.9727C97.151 40.9453 96.5449 40.7585 96.1347 40.4121C95.7246 40.0566 95.4284 39.6602 95.2461 39.2227C95.0638 38.776 94.9726 38.3249 94.9726 37.8691C94.9726 37.3952 95.0592 36.9395 95.2324 36.502C95.4147 36.0553 95.7109 35.6589 96.1211 35.3125C96.5403 34.957 97.069 34.7747 97.707 34.7656H102.902C103.158 34.7656 103.372 34.8568 103.545 35.0391C103.727 35.2122 103.818 35.4264 103.818 35.6816C103.818 35.9368 103.727 36.1556 103.545 36.3379C103.372 36.5111 103.158 36.5977 102.902 36.5977H97.6523C97.4791 36.5977 97.3287 36.6706 97.2011 36.8164C97.0735 36.9531 96.9778 37.1172 96.914 37.3086C96.8593 37.4909 96.832 37.6732 96.832 37.8555C96.832 38.0469 96.8593 38.2383 96.914 38.4297C96.9778 38.612 97.0735 38.776 97.2011 38.9219C97.3287 39.0586 97.4791 39.1315 97.6523 39.1406H102.902C103.158 39.1406 103.372 39.2318 103.545 39.4141C103.727 39.5872 103.818 39.8014 103.818 40.0566C103.818 40.3118 103.727 40.526 103.545 40.6992C103.372 40.8815 103.158 40.9727 102.902 40.9727H97.9531ZM113.057 34.6289C113.303 34.638 113.513 34.7292 113.686 34.9023C113.859 35.0664 113.95 35.2715 113.96 35.5176V40.248C113.905 40.7949 113.604 41.0911 113.057 41.1367C112.802 41.1367 112.579 41.0547 112.387 40.8906C112.205 40.7174 112.114 40.5033 112.114 40.248V35.5176C112.123 35.2624 112.219 35.0527 112.401 34.8887C112.583 34.7155 112.802 34.6289 113.057 34.6289ZM111.909 32.8516C111.909 32.5964 112.018 32.3776 112.237 32.1953C112.456 32.013 112.72 31.9219 113.03 31.9219C113.34 31.9219 113.604 32.013 113.823 32.1953C114.042 32.3776 114.151 32.5964 114.151 32.8516C114.151 33.1159 114.042 33.3392 113.823 33.5215C113.604 33.7038 113.34 33.7949 113.03 33.7949C112.72 33.7949 112.456 33.7038 112.237 33.5215C112.018 33.3392 111.909 33.1159 111.909 32.8516ZM130.13 40.248V36.9531C130.13 36.7253 130.012 36.6068 129.775 36.5977H124.99C124.816 36.6068 124.666 36.6842 124.538 36.8301C124.411 36.9668 124.315 37.1309 124.251 37.3223C124.197 37.5046 124.169 37.6914 124.169 37.8828C124.169 38.0651 124.197 38.252 124.251 38.4434C124.315 38.6257 124.411 38.7897 124.538 38.9355C124.666 39.0723 124.816 39.1406 124.99 39.1406H128.49C128.745 39.1406 128.959 39.2318 129.132 39.4141C129.314 39.5872 129.406 39.8014 129.406 40.0566C129.406 40.3118 129.314 40.526 129.132 40.6992C128.959 40.8815 128.745 40.9727 128.49 40.9727H125.044C124.406 40.9635 123.878 40.7858 123.458 40.4395C123.048 40.084 122.752 39.6875 122.57 39.25C122.396 38.8034 122.31 38.3431 122.31 37.8691C122.31 37.4134 122.401 36.9668 122.583 36.5293C122.766 36.0827 123.062 35.6862 123.472 35.3398C123.882 34.9844 124.488 34.793 125.29 34.7656H131.032C131.288 34.7656 131.506 34.8522 131.689 35.0254C131.871 35.1895 131.967 35.3991 131.976 35.6543V40.248C131.976 40.5033 131.88 40.7174 131.689 40.8906C131.506 41.0547 131.288 41.1367 131.032 41.1367C130.486 41.0911 130.185 40.7949 130.13 40.248ZM141.543 32.6875C141.789 32.6966 141.999 32.7878 142.172 32.9609C142.345 33.125 142.436 33.3301 142.445 33.5762V40.2754C142.391 40.8223 142.09 41.1185 141.543 41.1641C141.288 41.1641 141.064 41.082 140.873 40.918C140.691 40.7448 140.6 40.5306 140.6 40.2754V33.5762C140.609 33.321 140.704 33.1113 140.887 32.9473C141.069 32.7741 141.288 32.6875 141.543 32.6875Z" fill="white"/>
<path d="M64.696 16.3301L64.6276 16.518L64.6294 16.5187L64.696 16.3301ZM65.8386 16.9453L65.98 16.8039L65.9696 16.7935L65.9577 16.7847L65.8386 16.9453ZM66.0319 17.1211L65.9039 17.2747L66.0442 17.3917L66.1733 17.2625L66.0319 17.1211ZM66.2253 16.9453L66.1059 16.7844L66.0972 16.7917L66.2253 16.9453ZM67.3503 16.3301L67.2837 16.1415L67.2819 16.1421L67.3503 16.3301ZM69.7409 16.3301L69.6726 16.518L69.6743 16.5187L69.7409 16.3301ZM70.8659 16.9629L70.7409 17.1192L70.7467 17.1235L70.8659 16.9629ZM71.8151 18.0527L71.6428 18.1543L71.6448 18.1576L71.8151 18.0527ZM72.237 26.0332L72.436 26.0531L72.437 26.0432V26.0332H72.237ZM71.0768 27.1758V27.3758H71.0852L71.0935 27.3751L71.0768 27.1758ZM70.2155 26.8594L70.0776 27.0046L70.0854 27.0112L70.2155 26.8594ZM69.7057 19.125L69.5289 19.2186L69.5314 19.2231L69.7057 19.125ZM69.3542 18.668L69.2195 18.8162L69.2275 18.8228L69.3542 18.668ZM68.9499 18.4219L68.873 18.6065L68.8797 18.6093L68.8866 18.6116L68.9499 18.4219ZM68.1061 18.4219L68.1746 18.61L68.1831 18.6065L68.1061 18.4219ZM67.7194 18.668L67.8462 18.823L67.854 18.816L67.7194 18.668ZM67.3679 19.125L67.5422 19.2231L67.5446 19.2186L67.3679 19.125ZM67.1921 19.8281L66.9921 19.8198V19.8281H67.1921ZM67.1921 26.0332L67.3911 26.0531L67.3921 26.0432V26.0332H67.1921ZM66.0319 27.1758V27.3758H66.0402L66.0485 27.3751L66.0319 27.1758ZM65.1706 26.8594L65.0327 27.0046L65.0404 27.0112L65.1706 26.8594ZM64.6608 19.125L64.484 19.2186L64.4865 19.2231L64.6608 19.125ZM64.3093 18.668L64.1745 18.8162L64.1826 18.8228L64.3093 18.668ZM63.905 18.4219L63.828 18.6065L63.8348 18.6093L63.8417 18.6116L63.905 18.4219ZM63.0612 18.4219L63.1296 18.61L63.1381 18.6065L63.0612 18.4219ZM62.6745 18.668L62.8013 18.823L62.809 18.816L62.6745 18.668ZM62.3229 19.125L62.4973 19.2231L62.4997 19.2186L62.3229 19.125ZM62.1472 19.8281L61.9472 19.8198V19.8281H62.1472ZM62.1472 26.0332L62.3465 26.0498L62.3472 26.0415V26.0332H62.1472ZM61.0046 27.1758V27.3758H61.0129L61.0212 27.3751L61.0046 27.1758ZM60.1432 26.8594L60.0053 27.0046L60.0131 27.0112L60.1432 26.8594ZM59.7917 19.6875L59.5917 19.6801V19.6875H59.7917ZM61.1804 16.9629L61.2996 17.1235L61.3028 17.121L61.1804 16.9629ZM62.3054 16.3301L62.2388 16.1415L62.237 16.1421L62.3054 16.3301ZM63.5007 16.3191C63.8874 16.3191 64.2628 16.3854 64.6276 16.518L64.7643 16.1421C64.3558 15.9936 63.9342 15.9191 63.5007 15.9191V16.3191ZM64.6294 16.5187C65.0077 16.6522 65.371 16.8475 65.7194 17.1059L65.9577 16.7847C65.5795 16.5041 65.1811 16.2892 64.7625 16.1415L64.6294 16.5187ZM65.6971 17.0867C65.7604 17.15 65.8294 17.2127 65.9039 17.2747L66.16 16.9674C66.0938 16.9123 66.0339 16.8578 65.98 16.8039L65.6971 17.0867ZM66.1733 17.2625C66.2272 17.2086 66.2872 17.1541 66.3533 17.099L66.0972 16.7917C66.0228 16.8537 65.9538 16.9164 65.8905 16.9797L66.1733 17.2625ZM66.3444 17.1059C66.6937 16.8468 67.0518 16.6514 67.4186 16.518L67.2819 16.1421C66.8753 16.29 66.4834 16.5048 66.1061 16.7847L66.3444 17.1059ZM67.4168 16.5187C67.7952 16.3851 68.1712 16.3191 68.5456 16.3191V15.9191C68.1231 15.9191 67.7022 15.9938 67.2837 16.1415L67.4168 16.5187ZM68.5456 16.3191C68.9324 16.3191 69.3077 16.3854 69.6726 16.518L69.8093 16.1421C69.4007 15.9936 68.9791 15.9191 68.5456 15.9191V16.3191ZM69.6743 16.5187C70.0503 16.6514 70.4058 16.8509 70.741 17.1191L70.9908 16.8067C70.6229 16.5124 70.2284 16.29 69.8075 16.1415L69.6743 16.5187ZM70.7467 17.1235C71.0852 17.3746 71.3846 17.7164 71.6429 18.1543L71.9874 17.9511C71.7066 17.475 71.3732 17.0902 70.9851 16.8023L70.7467 17.1235ZM71.6448 18.1576C71.9034 18.5778 72.037 19.085 72.037 19.6875H72.437C72.437 19.0244 72.2893 18.4417 71.9855 17.9479L71.6448 18.1576ZM72.037 19.6875V26.0332H72.437V19.6875H72.037ZM72.038 26.0133C72.0061 26.3326 71.905 26.5548 71.7539 26.7037C71.6028 26.8525 71.3794 26.9499 71.0602 26.9765L71.0935 27.3751C71.4774 27.3431 71.799 27.2207 72.0346 26.9887C72.2701 26.7567 72.3976 26.4369 72.436 26.0531L72.038 26.0133ZM71.0768 26.9758C70.7958 26.9758 70.555 26.887 70.3457 26.7075L70.0854 27.0112C70.3682 27.2537 70.7016 27.3758 71.0768 27.3758V26.9758ZM70.3533 26.7144C70.1593 26.5301 70.064 26.3074 70.064 26.0332H69.664C69.664 26.4152 69.803 26.7433 70.0778 27.0044L70.3533 26.7144ZM70.064 26.0332V19.8281H69.664V26.0332H70.064ZM70.064 19.8281C70.064 19.5228 70.0068 19.2522 69.8801 19.0269L69.5314 19.2231C69.6157 19.3728 69.664 19.571 69.664 19.8281H70.064ZM69.8825 19.0314C69.7687 18.8165 69.6363 18.6403 69.4808 18.5132L69.2275 18.8228C69.3299 18.9065 69.4318 19.0351 69.529 19.2186L69.8825 19.0314ZM69.4887 18.52C69.3428 18.3873 69.1844 18.2892 69.0131 18.2321L68.8866 18.6116C68.9966 18.6483 69.1078 18.7143 69.2197 18.816L69.4887 18.52ZM69.0268 18.2373C68.8639 18.1694 68.6972 18.134 68.528 18.134V18.534C68.6401 18.534 68.7547 18.5572 68.873 18.6065L69.0268 18.2373ZM68.528 18.134C68.3589 18.134 68.1922 18.1694 68.0292 18.2373L68.1831 18.6065C68.3014 18.5572 68.4159 18.534 68.528 18.534V18.134ZM68.0378 18.2339C67.8788 18.2917 67.7281 18.3898 67.5849 18.52L67.854 18.816C67.9686 18.7117 68.0757 18.6458 68.1745 18.6098L68.0378 18.2339ZM67.5928 18.5132C67.4374 18.6403 67.3049 18.8165 67.1911 19.0314L67.5446 19.2186C67.6418 19.0351 67.7437 18.9065 67.8461 18.8228L67.5928 18.5132ZM67.1935 19.0269C67.0686 19.2491 67.0049 19.5164 66.9923 19.8198L67.3919 19.8365C67.4027 19.5773 67.4562 19.3759 67.5422 19.2231L67.1935 19.0269ZM66.9921 19.8281V26.0332H67.3921V19.8281H66.9921ZM66.9931 26.0133C66.9611 26.3326 66.8601 26.5548 66.709 26.7037C66.5578 26.8525 66.3345 26.9499 66.0153 26.9765L66.0485 27.3751C66.4325 27.3431 66.754 27.2207 66.9896 26.9887C67.2252 26.7567 67.3527 26.4369 67.3911 26.0531L66.9931 26.0133ZM66.0319 26.9758C65.7509 26.9758 65.5101 26.887 65.3008 26.7075L65.0404 27.0112C65.3233 27.2537 65.6567 27.3758 66.0319 27.3758V26.9758ZM65.3083 26.7144C65.1144 26.5301 65.019 26.3074 65.019 26.0332H64.619C64.619 26.4152 64.7581 26.7433 65.0328 27.0044L65.3083 26.7144ZM65.019 26.0332V19.8281H64.619V26.0332H65.019ZM65.019 19.8281C65.019 19.5228 64.9618 19.2522 64.8351 19.0269L64.4865 19.2231C64.5707 19.3728 64.619 19.571 64.619 19.8281H65.019ZM64.8376 19.0314C64.7238 18.8165 64.5913 18.6403 64.4359 18.5132L64.1826 18.8228C64.285 18.9065 64.3869 19.0351 64.4841 19.2186L64.8376 19.0314ZM64.4438 18.52C64.2979 18.3873 64.1395 18.2892 63.9682 18.2321L63.8417 18.6116C63.9517 18.6483 64.0629 18.7143 64.1747 18.816L64.4438 18.52ZM63.9819 18.2373C63.8189 18.1694 63.6523 18.134 63.4831 18.134V18.534C63.5952 18.534 63.7097 18.5572 63.828 18.6065L63.9819 18.2373ZM63.4831 18.134C63.3139 18.134 63.1472 18.1694 62.9843 18.2373L63.1381 18.6065C63.2564 18.5572 63.371 18.534 63.4831 18.534V18.134ZM62.9929 18.2339C62.8339 18.2917 62.6831 18.3898 62.54 18.52L62.809 18.816C62.9237 18.7117 63.0307 18.6458 63.1296 18.6098L62.9929 18.2339ZM62.5479 18.5132C62.3924 18.6403 62.26 18.8165 62.1462 19.0314L62.4997 19.2186C62.5968 19.0351 62.6988 18.9065 62.8011 18.8228L62.5479 18.5132ZM62.1486 19.0269C62.0237 19.2491 61.96 19.5164 61.9473 19.8198L62.347 19.8365C62.3578 19.5773 62.4113 19.3759 62.4973 19.2231L62.1486 19.0269ZM61.9472 19.8281V26.0332H62.3472V19.8281H61.9472ZM61.9478 26.0166C61.9212 26.3358 61.8239 26.557 61.6761 26.7048C61.5284 26.8526 61.3072 26.9499 60.988 26.9765L61.0212 27.3751C61.4051 27.3431 61.7259 27.2207 61.959 26.9876C62.1921 26.7545 62.3145 26.4337 62.3465 26.0498L61.9478 26.0166ZM61.0046 26.9758C60.7235 26.9758 60.4828 26.887 60.2734 26.7075L60.0131 27.0112C60.2959 27.2537 60.6294 27.3758 61.0046 27.3758V26.9758ZM60.281 26.7144C60.087 26.5301 59.9917 26.3074 59.9917 26.0332H59.5917C59.5917 26.4152 59.7307 26.7433 60.0055 27.0044L60.281 26.7144ZM59.9917 26.0332V19.6875H59.5917V26.0332H59.9917ZM59.9915 19.6949C60.014 19.0889 60.1537 18.5777 60.4034 18.1543L60.0589 17.9511C59.7695 18.4418 59.6163 19.0205 59.5918 19.6801L59.9915 19.6949ZM60.4034 18.1543C60.6617 17.7164 60.9611 17.3746 61.2995 17.1235L61.0612 16.8023C60.6731 17.0902 60.3397 17.475 60.0589 17.9511L60.4034 18.1543ZM61.3028 17.121C61.6516 16.851 62.0086 16.6508 62.3737 16.518L62.237 16.1421C61.8287 16.2906 61.4357 16.5123 61.0579 16.8047L61.3028 17.121ZM62.3719 16.5187C62.7503 16.3851 63.1262 16.3191 63.5007 16.3191V15.9191C63.0782 15.9191 62.6573 15.9938 62.2388 16.1415L62.3719 16.5187ZM78.0905 26.9648L78.0837 27.1648H78.0905V26.9648ZM75.7526 26.2441L75.6216 26.3953L75.6236 26.3969L75.7526 26.2441ZM74.61 24.7148L74.4249 24.7904L74.4254 24.7918L74.61 24.7148ZM74.5925 21.2168L74.4073 21.1412L74.4065 21.1432L74.5925 21.2168ZM75.735 19.6875L75.8641 19.8403L75.8644 19.8401L75.735 19.6875ZM77.7741 18.9844V18.7844L77.7713 18.7844L77.7741 18.9844ZM83.4694 18.9844L83.4723 18.7844H83.4694V18.9844ZM85.4909 19.6875L85.3599 19.8387L85.3635 19.8417L85.4909 19.6875ZM86.6335 21.2168L86.447 21.2891L86.4489 21.2937L86.6335 21.2168ZM86.6335 24.7148L86.8181 24.7918L86.8187 24.7904L86.6335 24.7148ZM85.4909 26.2441L85.62 26.397L85.6219 26.3953L85.4909 26.2441ZM83.153 26.9648V27.165L83.1598 27.1647L83.153 26.9648ZM77.1237 21.6211L77.27 21.7576L77.2742 21.7528L77.1237 21.6211ZM76.7546 22.2539L76.5648 22.1906L76.563 22.1964L76.7546 22.2539ZM76.7546 23.6953L76.5619 23.7503L76.5658 23.7614L76.7546 23.6953ZM77.1237 24.3281L76.9731 24.4599L76.9775 24.4646L77.1237 24.3281ZM77.7038 24.6094L77.6933 24.8094H77.7038V24.6094ZM83.5397 24.6094V24.8097L83.5502 24.8091L83.5397 24.6094ZM84.1198 24.3281L84.2661 24.4647L84.2703 24.4598L84.1198 24.3281ZM84.4714 23.6953L84.2816 23.632L84.2798 23.6378L84.4714 23.6953ZM84.4714 22.2539L84.2787 22.3089L84.2826 22.32L84.4714 22.2539ZM84.1198 21.6211L83.9692 21.7529L83.9736 21.7576L84.1198 21.6211ZM78.0973 26.765C77.0897 26.7306 76.3614 26.4964 75.8817 26.0913L75.6236 26.3969C76.1986 26.8825 77.0288 27.1288 78.0837 27.1647L78.0973 26.765ZM75.8836 26.093C75.3762 25.6533 75.0155 25.168 74.7947 24.6379L74.4254 24.7918C74.6733 25.3867 75.0743 25.9209 75.6216 26.3953L75.8836 26.093ZM74.7952 24.6393C74.5701 24.0876 74.4585 23.5331 74.4585 22.9746H74.0585C74.0585 23.588 74.1813 24.1936 74.4249 24.7904L74.7952 24.6393ZM74.4585 22.9746C74.4585 22.3902 74.5651 21.8293 74.7784 21.2904L74.4065 21.1432C74.1745 21.7293 74.0585 22.3402 74.0585 22.9746H74.4585ZM74.7776 21.2924C74.9985 20.7513 75.3586 20.2672 75.8641 19.8403L75.606 19.5347C75.0568 19.9985 74.6552 20.5339 74.4073 21.1412L74.7776 21.2924ZM75.8644 19.8401C76.3625 19.4177 76.9952 19.1955 77.777 19.1844L77.7713 18.7844C76.9124 18.7967 76.1857 19.0432 75.6057 19.5349L75.8644 19.8401ZM77.7741 19.1844H83.4694V18.7844H77.7741V19.1844ZM83.4666 19.1844C84.2484 19.1955 84.8743 19.4177 85.3599 19.8386L85.6219 19.5364C85.0529 19.0432 84.331 18.7967 83.4723 18.7844L83.4666 19.1844ZM85.3635 19.8417C85.8798 20.2682 86.2383 20.7509 86.447 21.2891L86.82 21.1445C86.5833 20.5343 86.1801 19.9974 85.6183 19.5333L85.3635 19.8417ZM86.4489 21.2937C86.6731 21.8318 86.785 22.3916 86.785 22.9746H87.185C87.185 22.3388 87.0626 21.7267 86.8181 21.1399L86.4489 21.2937ZM86.785 22.9746C86.785 23.5331 86.6735 24.0876 86.4483 24.6393L86.8187 24.7904C87.0622 24.1936 87.185 23.588 87.185 22.9746H86.785ZM86.4489 24.6379C86.228 25.168 85.8673 25.6533 85.3599 26.093L85.6219 26.3953C86.1692 25.9209 86.5702 25.3867 86.8181 24.7918L86.4489 24.6379ZM85.3619 26.0913C84.8822 26.4964 84.1538 26.7306 83.1462 26.765L83.1598 27.1647C84.2147 27.1288 85.045 26.8825 85.6199 26.3969L85.3619 26.0913ZM83.153 26.7648H78.0905V27.1648H83.153V26.7648ZM77.7038 21.1398C77.4162 21.1398 77.1702 21.2643 76.9732 21.4894L77.2742 21.7528C77.4054 21.6029 77.5461 21.5398 77.7038 21.5398V21.1398ZM76.9775 21.4846C76.7923 21.683 76.6552 21.9195 76.5648 22.1907L76.9443 22.3172C77.018 22.0961 77.127 21.9107 77.2699 21.7576L76.9775 21.4846ZM76.563 22.1964C76.4874 22.4486 76.4491 22.7023 76.4491 22.957H76.8491C76.8491 22.743 76.8812 22.5279 76.9461 22.3114L76.563 22.1964ZM76.4491 22.957C76.4491 23.2224 76.4871 23.487 76.5623 23.7503L76.9469 23.6404C76.8815 23.4114 76.8491 23.1838 76.8491 22.957H76.4491ZM76.5658 23.7614C76.6563 24.02 76.7924 24.2532 76.9732 24.4598L77.2742 24.1964C77.1269 24.0281 77.0169 23.8394 76.9433 23.6292L76.5658 23.7614ZM76.9775 24.4646C77.1739 24.675 77.4146 24.7944 77.6933 24.8091L77.7143 24.4097C77.5477 24.4009 77.4017 24.3328 77.2699 24.1917L76.9775 24.4646ZM77.7038 24.8094H83.5397V24.4094H77.7038V24.8094ZM83.5502 24.8091C83.8289 24.7944 84.0697 24.675 84.266 24.4646L83.9736 24.1917C83.8418 24.3328 83.6959 24.4009 83.5292 24.4097L83.5502 24.8091ZM84.2703 24.4598C84.4529 24.2512 84.5843 24.0151 84.6629 23.7528L84.2798 23.6378C84.2179 23.8443 84.1149 24.03 83.9693 24.1964L84.2703 24.4598ZM84.6611 23.7586C84.7496 23.4932 84.7944 23.2258 84.7944 22.957H84.3944C84.3944 23.1805 84.3572 23.4053 84.2816 23.6321L84.6611 23.7586ZM84.7944 22.957C84.7944 22.6988 84.7492 22.4422 84.6601 22.1878L84.2826 22.32C84.3576 22.5344 84.3944 22.7465 84.3944 22.957H84.7944ZM84.6637 22.199C84.5852 21.9244 84.4531 21.685 84.266 21.4846L83.9736 21.7576C84.1147 21.9087 84.2169 22.0912 84.2791 22.3089L84.6637 22.199ZM84.2703 21.4894C84.0733 21.2643 83.8273 21.1398 83.5397 21.1398V21.5398C83.6975 21.5398 83.8382 21.6029 83.9693 21.7528L84.2703 21.4894ZM83.5397 21.1398H77.7038V21.5398H83.5397V21.1398ZM93.9284 18.9316L93.8601 19.1196L93.8618 19.1202L93.9284 18.9316ZM95.071 19.5469L95.2124 19.4055L95.202 19.395L95.1902 19.3863L95.071 19.5469ZM95.2643 19.7227L95.1363 19.8763L95.2766 19.9932L95.4058 19.8641L95.2643 19.7227ZM95.4577 19.5469L95.3383 19.386L95.3297 19.3932L95.4577 19.5469ZM96.5827 18.9316L96.5161 18.743L96.5144 18.7437L96.5827 18.9316ZM98.9733 18.9316L98.905 19.1196L98.9068 19.1202L98.9733 18.9316ZM100.098 19.5645L99.9733 19.7207L99.9792 19.7251L100.098 19.5645ZM101.048 20.6543L100.875 20.7559L100.877 20.7591L101.048 20.6543ZM101.469 26.0332L101.668 26.0531L101.669 26.0432V26.0332H101.469ZM100.309 27.1758V27.3758H100.318L100.326 27.3751L100.309 27.1758ZM99.4479 26.8594L99.31 27.0046L99.3178 27.0112L99.4479 26.8594ZM98.9382 21.7266L98.7614 21.8202L98.7639 21.8246L98.9382 21.7266ZM98.5866 21.2695L98.4519 21.4177L98.46 21.4243L98.5866 21.2695ZM98.1823 21.0234L98.1054 21.2081L98.1121 21.2109L98.1191 21.2132L98.1823 21.0234ZM97.3386 21.0234L97.407 21.2116L97.4155 21.2081L97.3386 21.0234ZM96.9518 21.2695L97.0787 21.4245L97.0864 21.4175L96.9518 21.2695ZM96.6003 21.7266L96.7747 21.8246L96.777 21.8201L96.6003 21.7266ZM96.4245 22.4297L96.2245 22.4214V22.4297H96.4245ZM96.4245 26.0332L96.6235 26.0531L96.6245 26.0432V26.0332H96.4245ZM95.2643 27.1758V27.3758H95.2727L95.281 27.3751L95.2643 27.1758ZM94.403 26.8594L94.2651 27.0046L94.2729 27.0112L94.403 26.8594ZM93.8932 21.7266L93.7164 21.8202L93.7189 21.8246L93.8932 21.7266ZM93.5417 21.2695L93.407 21.4177L93.415 21.4243L93.5417 21.2695ZM93.1374 21.0234L93.0605 21.2081L93.0672 21.2109L93.0741 21.2132L93.1374 21.0234ZM92.2936 21.0234L92.3621 21.2116L92.3706 21.2081L92.2936 21.0234ZM91.9069 21.2695L92.0337 21.4245L92.0415 21.4175L91.9069 21.2695ZM91.5554 21.7266L91.7297 21.8246L91.7321 21.8201L91.5554 21.7266ZM91.3796 22.4297L91.1796 22.4214V22.4297H91.3796ZM91.3796 26.0332L91.5789 26.0498L91.5796 26.0415V26.0332H91.3796ZM90.237 27.1758V27.3758H90.2453L90.2536 27.3751L90.237 27.1758ZM89.3757 26.8594L89.2377 27.0046L89.2455 27.0112L89.3757 26.8594ZM89.0241 22.2891L88.8241 22.2817V22.2891H89.0241ZM90.4128 19.5645L90.532 19.7251L90.5352 19.7226L90.4128 19.5645ZM91.5378 18.9316L91.4712 18.743L91.4694 18.7437L91.5378 18.9316ZM92.7331 18.9207C93.1199 18.9207 93.4952 18.9869 93.8601 19.1196L93.9968 18.7437C93.5882 18.5951 93.1666 18.5207 92.7331 18.5207V18.9207ZM93.8618 19.1202C94.2402 19.2538 94.6034 19.449 94.9518 19.7075L95.1902 19.3863C94.812 19.1057 94.4135 18.8908 93.995 18.743L93.8618 19.1202ZM94.9296 19.6883C94.9928 19.7516 95.0618 19.8142 95.1363 19.8763L95.3924 19.569C95.3262 19.5139 95.2663 19.4594 95.2124 19.4055L94.9296 19.6883ZM95.4058 19.8641C95.4597 19.8102 95.5196 19.7556 95.5857 19.7005L95.3297 19.3932C95.2552 19.4553 95.1862 19.518 95.1229 19.5812L95.4058 19.8641ZM95.5769 19.7075C95.9262 19.4484 96.2842 19.253 96.6511 19.1196L96.5144 18.7437C96.1078 18.8915 95.7158 19.1063 95.3385 19.3863L95.5769 19.7075ZM96.6493 19.1202C97.0276 18.9867 97.4036 18.9207 97.778 18.9207V18.5207C97.3556 18.5207 96.9347 18.5953 96.5161 18.743L96.6493 19.1202ZM97.778 18.9207C98.1648 18.9207 98.5401 18.9869 98.905 19.1196L99.0417 18.7437C98.6331 18.5951 98.2116 18.5207 97.778 18.5207V18.9207ZM98.9068 19.1202C99.2827 19.2529 99.6382 19.4525 99.9734 19.7206L100.223 19.4083C99.8554 19.1139 99.4608 18.8916 99.0399 18.743L98.9068 19.1202ZM99.9792 19.7251C100.318 19.9762 100.617 20.318 100.875 20.7559L101.22 20.5527C100.939 20.0766 100.606 19.6918 100.217 19.4038L99.9792 19.7251ZM100.877 20.7591C101.136 21.1794 101.269 21.6865 101.269 22.2891H101.669C101.669 21.626 101.522 21.0433 101.218 20.5495L100.877 20.7591ZM101.269 22.2891V26.0332H101.669V22.2891H101.269ZM101.27 26.0133C101.238 26.3326 101.137 26.5548 100.986 26.7037C100.835 26.8525 100.612 26.9499 100.293 26.9765L100.326 27.3751C100.71 27.3431 101.031 27.2207 101.267 26.9887C101.503 26.7567 101.63 26.4369 101.668 26.0531L101.27 26.0133ZM100.309 26.9758C100.028 26.9758 99.7875 26.887 99.5781 26.7075L99.3178 27.0112C99.6006 27.2537 99.934 27.3758 100.309 27.3758V26.9758ZM99.5857 26.7144C99.3917 26.5301 99.2964 26.3074 99.2964 26.0332H98.8964C98.8964 26.4152 99.0354 26.7433 99.3102 27.0044L99.5857 26.7144ZM99.2964 26.0332V22.4297H98.8964V26.0332H99.2964ZM99.2964 22.4297C99.2964 22.1243 99.2392 21.8538 99.1125 21.6285L98.7639 21.8246C98.8481 21.9744 98.8964 22.1725 98.8964 22.4297H99.2964ZM99.1149 21.633C99.0011 21.4181 98.8687 21.2419 98.7133 21.1147L98.46 21.4243C98.5624 21.5081 98.6643 21.6366 98.7614 21.8201L99.1149 21.633ZM98.7211 21.1215C98.5752 20.9889 98.4168 20.8908 98.2456 20.8337L98.1191 21.2132C98.2291 21.2498 98.3402 21.3158 98.4521 21.4175L98.7211 21.1215ZM98.2592 20.8388C98.0963 20.7709 97.9296 20.7355 97.7604 20.7355V21.1355C97.8725 21.1355 97.9871 21.1588 98.1054 21.2081L98.2592 20.8388ZM97.7604 20.7355C97.5913 20.7355 97.4246 20.7709 97.2616 20.8388L97.4155 21.2081C97.5338 21.1588 97.6483 21.1355 97.7604 21.1355V20.7355ZM97.2702 20.8355C97.1112 20.8933 96.9605 20.9914 96.8173 21.1215L97.0864 21.4175C97.201 21.3133 97.3081 21.2473 97.4069 21.2114L97.2702 20.8355ZM96.8252 21.1147C96.6698 21.2419 96.5373 21.4181 96.4235 21.633L96.777 21.8201C96.8742 21.6366 96.9761 21.5081 97.0785 21.4243L96.8252 21.1147ZM96.426 21.6285C96.301 21.8506 96.2373 22.118 96.2247 22.4214L96.6243 22.438C96.6351 22.1789 96.6886 21.9775 96.7746 21.8246L96.426 21.6285ZM96.2245 22.4297V26.0332H96.6245V22.4297H96.2245ZM96.2255 26.0133C96.1936 26.3326 96.0925 26.5548 95.9414 26.7037C95.7903 26.8525 95.5669 26.9499 95.2477 26.9765L95.281 27.3751C95.6649 27.3431 95.9865 27.2207 96.2221 26.9887C96.4576 26.7567 96.5851 26.4369 96.6235 26.0531L96.2255 26.0133ZM95.2643 26.9758C94.9833 26.9758 94.7425 26.887 94.5332 26.7075L94.2729 27.0112C94.5557 27.2537 94.8891 27.3758 95.2643 27.3758V26.9758ZM94.5408 26.7144C94.3468 26.5301 94.2515 26.3074 94.2515 26.0332H93.8515C93.8515 26.4152 93.9905 26.7433 94.2653 27.0044L94.5408 26.7144ZM94.2515 26.0332V22.4297H93.8515V26.0332H94.2515ZM94.2515 22.4297C94.2515 22.1243 94.1943 21.8538 94.0676 21.6285L93.7189 21.8246C93.8032 21.9744 93.8515 22.1725 93.8515 22.4297H94.2515ZM94.07 21.633C93.9562 21.4181 93.8237 21.2419 93.6683 21.1147L93.415 21.4243C93.5174 21.5081 93.6193 21.6366 93.7165 21.8201L94.07 21.633ZM93.6762 21.1215C93.5303 20.9889 93.3719 20.8908 93.2006 20.8337L93.0741 21.2132C93.1841 21.2498 93.2953 21.3158 93.4072 21.4175L93.6762 21.1215ZM93.2143 20.8388C93.0514 20.7709 92.8847 20.7355 92.7155 20.7355V21.1355C92.8276 21.1355 92.9422 21.1588 93.0605 21.2081L93.2143 20.8388ZM92.7155 20.7355C92.5464 20.7355 92.3797 20.7709 92.2167 20.8388L92.3706 21.2081C92.4889 21.1588 92.6034 21.1355 92.7155 21.1355V20.7355ZM92.2253 20.8355C92.0663 20.8933 91.9156 20.9914 91.7724 21.1215L92.0415 21.4175C92.1561 21.3133 92.2632 21.2473 92.362 21.2114L92.2253 20.8355ZM91.7803 21.1147C91.6249 21.2419 91.4924 21.4181 91.3786 21.633L91.7321 21.8201C91.8293 21.6366 91.9312 21.5081 92.0336 21.4243L91.7803 21.1147ZM91.381 21.6285C91.2561 21.8506 91.1924 22.118 91.1798 22.4214L91.5794 22.438C91.5902 22.1789 91.6437 21.9775 91.7297 21.8246L91.381 21.6285ZM91.1796 22.4297V26.0332H91.5796V22.4297H91.1796ZM91.1803 26.0166C91.1537 26.3358 91.0564 26.557 90.9086 26.7048C90.7608 26.8526 90.5396 26.9499 90.2204 26.9765L90.2536 27.3751C90.6375 27.3431 90.9583 27.2207 91.1914 26.9876C91.4245 26.7545 91.5469 26.4337 91.5789 26.0498L91.1803 26.0166ZM90.237 26.9758C89.956 26.9758 89.7152 26.887 89.5058 26.7075L89.2455 27.0112C89.5283 27.2537 89.8618 27.3758 90.237 27.3758V26.9758ZM89.5134 26.7144C89.3195 26.5301 89.2241 26.3074 89.2241 26.0332H88.8241C88.8241 26.4152 88.9631 26.7433 89.2379 27.0044L89.5134 26.7144ZM89.2241 26.0332V22.2891H88.8241V26.0332H89.2241ZM89.224 22.2965C89.2464 21.6904 89.3862 21.1793 89.6358 20.7559L89.2913 20.5527C89.0019 21.0434 88.8487 21.6221 88.8242 22.2817L89.224 22.2965ZM89.6358 20.7559C89.8941 20.318 90.1935 19.9762 90.5319 19.7251L90.2936 19.4038C89.9055 19.6918 89.5721 20.0766 89.2913 20.5527L89.6358 20.7559ZM90.5352 19.7226C90.884 19.4526 91.241 19.2524 91.6061 19.1196L91.4694 18.7437C91.0611 18.8922 90.6681 19.1138 90.2903 19.4063L90.5352 19.7226ZM91.6043 19.1202C91.9827 18.9867 92.3587 18.9207 92.7331 18.9207V18.5207C92.3106 18.5207 91.8897 18.5953 91.4712 18.743L91.6043 19.1202ZM107.253 26.9648L107.246 27.1648H107.253V26.9648ZM104.915 26.2441L104.784 26.3953L104.786 26.3969L104.915 26.2441ZM103.772 24.7148L103.587 24.7904L103.588 24.7918L103.772 24.7148ZM103.755 21.2168L103.569 21.1412L103.569 21.1432L103.755 21.2168ZM104.897 19.6875L105.026 19.8403L105.026 19.8401L104.897 19.6875ZM106.936 18.9844V18.7844L106.933 18.7844L106.936 18.9844ZM114.442 19.3184L114.3 19.46L114.308 19.467L114.442 19.3184ZM114.442 20.9004L114.58 21.0456L114.58 21.0454L114.442 20.9004ZM106.356 21.4805L106.224 21.3304L106.219 21.3346L106.356 21.4805ZM105.934 22.166L105.744 22.1027L105.742 22.11L105.934 22.166ZM105.934 23.8535L105.742 23.9096L105.745 23.9168L105.934 23.8535ZM106.356 24.5391L106.219 24.6853L106.229 24.6934L106.356 24.5391ZM107.042 24.8027L107.033 25.0027H107.042V24.8027ZM114.442 25.1191L114.304 25.2644L114.308 25.2678L114.442 25.1191ZM114.442 26.6484L114.308 26.4997L114.305 26.5032L114.442 26.6484ZM114.284 23.5195L114.157 23.3651L114.153 23.3684L114.284 23.5195ZM107.182 23.5195L107.051 23.6701L107.056 23.6748L107.182 23.5195ZM107.182 22.377L107.056 22.2216L107.051 22.2264L107.182 22.377ZM114.301 22.3945L114.17 22.5451L114.175 22.5498L114.301 22.3945ZM107.259 26.765C106.252 26.7306 105.523 26.4964 105.044 26.0913L104.786 26.3969C105.361 26.8825 106.191 27.1288 107.246 27.1647L107.259 26.765ZM105.046 26.093C104.538 25.6533 104.178 25.168 103.957 24.6379L103.588 24.7918C103.835 25.3867 104.236 25.9209 104.784 26.3953L105.046 26.093ZM103.957 24.6393C103.732 24.0876 103.621 23.5331 103.621 22.9746H103.221C103.221 23.588 103.343 24.1936 103.587 24.7904L103.957 24.6393ZM103.621 22.9746C103.621 22.3902 103.727 21.8293 103.941 21.2904L103.569 21.1432C103.337 21.7293 103.221 22.3402 103.221 22.9746H103.621ZM103.94 21.2924C104.161 20.7513 104.521 20.2672 105.026 19.8403L104.768 19.5347C104.219 19.9985 103.817 20.5339 103.569 21.1412L103.94 21.2924ZM105.026 19.8401C105.525 19.4177 106.157 19.1955 106.939 19.1844L106.933 18.7844C106.075 18.7967 105.348 19.0432 104.768 19.5349L105.026 19.8401ZM106.936 19.1844H113.616V18.7844H106.936V19.1844ZM113.616 19.1844C113.893 19.1844 114.117 19.2764 114.301 19.4598L114.583 19.1769C114.322 18.9151 113.995 18.7844 113.616 18.7844V19.1844ZM114.308 19.467C114.502 19.6415 114.594 19.846 114.594 20.0918H114.994C114.994 19.7282 114.851 19.4171 114.576 19.1697L114.308 19.467ZM114.594 20.0918C114.594 20.352 114.5 20.5696 114.304 20.7554L114.58 21.0454C114.853 20.7859 114.994 20.4644 114.994 20.0918H114.594ZM114.305 20.7552C114.122 20.9283 113.897 21.0168 113.616 21.0168V21.4168C113.991 21.4168 114.317 21.2943 114.58 21.0456L114.305 20.7552ZM113.616 21.0168H107.042V21.4168H113.616V21.0168ZM107.042 21.0168C106.734 21.0168 106.458 21.1236 106.224 21.3305L106.488 21.6304C106.652 21.4858 106.834 21.4168 107.042 21.4168V21.0168ZM106.219 21.3346C106.004 21.5363 105.847 21.7949 105.745 22.1028L106.124 22.2293C106.209 21.9747 106.333 21.7762 106.493 21.6264L106.219 21.3346ZM105.742 22.11C105.655 22.4079 105.611 22.7021 105.611 22.9922H106.011C106.011 22.7432 106.049 22.4866 106.126 22.222L105.742 22.11ZM105.611 22.9922C105.611 23.3041 105.655 23.6101 105.742 23.9095L106.126 23.7975C106.05 23.5345 106.011 23.2662 106.011 22.9922H105.611ZM105.745 23.9168C105.847 24.2247 106.004 24.4832 106.219 24.685L106.493 24.3932C106.333 24.2434 106.209 24.0449 106.124 23.7903L105.745 23.9168ZM106.229 24.6934C106.462 24.885 106.732 24.9888 107.033 25.0025L107.051 24.6029C106.836 24.5932 106.649 24.5212 106.483 24.3847L106.229 24.6934ZM107.042 25.0027H113.616V24.6027H107.042V25.0027ZM113.616 25.0027C113.897 25.0027 114.122 25.0912 114.305 25.2643L114.58 24.974C114.317 24.7252 113.991 24.6027 113.616 24.6027V25.0027ZM114.308 25.2678C114.504 25.4441 114.594 25.6434 114.594 25.875H114.994C114.994 25.5206 114.849 25.2161 114.576 24.9705L114.308 25.2678ZM114.594 25.875C114.594 26.1208 114.502 26.3253 114.308 26.4998L114.576 26.7971C114.851 26.5497 114.994 26.2386 114.994 25.875H114.594ZM114.305 26.5032C114.122 26.6764 113.897 26.7648 113.616 26.7648V27.1648C113.991 27.1648 114.317 27.0424 114.58 26.7936L114.305 26.5032ZM113.616 26.7648H107.253V27.1648H113.616V26.7648ZM114.383 22.9395C114.383 23.0925 114.318 23.2323 114.157 23.3651L114.411 23.6739C114.648 23.4786 114.783 23.2317 114.783 22.9395H114.383ZM114.153 23.3684C114.019 23.4843 113.845 23.548 113.616 23.548V23.948C113.925 23.948 114.197 23.8594 114.415 23.6707L114.153 23.3684ZM113.616 23.548H107.868V23.948H113.616V23.548ZM107.868 23.548C107.639 23.548 107.456 23.4843 107.308 23.3643L107.056 23.6748C107.283 23.8594 107.558 23.948 107.868 23.948V23.548ZM107.314 23.369C107.164 23.2379 107.101 23.0972 107.101 22.9395H106.701C106.701 23.227 106.825 23.4731 107.051 23.67L107.314 23.369ZM107.101 22.9395C107.101 22.7968 107.161 22.6611 107.314 22.5275L107.051 22.2264C106.828 22.4209 106.701 22.6603 106.701 22.9395H107.101ZM107.308 22.5322C107.456 22.4122 107.639 22.3484 107.868 22.3484V21.9484C107.558 21.9484 107.283 22.0371 107.056 22.2217L107.308 22.5322ZM107.868 22.3484H113.616V21.9484H107.868V22.3484ZM113.616 22.3484C113.841 22.3484 114.022 22.4156 114.17 22.545L114.433 22.244C114.206 22.0453 113.93 21.9484 113.616 21.9484V22.3484ZM114.175 22.5498C114.324 22.6703 114.383 22.7979 114.383 22.9395H114.783C114.783 22.6591 114.654 22.4234 114.428 22.2393L114.175 22.5498ZM124.216 18.9316L124.169 19.1261L124.17 19.1263L124.216 18.9316ZM125.921 19.5645L125.828 19.7418L125.831 19.7433L125.921 19.5645ZM127.344 20.6543L127.196 20.7879L127.197 20.79L127.344 20.6543ZM128.03 22.2891H128.23L128.23 22.278L128.03 22.2891ZM128.03 26.0332L128.229 26.0531L128.23 26.0432V26.0332H128.03ZM126.87 27.1758V27.3758H126.878L126.886 27.3751L126.87 27.1758ZM126.008 26.8594L125.871 27.0046L125.878 27.0112L126.008 26.8594ZM125.657 22.834H125.857L125.857 22.8211L125.657 22.834ZM125.235 21.9375L125.093 22.0791L125.101 22.0855L125.235 21.9375ZM124.391 21.3574L124.307 21.539L124.31 21.5402L124.391 21.3574ZM123.424 21.041L123.383 21.2366L123.384 21.2369L123.424 21.041ZM121.403 21.041L121.362 20.8452L121.361 20.8455L121.403 21.041ZM120.436 21.3574L120.355 21.1746L120.352 21.1758L120.436 21.3574ZM119.592 21.9375L119.73 22.0823L119.731 22.0822L119.592 21.9375ZM119.188 22.834L118.988 22.8211V22.834H119.188ZM119.188 26.0332L119.387 26.0498L119.388 26.0415V26.0332H119.188ZM118.046 27.1758V27.3758H118.054L118.062 27.3751L118.046 27.1758ZM117.184 26.8594L117.046 27.0046L117.054 27.0112L117.184 26.8594ZM116.833 22.2891L116.633 22.278V22.2891H116.833ZM118.924 19.5645L119.014 19.7434L119.017 19.7418L118.924 19.5645ZM120.612 18.9316L120.566 18.737L120.565 18.7372L120.612 18.9316ZM122.423 18.9207C123.016 18.9207 123.598 18.9892 124.169 19.1261L124.262 18.7372C123.661 18.5928 123.047 18.5207 122.423 18.5207V18.9207ZM124.17 19.1263C124.751 19.2632 125.304 19.4683 125.828 19.7418L126.013 19.3871C125.459 19.0981 124.875 18.8814 124.261 18.737L124.17 19.1263ZM125.831 19.7433C126.347 20.0014 126.802 20.3492 127.196 20.7879L127.493 20.5207C127.067 20.0453 126.572 19.6666 126.01 19.3856L125.831 19.7433ZM127.197 20.79C127.587 21.2121 127.798 21.7128 127.83 22.3002L128.23 22.278C128.192 21.5997 127.945 21.0105 127.491 20.5186L127.197 20.79ZM127.83 22.2891V23.0273H128.23V22.2891H127.83ZM127.83 23.0273V26.0332H128.23V23.0273H127.83ZM127.831 26.0133C127.799 26.3326 127.698 26.5548 127.547 26.7037C127.396 26.8525 127.172 26.9499 126.853 26.9765L126.886 27.3751C127.27 27.3431 127.592 27.2207 127.828 26.9887C128.063 26.7567 128.191 26.4369 128.229 26.0531L127.831 26.0133ZM126.87 26.9758C126.589 26.9758 126.348 26.887 126.139 26.7075L125.878 27.0112C126.161 27.2537 126.495 27.3758 126.87 27.3758V26.9758ZM126.146 26.7144C125.952 26.5301 125.857 26.3074 125.857 26.0332H125.457C125.457 26.4152 125.596 26.7433 125.871 27.0044L126.146 26.7144ZM125.857 26.0332V25.2598H125.457V26.0332H125.857ZM125.857 25.2598V22.834H125.457V25.2598H125.857ZM125.857 22.8211C125.83 22.4086 125.668 22.0605 125.37 21.7895L125.101 22.0855C125.318 22.2833 125.437 22.5328 125.457 22.8469L125.857 22.8211ZM125.376 21.7961C125.113 21.5327 124.811 21.3253 124.473 21.1747L124.31 21.5402C124.604 21.6708 124.865 21.8501 125.094 22.0789L125.376 21.7961ZM124.475 21.1758C124.156 21.0286 123.819 20.9185 123.465 20.8452L123.384 21.2369C123.709 21.3042 124.017 21.405 124.307 21.539L124.475 21.1758ZM123.466 20.8455C123.124 20.7722 122.776 20.7355 122.423 20.7355V21.1355C122.748 21.1355 123.068 21.1693 123.383 21.2366L123.466 20.8455ZM122.423 20.7355C122.069 20.7355 121.715 20.7722 121.362 20.8452L121.444 21.2369C121.77 21.1693 122.097 21.1355 122.423 21.1355V20.7355ZM121.361 20.8455C121.019 20.9188 120.684 21.0286 120.355 21.1747L120.517 21.5402C120.822 21.405 121.131 21.3039 121.445 21.2366L121.361 20.8455ZM120.352 21.1758C120.027 21.3262 119.727 21.5325 119.454 21.7928L119.731 22.0822C119.973 21.8503 120.237 21.6698 120.52 21.539L120.352 21.1758ZM119.455 21.7927C119.169 22.0643 119.015 22.4116 118.989 22.8211L119.388 22.8469C119.408 22.5298 119.523 22.2794 119.73 22.0823L119.455 21.7927ZM118.988 22.834V25.2598H119.388V22.834H118.988ZM118.988 25.2598V26.0332H119.388V25.2598H118.988ZM118.989 26.0166C118.962 26.3358 118.865 26.557 118.717 26.7048C118.569 26.8526 118.348 26.9499 118.029 26.9765L118.062 27.3751C118.446 27.3431 118.767 27.2207 119 26.9876C119.233 26.7545 119.355 26.4337 119.387 26.0498L118.989 26.0166ZM118.046 26.9758C117.765 26.9758 117.524 26.887 117.314 26.7075L117.054 27.0112C117.337 27.2537 117.67 27.3758 118.046 27.3758V26.9758ZM117.322 26.7144C117.128 26.5301 117.033 26.3074 117.033 26.0332H116.633C116.633 26.4152 116.772 26.7433 117.047 27.0044L117.322 26.7144ZM117.033 26.0332V23.0273H116.633V26.0332H117.033ZM117.033 23.0273V22.2891H116.633V23.0273H117.033ZM117.032 22.3002C117.065 21.7112 117.271 21.2099 117.65 20.7879L117.352 20.5207C116.91 21.0128 116.671 21.6013 116.633 22.278L117.032 22.3002ZM117.65 20.7879C118.043 20.3492 118.498 20.0014 119.014 19.7433L118.835 19.3856C118.273 19.6666 117.778 20.0453 117.352 20.5207L117.65 20.7879ZM119.017 19.7418C119.542 19.468 120.089 19.2629 120.659 19.1261L120.565 18.7372C119.963 18.8816 119.385 19.0984 118.832 19.3871L119.017 19.7418ZM120.658 19.1263C121.241 18.9892 121.829 18.9207 122.423 18.9207V18.5207C121.798 18.5207 121.179 18.5928 120.566 18.737L120.658 19.1263ZM134.077 16.3125V16.1124L134.069 16.1126L134.077 16.3125ZM134.921 16.6465L134.783 16.7915L134.787 16.7951L134.921 16.6465ZM135.29 17.4551H135.49L135.49 17.4479L135.29 17.4551ZM135.29 18.9844H135.09V19.1844H135.29V18.9844ZM142.11 19.3184L142.255 19.1804L142.248 19.1734L142.11 19.3184ZM135.29 21.3398V21.1398H135.09V21.3398H135.29ZM135.29 21.6914L135.49 21.6963V21.6914H135.29ZM135.378 23.0273L135.18 23.0612L135.182 23.0677L135.378 23.0273ZM137.048 24.6094L137.037 24.8094H137.048V24.6094ZM141.337 24.6094L141.344 24.4094H141.337V24.6094ZM142.145 24.9785L141.996 25.1124L142 25.1163L142.145 24.9785ZM142.479 25.8223L142.679 25.8297V25.8223H142.479ZM141.337 26.9648V27.165L141.344 27.1647L141.337 26.9648ZM136.45 26.9648L136.438 27.1648H136.45V26.9648ZM134.411 26.1387L134.271 26.2817L134.274 26.2848L134.411 26.1387ZM133.268 24.2578L133.077 24.3156L133.078 24.3183L133.268 24.2578ZM132.917 21.9023H132.717L132.717 21.9052L132.917 21.9023ZM132.917 21.3398H133.117V21.1398H132.917V21.3398ZM130.069 20.9883L130.214 20.8504L130.207 20.8433L130.069 20.9883ZM132.917 18.9844V19.1844H133.117V18.9844H132.917ZM132.917 17.4551L132.717 17.4477V17.4551H132.917ZM133.268 16.6641L133.406 16.8093L133.41 16.8055L133.268 16.6641ZM134.077 16.5125C134.355 16.5125 134.586 16.6047 134.783 16.7915L135.058 16.5015C134.786 16.2429 134.455 16.1125 134.077 16.1125V16.5125ZM134.787 16.7951C134.979 16.9682 135.08 17.1858 135.09 17.4622L135.49 17.4479C135.476 17.0681 135.331 16.7467 135.054 16.4978L134.787 16.7951ZM135.09 17.4551V18.9844H135.49V17.4551H135.09ZM135.29 19.1844H141.266V18.7844H135.29V19.1844ZM141.266 19.1844C141.544 19.1844 141.776 19.2766 141.972 19.4634L142.248 19.1734C141.976 18.9148 141.645 18.7844 141.266 18.7844V19.1844ZM141.965 19.4561C142.152 19.6527 142.244 19.8844 142.244 20.1621H142.644C142.644 19.7836 142.514 19.4528 142.255 19.1806L141.965 19.4561ZM142.244 20.1621C142.244 20.4366 142.148 20.6671 141.951 20.8644L142.234 21.1473C142.505 20.8758 142.644 20.5439 142.644 20.1621H142.244ZM141.951 20.8644C141.768 21.0479 141.544 21.1398 141.266 21.1398V21.5398C141.645 21.5398 141.972 21.4092 142.234 21.1473L141.951 20.8644ZM141.266 21.1398H135.29V21.5398H141.266V21.1398ZM135.09 21.3398V21.6914H135.49V21.3398H135.09ZM135.09 21.6865C135.078 22.178 135.108 22.6364 135.181 23.0611L135.575 22.9936C135.507 22.5979 135.478 22.1657 135.49 21.6963L135.09 21.6865ZM135.182 23.0677C135.272 23.504 135.477 23.894 135.793 24.2355L136.087 23.9637C135.817 23.6724 135.648 23.3475 135.574 22.987L135.182 23.0677ZM135.793 24.2355C136.123 24.5915 136.542 24.783 137.037 24.8091L137.058 24.4097C136.663 24.3888 136.343 24.2405 136.087 23.9637L135.793 24.2355ZM137.048 24.8094H141.337V24.4094H137.048V24.8094ZM141.329 24.8092C141.606 24.8191 141.824 24.9201 141.997 25.1123L142.294 24.8447C142.045 24.5682 141.724 24.4231 141.344 24.4095L141.329 24.8092ZM142 25.1163C142.187 25.3129 142.279 25.5446 142.279 25.8223H142.679C142.679 25.4437 142.549 25.1129 142.29 24.8408L142 25.1163ZM142.279 25.8149C142.269 26.0811 142.173 26.3027 141.986 26.4894L142.269 26.7723C142.528 26.5137 142.665 26.1962 142.679 25.8297L142.279 25.8149ZM141.986 26.4894C141.813 26.6623 141.599 26.755 141.329 26.765L141.344 27.1647C141.707 27.1512 142.02 27.0212 142.269 26.7723L141.986 26.4894ZM141.337 26.7648H136.45V27.1648H141.337V26.7648ZM136.461 26.7652C135.682 26.7206 135.048 26.4609 134.547 25.9926L134.274 26.2848C134.851 26.8243 135.577 27.1153 136.438 27.1645L136.461 26.7652ZM134.551 25.9957C134.048 25.5041 133.684 24.906 133.459 24.1973L133.078 24.3183C133.321 25.0862 133.719 25.742 134.271 26.2817L134.551 25.9957ZM133.46 24.2001C133.243 23.481 133.128 22.7144 133.117 21.8995L132.717 21.9052C132.729 22.7543 132.848 23.5581 133.077 24.3156L133.46 24.2001ZM133.117 21.9023V21.3398H132.717V21.9023H133.117ZM132.917 21.1398H130.895V21.5398H132.917V21.1398ZM130.895 21.1398C130.621 21.1398 130.398 21.0445 130.214 20.8505L129.924 21.126C130.185 21.4008 130.513 21.5398 130.895 21.5398V21.1398ZM130.207 20.8433C130.013 20.659 129.917 20.4363 129.917 20.1621H129.517C129.517 20.5441 129.656 20.8722 129.931 21.1333L130.207 20.8433ZM129.917 20.1621C129.917 19.8845 130.009 19.6608 130.193 19.4774L129.91 19.1945C129.648 19.4564 129.517 19.7834 129.517 20.1621H129.917ZM130.193 19.4774C130.39 19.2801 130.621 19.1844 130.895 19.1844V18.7844C130.513 18.7844 130.181 18.9231 129.91 19.1945L130.193 19.4774ZM130.895 19.1844H132.917V18.7844H130.895V19.1844ZM133.117 18.9844V17.4551H132.717V18.9844H133.117ZM133.117 17.4625C133.126 17.1965 133.222 16.9829 133.406 16.8093L133.131 16.5189C132.869 16.7671 132.73 17.0808 132.717 17.4477L133.117 17.4625ZM133.41 16.8055C133.596 16.6187 133.818 16.5222 134.084 16.5124L134.069 16.1126C133.703 16.1262 133.385 16.2641 133.127 16.5226L133.41 16.8055ZM68.1003 34.4648L67.9623 34.3197L67.9553 34.3271L68.1003 34.4648ZM61.989 34.7383V34.538L61.9784 34.5386L61.989 34.7383ZM61.5515 34.8613L61.6523 35.0341L61.6563 35.0317L61.5515 34.8613ZM61.3054 35.0938L61.472 35.2048L61.4769 35.1966L61.3054 35.0938ZM61.3054 35.627L61.1337 35.73L61.1389 35.7379L61.3054 35.627ZM61.5515 35.8594L61.4405 36.0258L61.4483 36.031L61.4566 36.0355L61.5515 35.8594ZM61.989 35.9688L61.9784 36.1688H61.989V35.9688ZM65.8718 35.9688L65.8775 35.7687H65.8718V35.9688ZM67.444 36.4199L67.3305 36.5847L67.3348 36.5874L67.444 36.4199ZM68.3327 37.377L68.152 37.4628L68.1547 37.4682L68.3327 37.377ZM68.3327 39.5645L68.5107 39.6557L68.5116 39.6539L68.3327 39.5645ZM67.444 40.5215L67.555 40.6879L67.5575 40.6862L67.444 40.5215ZM65.7897 40.9316V40.7316H65.7732L65.7569 40.7344L65.7897 40.9316ZM59.8015 40.6855L59.6563 40.8235L59.6637 40.8305L59.8015 40.6855ZM59.8151 39.3867L59.9531 39.5319L59.9601 39.5245L59.8151 39.3867ZM65.9538 39.1133L65.9643 38.9133H65.9538V39.1133ZM66.3776 39.0176L66.2727 38.8471L66.2667 38.8512L66.3776 39.0176ZM66.6374 38.7715L66.809 38.8745L66.813 38.8673L66.6374 38.7715ZM66.6374 38.2109L66.4557 38.2948L66.4585 38.3004L66.6374 38.2109ZM66.3776 37.9238L66.2666 38.0903L66.2728 38.0942L66.3776 37.9238ZM65.9538 37.8008L65.9643 37.6008H65.9538V37.8008ZM62.071 37.8008L62.0653 38.0008H62.071V37.8008ZM60.485 37.3633L60.3741 37.5297L60.3758 37.5308L60.485 37.3633ZM59.5964 36.4336L59.4165 36.5212L59.4194 36.5267L59.5964 36.4336ZM59.61 34.3008L59.787 34.3939L59.788 34.392L59.61 34.3008ZM62.071 32.9199V32.7198L62.0653 32.72L62.071 32.9199ZM62.153 32.9199V33.1199H62.1696L62.1859 33.1172L62.153 32.9199ZM68.1003 33.1797L67.9551 33.3176L67.9625 33.3247L68.1003 33.1797ZM68.1737 33.8223C68.1737 34.0236 68.1044 34.1851 67.9625 34.3198L68.238 34.6098C68.4607 34.3983 68.5737 34.1314 68.5737 33.8223H68.1737ZM67.9553 34.3271C67.8205 34.469 67.659 34.5383 67.4577 34.5383V34.9383C67.7668 34.9383 68.0337 34.8253 68.2453 34.6026L67.9553 34.3271ZM67.4577 34.5383H61.989V34.9383H67.4577V34.5383ZM61.9784 34.5386C61.78 34.549 61.5998 34.5967 61.4466 34.691L61.6563 35.0317C61.7401 34.9801 61.8516 34.9458 61.9995 34.938L61.9784 34.5386ZM61.4507 34.6886C61.3178 34.7661 61.2089 34.8658 61.1339 34.9909L61.4769 35.1966C61.5112 35.1394 61.5664 35.0842 61.6522 35.0341L61.4507 34.6886ZM61.1389 34.9828C61.0642 35.0949 61.0233 35.2196 61.0233 35.3535H61.4233C61.4233 35.3051 61.4371 35.2567 61.4718 35.2047L61.1389 34.9828ZM61.0233 35.3535C61.0233 35.4866 61.0637 35.6129 61.1339 35.7299L61.4769 35.5241C61.4377 35.4588 61.4233 35.4028 61.4233 35.3535H61.0233ZM61.1389 35.7379C61.2123 35.8479 61.3161 35.9428 61.4405 36.0258L61.6624 35.693C61.5681 35.6301 61.5078 35.5701 61.4718 35.516L61.1389 35.7379ZM61.4566 36.0355C61.6075 36.1167 61.784 36.1582 61.9784 36.1685L61.9995 35.769C61.8476 35.761 61.7324 35.7296 61.6463 35.6833L61.4566 36.0355ZM61.989 36.1688H65.8718V35.7687H61.989V36.1688ZM65.8661 36.1687C66.4763 36.1861 66.96 36.3293 67.3306 36.5846L67.5575 36.2552C67.1077 35.9454 66.5433 35.7879 65.8775 35.7688L65.8661 36.1687ZM67.3348 36.5874C67.7306 36.8456 67.9981 37.1386 68.152 37.4628L68.5134 37.2911C68.321 36.8861 67.996 36.5412 67.5533 36.2524L67.3348 36.5874ZM68.1547 37.4682C68.3236 37.7974 68.4061 38.1309 68.4061 38.4707H68.8061C68.8061 38.0631 68.7064 37.6674 68.5107 37.2857L68.1547 37.4682ZM68.4061 38.4707C68.4061 38.8007 68.3239 39.1349 68.1538 39.475L68.5116 39.6539C68.7061 39.2649 68.8061 38.8698 68.8061 38.4707H68.4061ZM68.1547 39.4732C67.9908 39.7928 67.7201 40.0884 67.3306 40.3568L67.5575 40.6862C67.9883 40.3894 68.31 40.047 68.5107 39.6557L68.1547 39.4732ZM67.3331 40.3551C66.9642 40.601 66.4818 40.7316 65.8718 40.7316V41.1316C66.5378 41.1316 67.1035 40.9888 67.555 40.6879L67.3331 40.3551ZM65.8718 40.7316H65.7897V41.1316H65.8718V40.7316ZM65.7569 40.7344C65.7129 40.7417 65.6692 40.7453 65.6257 40.7453V41.1453C65.6915 41.1453 65.7572 41.1398 65.8226 41.1289L65.7569 40.7344ZM65.6257 40.7453H60.4577V41.1453H65.6257V40.7453ZM60.4577 40.7453C60.2529 40.7453 60.0837 40.6778 59.9392 40.5405L59.6637 40.8305C59.8838 41.0396 60.1521 41.1453 60.4577 41.1453V40.7453ZM59.9465 40.5478C59.8092 40.4033 59.7417 40.2341 59.7417 40.0293H59.3417C59.3417 40.3349 59.4474 40.6032 59.6565 40.8233L59.9465 40.5478ZM59.7417 40.0293C59.7417 39.828 59.811 39.6665 59.9529 39.5317L59.6774 39.2417C59.4547 39.4533 59.3417 39.7202 59.3417 40.0293H59.7417ZM59.9601 39.5245C60.0949 39.3826 60.2564 39.3133 60.4577 39.3133V38.9133C60.1486 38.9133 59.8817 39.0263 59.6701 39.249L59.9601 39.5245ZM60.4577 39.3133H65.9538V38.9133H60.4577V39.3133ZM65.9433 39.313C66.1458 39.3237 66.3334 39.2874 66.4886 39.184L66.2667 38.8512C66.2031 38.8936 66.1081 38.9211 65.9643 38.9136L65.9433 39.313ZM66.4824 39.1879C66.6201 39.1032 66.7334 39.0002 66.8089 38.8744L66.4659 38.6686C66.432 38.7251 66.3721 38.7861 66.2728 38.8472L66.4824 39.1879ZM66.813 38.8673C66.8814 38.7418 66.9194 38.6088 66.9194 38.4707H66.5194C66.5194 38.5331 66.5027 38.6007 66.4618 38.6757L66.813 38.8673ZM66.9194 38.4707C66.9194 38.3588 66.8744 38.2377 66.8163 38.1215L66.4585 38.3004C66.5098 38.403 66.5194 38.455 66.5194 38.4707H66.9194ZM66.819 38.1271C66.7467 37.9705 66.6322 37.8456 66.4824 37.7535L66.2728 38.0942C66.3601 38.1479 66.4187 38.2144 66.4558 38.2947L66.819 38.1271ZM66.4886 37.7574C66.3412 37.6592 66.1622 37.6115 65.9643 37.6011L65.9433 38.0005C66.0917 38.0083 66.1953 38.0426 66.2667 38.0902L66.4886 37.7574ZM65.9538 37.6008H62.071V38.0008H65.9538V37.6008ZM62.0767 37.6009C61.4655 37.5834 60.9753 37.4442 60.5943 37.1958L60.3758 37.5308C60.8334 37.8292 61.4004 37.9817 62.0653 38.0007L62.0767 37.6009ZM60.596 37.1969C60.2065 36.9372 59.9366 36.6505 59.7734 36.3404L59.4194 36.5267C59.6208 36.9094 59.9432 37.2424 60.3741 37.5297L60.596 37.1969ZM59.7762 36.346C59.6151 36.0155 59.5366 35.6852 59.5366 35.3535H59.1366C59.1366 35.751 59.2312 36.1408 59.4166 36.5212L59.7762 36.346ZM59.5366 35.3535C59.5366 35.0337 59.6183 34.7145 59.787 34.3939L59.4331 34.2076C59.2372 34.5798 59.1366 34.9624 59.1366 35.3535H59.5366ZM59.788 34.392C59.9515 34.0733 60.2213 33.7827 60.6097 33.5238L60.3878 33.191C59.9558 33.479 59.6332 33.8174 59.4321 34.2095L59.788 34.392ZM60.6097 33.5238C60.9806 33.2765 61.4653 33.1373 62.0767 33.1198L62.0653 32.72C61.4006 32.739 60.8371 32.8914 60.3878 33.191L60.6097 33.5238ZM62.071 33.1199H62.153V32.7199H62.071V33.1199ZM62.1859 33.1172C62.2299 33.1099 62.2736 33.1063 62.3171 33.1063V32.7062C62.2512 32.7062 62.1855 32.7117 62.1201 32.7226L62.1859 33.1172ZM62.3171 33.1063H67.4577V32.7062H62.3171V33.1063ZM67.4577 33.1063C67.659 33.1063 67.8205 33.1756 67.9553 33.3174L68.2453 33.0419C68.0337 32.8192 67.7668 32.7062 67.4577 32.7062V33.1063ZM67.9625 33.3247C68.1044 33.4595 68.1737 33.6209 68.1737 33.8223H68.5737C68.5737 33.5132 68.4607 33.2463 68.238 33.0347L67.9625 33.3247ZM79.8275 40.9727L79.8207 41.1727H79.8275V40.9727ZM78.0091 40.4121L77.8781 40.5633L77.8801 40.5649L78.0091 40.4121ZM77.1204 39.2227L76.9353 39.2982L76.9358 39.2996L77.1204 39.2227ZM77.1068 36.502L76.9216 36.4264L76.9208 36.4283L77.1068 36.502ZM77.9954 35.3125L78.1245 35.4653L78.1248 35.4651L77.9954 35.3125ZM79.5814 34.7656V34.5656L79.5785 34.5656L79.5814 34.7656ZM84.0111 34.7656L84.0139 34.5656H84.0111V34.7656ZM85.5833 35.3125L85.4523 35.4637L85.456 35.4667L85.5833 35.3125ZM86.472 36.502L86.2855 36.5743L86.2874 36.5789L86.472 36.502ZM86.472 39.2227L86.6566 39.2996L86.6572 39.2982L86.472 39.2227ZM85.5833 40.4121L85.7124 40.5649L85.7143 40.5632L85.5833 40.4121ZM83.765 40.9727V41.1728L83.7718 41.1725L83.765 40.9727ZM79.0755 36.8164L79.2218 36.9529L79.226 36.9481L79.0755 36.8164ZM78.7884 37.3086L78.5986 37.2453L78.5968 37.2511L78.7884 37.3086ZM78.7884 38.4297L78.5958 38.4847L78.5996 38.4958L78.7884 38.4297ZM79.0755 38.9219L78.9249 39.0536L78.9293 39.0583L79.0755 38.9219ZM79.5267 39.1406L79.5162 39.3406H79.5267V39.1406ZM84.0658 39.1406V39.3409L84.0763 39.3403L84.0658 39.1406ZM84.5169 38.9219L84.6632 39.0584L84.6674 39.0536L84.5169 38.9219ZM84.7904 38.4297L84.6005 38.3664L84.5988 38.3722L84.7904 38.4297ZM84.7904 37.3086L84.5977 37.3636L84.6016 37.3747L84.7904 37.3086ZM84.5169 36.8164L84.3663 36.9482L84.3707 36.9529L84.5169 36.8164ZM79.8343 40.7728C79.0558 40.7462 78.5007 40.5654 78.1381 40.2593L77.8801 40.5649C78.3379 40.9515 78.995 41.1444 79.8207 41.1725L79.8343 40.7728ZM78.1401 40.261C77.7499 39.9228 77.4738 39.5508 77.3051 39.1457L76.9358 39.2996C77.1316 39.7695 77.448 40.1905 77.8781 40.5632L78.1401 40.261ZM77.3056 39.1471C77.1325 38.723 77.047 38.2975 77.047 37.8691H76.647C76.647 38.3523 76.7438 38.8291 76.9353 39.2982L77.3056 39.1471ZM77.047 37.8691C77.047 37.4202 77.1289 36.9895 77.2927 36.5756L76.9208 36.4283C76.7383 36.8895 76.647 37.3702 76.647 37.8691H77.047ZM77.2919 36.5775C77.4607 36.1641 77.7362 35.7932 78.1245 35.4653L77.8664 35.1597C77.4344 35.5245 77.1174 35.9466 76.9216 36.4264L77.2919 36.5775ZM78.1248 35.4651C78.5031 35.1443 78.9848 34.9742 79.5842 34.9656L79.5785 34.5656C78.902 34.5753 78.3263 34.7698 77.8661 35.1599L78.1248 35.4651ZM79.5814 34.9656H84.0111V34.5656H79.5814V34.9656ZM84.0082 34.9656C84.6078 34.9742 85.0839 35.1443 85.4523 35.4636L85.7143 35.1614C85.2625 34.7698 84.6904 34.5753 84.0139 34.5656L84.0082 34.9656ZM85.456 35.4667C85.8525 35.7942 86.1263 36.1637 86.2855 36.5743L86.6585 36.4296C86.4713 35.947 86.1527 35.5235 85.7107 35.1583L85.456 35.4667ZM86.2874 36.5789C86.4595 36.992 86.5454 37.4216 86.5454 37.8691H86.9454C86.9454 37.3688 86.8491 36.8869 86.6566 36.425L86.2874 36.5789ZM86.5454 37.8691C86.5454 38.2975 86.4599 38.723 86.2868 39.1471L86.6572 39.2982C86.8487 38.8291 86.9454 38.3523 86.9454 37.8691H86.5454ZM86.2874 39.1457C86.1186 39.5508 85.8425 39.9228 85.4523 40.261L85.7143 40.5632C86.1444 40.1905 86.4608 39.7695 86.6566 39.2996L86.2874 39.1457ZM85.4543 40.2593C85.0918 40.5654 84.5366 40.7462 83.7582 40.7728L83.7718 41.1725C84.5975 41.1444 85.2546 40.9515 85.7124 40.5649L85.4543 40.2593ZM83.765 40.7727H79.8275V41.1727H83.765V40.7727ZM79.5267 36.3977C79.2886 36.3977 79.0855 36.5012 78.925 36.6847L79.226 36.9481C79.3207 36.8399 79.4184 36.7977 79.5267 36.7977V36.3977ZM78.9293 36.6799C78.7806 36.8393 78.6708 37.0289 78.5987 37.2453L78.9781 37.3718C79.0336 37.2055 79.1152 37.067 79.2217 36.9529L78.9293 36.6799ZM78.5968 37.2511C78.5368 37.4512 78.5064 37.6529 78.5064 37.8555H78.9064C78.9064 37.6935 78.9306 37.5305 78.98 37.3661L78.5968 37.2511ZM78.5064 37.8555C78.5064 38.0662 78.5365 38.2761 78.5961 38.4846L78.9807 38.3747C78.9309 38.2005 78.9064 38.0276 78.9064 37.8555H78.5064ZM78.5996 38.4958C78.6719 38.7023 78.7806 38.8886 78.925 39.0536L79.226 38.7902C79.1152 38.6635 79.0325 38.5217 78.9772 38.3636L78.5996 38.4958ZM78.9293 39.0583C79.0892 39.2297 79.287 39.3283 79.5162 39.3403L79.5372 38.9409C79.42 38.9347 79.317 38.8875 79.2217 38.7854L78.9293 39.0583ZM79.5267 39.3406H84.0658V38.9406H79.5267V39.3406ZM84.0763 39.3403C84.3054 39.3283 84.5032 39.2297 84.6631 39.0583L84.3707 38.7854C84.2754 38.8875 84.1724 38.9347 84.0552 38.9409L84.0763 39.3403ZM84.6674 39.0536C84.8135 38.8866 84.9189 38.6974 84.9819 38.4872L84.5988 38.3722C84.5525 38.5266 84.4755 38.6655 84.3664 38.7902L84.6674 39.0536ZM84.9801 38.4929C85.0503 38.2822 85.0861 38.0695 85.0861 37.8555H84.6861C84.6861 38.0242 84.658 38.1943 84.6006 38.3664L84.9801 38.4929ZM85.0861 37.8555C85.0861 37.6494 85.0499 37.4448 84.9791 37.2425L84.6016 37.3747C84.6584 37.537 84.6861 37.697 84.6861 37.8555H85.0861ZM84.9827 37.2536C84.9199 37.0338 84.8137 36.8413 84.6631 36.6799L84.3707 36.9529C84.4753 37.065 84.5515 37.2006 84.5981 37.3635L84.9827 37.2536ZM84.6674 36.6847C84.5069 36.5012 84.3038 36.3977 84.0658 36.3977V36.7977C84.174 36.7977 84.2717 36.8399 84.3664 36.9481L84.6674 36.6847ZM84.0658 36.3977H79.5267V36.7977H84.0658V36.3977ZM97.9531 40.9727L97.9463 41.1727H97.9531V40.9727ZM96.1347 40.4121L96.0037 40.5633L96.0057 40.5649L96.1347 40.4121ZM95.2461 39.2227L95.0609 39.2982L95.0614 39.2996L95.2461 39.2227ZM95.2324 36.502L95.0472 36.4264L95.0464 36.4283L95.2324 36.502ZM96.1211 35.3125L96.2501 35.4653L96.2504 35.4651L96.1211 35.3125ZM97.707 34.7656V34.5656L97.7041 34.5656L97.707 34.7656ZM103.545 35.0391L103.4 35.177L103.407 35.1841L103.545 35.0391ZM103.545 36.3379L103.403 36.1965L103.545 36.3379ZM97.2011 36.8164L97.3474 36.9529L97.3517 36.9481L97.2011 36.8164ZM96.914 37.3086L96.7242 37.2453L96.7225 37.2511L96.914 37.3086ZM96.914 38.4297L96.7214 38.4847L96.7253 38.4958L96.914 38.4297ZM97.2011 38.9219L97.0505 39.0536L97.0549 39.0583L97.2011 38.9219ZM97.6523 39.1406L97.6418 39.3406H97.6523V39.1406ZM103.545 39.4141L103.4 39.552L103.407 39.5591L103.545 39.4141ZM103.545 40.6992L103.407 40.554L103.4 40.5615L103.545 40.6992ZM97.9599 40.7728C97.1814 40.7462 96.6263 40.5654 96.2638 40.2593L96.0057 40.5649C96.4635 40.9515 97.1206 41.1444 97.9463 41.1725L97.9599 40.7728ZM96.2657 40.261C95.8755 39.9228 95.5995 39.5508 95.4307 39.1457L95.0614 39.2996C95.2573 39.7695 95.5736 40.1905 96.0037 40.5632L96.2657 40.261ZM95.4312 39.1471C95.2582 38.723 95.1726 38.2975 95.1726 37.8691H94.7726C94.7726 38.3523 94.8694 38.8291 95.0609 39.2982L95.4312 39.1471ZM95.1726 37.8691C95.1726 37.4202 95.2545 36.9895 95.4184 36.5756L95.0464 36.4283C94.8639 36.8895 94.7726 37.3702 94.7726 37.8691H95.1726ZM95.4176 36.5775C95.5863 36.1641 95.8618 35.7932 96.2501 35.4653L95.992 35.1597C95.56 35.5245 95.243 35.9466 95.0472 36.4264L95.4176 36.5775ZM96.2504 35.4651C96.6287 35.1443 97.1104 34.9742 97.7099 34.9656L97.7041 34.5656C97.0276 34.5753 96.4519 34.7698 95.9917 35.1599L96.2504 35.4651ZM97.707 34.9656H102.902V34.5656H97.707V34.9656ZM102.902 34.9656C103.104 34.9656 103.265 35.0349 103.4 35.1768L103.69 34.9013C103.478 34.6786 103.211 34.5656 102.902 34.5656V34.9656ZM103.407 35.1841C103.549 35.3188 103.618 35.4803 103.618 35.6816H104.018C104.018 35.3725 103.905 35.1056 103.683 34.8941L103.407 35.1841ZM103.618 35.6816C103.618 35.8832 103.549 36.0513 103.403 36.1965L103.686 36.4793C103.906 36.2599 104.018 35.9905 104.018 35.6816H103.618ZM103.403 36.1965C103.27 36.3304 103.107 36.3977 102.902 36.3977V36.7977C103.208 36.7977 103.474 36.6917 103.686 36.4793L103.403 36.1965ZM102.902 36.3977H97.6523V36.7977H102.902V36.3977ZM97.6523 36.3977C97.4142 36.3977 97.2112 36.5012 97.0506 36.6847L97.3517 36.9481C97.4463 36.8399 97.5441 36.7977 97.6523 36.7977V36.3977ZM97.0549 36.6799C96.9062 36.8393 96.7965 37.0289 96.7243 37.2453L97.1038 37.3718C97.1592 37.2055 97.2409 37.067 97.3474 36.9529L97.0549 36.6799ZM96.7225 37.2511C96.6624 37.4512 96.632 37.6529 96.632 37.8555H97.032C97.032 37.6935 97.0563 37.5305 97.1056 37.3661L96.7225 37.2511ZM96.632 37.8555C96.632 38.0662 96.6621 38.2761 96.7217 38.4846L97.1063 38.3747C97.0565 38.2005 97.032 38.0276 97.032 37.8555H96.632ZM96.7253 38.4958C96.7975 38.7023 96.9062 38.8886 97.0506 39.0536L97.3517 38.7902C97.2408 38.6635 97.1581 38.5217 97.1028 38.3636L96.7253 38.4958ZM97.0549 39.0583C97.2148 39.2297 97.4126 39.3283 97.6418 39.3403L97.6628 38.9409C97.5457 38.9347 97.4427 38.8875 97.3474 38.7854L97.0549 39.0583ZM97.6523 39.3406H102.902V38.9406H97.6523V39.3406ZM102.902 39.3406C103.104 39.3406 103.265 39.4099 103.4 39.5518L103.69 39.2763C103.478 39.0536 103.211 38.9406 102.902 38.9406V39.3406ZM103.407 39.5591C103.549 39.6938 103.618 39.8553 103.618 40.0566H104.018C104.018 39.7475 103.905 39.4806 103.683 39.2691L103.407 39.5591ZM103.618 40.0566C103.618 40.258 103.549 40.4194 103.407 40.5542L103.683 40.8442C103.905 40.6326 104.018 40.3657 104.018 40.0566H103.618ZM103.4 40.5615C103.265 40.7033 103.104 40.7727 102.902 40.7727V41.1727C103.211 41.1727 103.478 41.0597 103.69 40.837L103.4 40.5615ZM102.902 40.7727H97.9531V41.1727H102.902V40.7727ZM113.057 34.6289L113.065 34.4289H113.057V34.6289ZM113.686 34.9023L113.545 35.0438L113.549 35.0475L113.686 34.9023ZM113.96 35.5176H114.16L114.159 35.5102L113.96 35.5176ZM113.96 40.248L114.159 40.2679L114.16 40.258V40.248H113.96ZM113.057 41.1367V41.3367H113.066L113.074 41.336L113.057 41.1367ZM112.387 40.8906L112.249 41.0358L112.257 41.0425L112.387 40.8906ZM112.114 35.5176L111.914 35.5104V35.5176H112.114ZM112.401 34.8887L112.535 35.0374L112.539 35.0337L112.401 34.8887ZM113.05 34.8288C113.246 34.836 113.407 34.9065 113.545 35.0438L113.828 34.7609C113.618 34.5518 113.361 34.44 113.065 34.429L113.05 34.8288ZM113.549 35.0475C113.682 35.1743 113.752 35.3293 113.76 35.525L114.159 35.5102C114.148 35.2137 114.036 34.9585 113.824 34.7572L113.549 35.0475ZM113.76 35.5176V40.248H114.16V35.5176H113.76ZM113.761 40.2281C113.736 40.4693 113.661 40.6313 113.553 40.7379C113.444 40.8444 113.282 40.9173 113.041 40.9374L113.074 41.336C113.38 41.3105 113.641 41.2126 113.833 41.0229C114.026 40.8332 114.128 40.5736 114.159 40.2679L113.761 40.2281ZM113.057 40.9367C112.849 40.9367 112.672 40.8713 112.517 40.7388L112.257 41.0425C112.485 41.238 112.755 41.3367 113.057 41.3367V40.9367ZM112.525 40.7456C112.383 40.6108 112.314 40.4494 112.314 40.248H111.914C111.914 40.5571 112.027 40.8241 112.25 41.0356L112.525 40.7456ZM112.314 40.248V35.5176H111.914V40.248H112.314ZM112.314 35.5247C112.321 35.3212 112.395 35.1635 112.535 35.0373L112.267 34.74C112.043 34.942 111.925 35.2036 111.914 35.5104L112.314 35.5247ZM112.539 35.0337C112.683 34.8964 112.852 34.8289 113.057 34.8289V34.4289C112.752 34.4289 112.483 34.5346 112.263 34.7437L112.539 35.0337ZM112.109 32.8516C112.109 32.663 112.186 32.4982 112.365 32.349L112.109 32.0417C111.85 32.257 111.709 32.5297 111.709 32.8516H112.109ZM112.365 32.349C112.545 32.1993 112.762 32.1219 113.03 32.1219V31.7219C112.678 31.7219 112.367 31.8267 112.109 32.0417L112.365 32.349ZM113.03 32.1219C113.297 32.1219 113.515 32.1993 113.695 32.349L113.951 32.0417C113.693 31.8267 113.382 31.7219 113.03 31.7219V32.1219ZM113.695 32.349C113.874 32.4982 113.951 32.663 113.951 32.8516H114.351C114.351 32.5297 114.209 32.257 113.951 32.0417L113.695 32.349ZM113.951 32.8516C113.951 33.0515 113.872 33.2202 113.695 33.3678L113.951 33.6751C114.211 33.4582 114.351 33.1803 114.351 32.8516H113.951ZM113.695 33.3678C113.515 33.5175 113.297 33.5949 113.03 33.5949V33.9949C113.382 33.9949 113.693 33.8901 113.951 33.6751L113.695 33.3678ZM113.03 33.5949C112.762 33.5949 112.545 33.5175 112.365 33.3678L112.109 33.6751C112.367 33.8901 112.678 33.9949 113.03 33.9949V33.5949ZM112.365 33.3678C112.188 33.2202 112.109 33.0515 112.109 32.8516H111.709C111.709 33.1803 111.849 33.4582 112.109 33.6751L112.365 33.3678ZM130.13 40.248H129.93V40.258L129.931 40.2679L130.13 40.248ZM129.775 36.5977L129.782 36.3977H129.775V36.5977ZM124.99 36.5977V36.3974L124.979 36.3979L124.99 36.5977ZM124.538 36.8301L124.685 36.9666L124.689 36.9618L124.538 36.8301ZM124.251 37.3223L124.061 37.259L124.06 37.2648L124.251 37.3223ZM124.251 38.4434L124.059 38.4984L124.062 38.5094L124.251 38.4434ZM124.538 38.9355L124.388 39.0673L124.392 39.072L124.538 38.9355ZM129.132 39.4141L128.987 39.552L128.994 39.5591L129.132 39.4141ZM129.132 40.6992L128.994 40.554L128.987 40.5615L129.132 40.6992ZM125.044 40.9727L125.041 41.1727H125.044V40.9727ZM123.458 40.4395L123.327 40.5906L123.331 40.5936L123.458 40.4395ZM122.57 39.25L122.383 39.3223L122.385 39.3269L122.57 39.25ZM122.583 36.5293L122.768 36.6062L122.768 36.6049L122.583 36.5293ZM123.472 35.3398L123.601 35.4927L123.603 35.491L123.472 35.3398ZM125.29 34.7656V34.5655L125.283 34.5657L125.29 34.7656ZM131.689 35.0254L131.551 35.1704L131.555 35.174L131.689 35.0254ZM131.976 35.6543H132.176L132.176 35.6472L131.976 35.6543ZM131.689 40.8906L131.823 41.0393L131.823 41.0389L131.689 40.8906ZM131.032 41.1367L131.016 41.336L131.024 41.3367H131.032V41.1367ZM130.33 40.248V36.9531H129.93V40.248H130.33ZM130.33 36.9531C130.33 36.8057 130.291 36.6606 130.183 36.5519C130.075 36.4446 129.93 36.4035 129.782 36.3978L129.767 36.7975C129.856 36.8009 129.889 36.8236 129.9 36.8348C129.91 36.8446 129.93 36.8727 129.93 36.9531H130.33ZM129.775 36.3977H124.99V36.7977H129.775V36.3977ZM124.979 36.3979C124.745 36.4102 124.546 36.5171 124.388 36.6984L124.689 36.9618C124.785 36.8514 124.887 36.8033 125 36.7974L124.979 36.3979ZM124.392 36.6936C124.243 36.8529 124.134 37.0425 124.061 37.259L124.441 37.3855C124.496 37.2192 124.578 37.0806 124.685 36.9665L124.392 36.6936ZM124.06 37.2648C123.999 37.4658 123.969 37.6721 123.969 37.8828H124.369C124.369 37.7108 124.394 37.5433 124.443 37.3797L124.06 37.2648ZM123.969 37.8828C123.969 38.0853 124 38.2907 124.059 38.4983L124.444 38.3884C124.393 38.2132 124.369 38.0449 124.369 37.8828H123.969ZM124.062 38.5094C124.135 38.7159 124.243 38.9022 124.388 39.0672L124.689 38.8038C124.578 38.6772 124.495 38.5354 124.44 38.3773L124.062 38.5094ZM124.392 39.072C124.554 39.2456 124.756 39.3406 124.99 39.3406V38.9406C124.877 38.9406 124.778 38.8989 124.685 38.7991L124.392 39.072ZM124.99 39.3406H128.49V38.9406H124.99V39.3406ZM128.49 39.3406C128.691 39.3406 128.852 39.4099 128.987 39.5518L129.277 39.2763C129.066 39.0536 128.799 38.9406 128.49 38.9406V39.3406ZM128.994 39.5591C129.136 39.6938 129.206 39.8553 129.206 40.0566H129.606C129.606 39.7475 129.493 39.4806 129.27 39.2691L128.994 39.5591ZM129.206 40.0566C129.206 40.258 129.136 40.4194 128.994 40.5542L129.27 40.8442C129.493 40.6326 129.606 40.3657 129.606 40.0566H129.206ZM128.987 40.5615C128.852 40.7033 128.691 40.7727 128.49 40.7727V41.1727C128.799 41.1727 129.066 41.0597 129.277 40.837L128.987 40.5615ZM128.49 40.7727H125.044V41.1727H128.49V40.7727ZM125.047 40.7727C124.446 40.7641 123.964 40.5978 123.586 40.2853L123.331 40.5936C123.791 40.9738 124.366 41.163 125.041 41.1726L125.047 40.7727ZM123.589 40.2883C123.199 39.9502 122.923 39.5781 122.754 39.1731L122.385 39.3269C122.581 39.7969 122.897 40.2178 123.327 40.5906L123.589 40.2883ZM122.756 39.1777C122.592 38.7539 122.51 38.3181 122.51 37.8691H122.11C122.11 38.3681 122.201 38.8529 122.383 39.3223L122.756 39.1777ZM122.51 37.8691C122.51 37.4409 122.595 37.0203 122.768 36.6062L122.399 36.4524C122.207 36.9133 122.11 37.386 122.11 37.8691H122.51ZM122.768 36.6049C122.937 36.1914 123.213 35.8206 123.601 35.4926L123.343 35.187C122.911 35.5518 122.594 35.974 122.398 36.4537L122.768 36.6049ZM123.603 35.491C123.965 35.1769 124.52 34.992 125.297 34.9655L125.283 34.5657C124.457 34.5939 123.799 34.7918 123.341 35.1887L123.603 35.491ZM125.29 34.9656H131.032V34.5656H125.29V34.9656ZM131.032 34.9656C131.237 34.9656 131.406 35.0331 131.551 35.1704L131.826 34.8804C131.606 34.6713 131.338 34.5656 131.032 34.5656V34.9656ZM131.555 35.174C131.695 35.3002 131.769 35.4579 131.776 35.6614L132.176 35.6472C132.165 35.3403 132.047 35.0787 131.823 34.8767L131.555 35.174ZM131.776 35.6543V40.248H132.176V35.6543H131.776ZM131.776 40.248C131.776 40.446 131.705 40.6066 131.555 40.7423L131.823 41.0389C132.056 40.8283 132.176 40.5605 132.176 40.248H131.776ZM131.555 40.742C131.411 40.8715 131.24 40.9367 131.032 40.9367V41.3367C131.335 41.3367 131.602 41.2378 131.823 41.0393L131.555 40.742ZM131.049 40.9374C130.808 40.9173 130.645 40.8444 130.537 40.7379C130.429 40.6313 130.353 40.4693 130.329 40.2281L129.931 40.2679C129.962 40.5736 130.064 40.8332 130.256 41.0229C130.449 41.2126 130.71 41.3105 131.016 41.336L131.049 40.9374ZM141.543 32.6875L141.55 32.4875H141.543V32.6875ZM142.172 32.9609L142.03 33.1024L142.034 33.1061L142.172 32.9609ZM142.445 33.5762H142.645L142.645 33.5688L142.445 33.5762ZM142.445 40.2754L142.644 40.2953L142.645 40.2854V40.2754H142.445ZM141.543 41.1641V41.3641H141.551L141.559 41.3634L141.543 41.1641ZM140.873 40.918L140.735 41.0632L140.743 41.0698L140.873 40.918ZM140.6 33.5762L140.4 33.569V33.5762H140.6ZM140.887 32.9473L141.02 33.096L141.024 33.0923L140.887 32.9473ZM141.535 32.8874C141.731 32.8946 141.893 32.9651 142.03 33.1024L142.313 32.8195C142.104 32.6104 141.846 32.4986 141.55 32.4876L141.535 32.8874ZM142.034 33.1061C142.168 33.2329 142.238 33.3879 142.245 33.5836L142.645 33.5688C142.634 33.2722 142.522 33.0171 142.309 32.8157L142.034 33.1061ZM142.245 33.5762V40.2754H142.645V33.5762H142.245ZM142.246 40.2555C142.222 40.4967 142.146 40.6587 142.038 40.7652C141.93 40.8717 141.767 40.9447 141.526 40.9648L141.559 41.3634C141.865 41.3379 142.126 41.2399 142.319 41.0502C142.512 40.8605 142.614 40.601 142.644 40.2953L142.246 40.2555ZM141.543 40.9641C141.335 40.9641 141.158 40.8987 141.003 40.7661L140.743 41.0698C140.971 41.2654 141.241 41.3641 141.543 41.3641V40.9641ZM141.011 40.773C140.869 40.6382 140.799 40.4767 140.799 40.2754H140.4C140.4 40.5845 140.512 40.8514 140.735 41.063L141.011 40.773ZM140.799 40.2754V33.5762H140.4V40.2754H140.799ZM140.799 33.5833C140.807 33.3798 140.88 33.2221 141.02 33.0959L140.753 32.7986C140.528 33.0006 140.411 33.2622 140.4 33.569L140.799 33.5833ZM141.024 33.0923C141.169 32.955 141.338 32.8875 141.543 32.8875V32.4875C141.237 32.4875 140.969 32.5932 140.749 32.8023L141.024 33.0923Z" fill="white" mask="url(#path-4-outside-1_25_95)"/>
</svg>
