<svg width="24" height="24" viewBox="0 0 24 24" fill="none" xmlns="http://www.w3.org/2000/svg">
<mask id="mask0_25_193" style="mask-type:alpha" maskUnits="userSpaceOnUse" x="0" y="0" width="24" height="24">
<rect width="24" height="24" fill="#D9D9D9"/>
</mask>
<g mask="url(#mask0_25_193)">
<path d="M12.5944 15C13.2648 15 13.8334 14.768 14.3 14.304C14.7667 13.84 15 13.272 15 12.6V7.79999H16.8C17.14 7.79999 17.425 7.68499 17.655 7.45499C17.885 7.22499 18 6.93999 18 6.59999C18 6.25999 17.885 5.97499 17.655 5.74499C17.425 5.51499 17.14 5.39999 16.8 5.39999H15C14.66 5.39999 14.375 5.51499 14.145 5.74499C13.915 5.97499 13.8 6.25999 13.8 6.59999V10.525C13.6167 10.425 13.4292 10.3458 13.2375 10.2875C13.0459 10.2292 12.8334 10.2 12.6 10.2C11.928 10.2 11.36 10.4315 10.896 10.8944C10.432 11.3573 10.2 11.9239 10.2 12.5944C10.2 13.2648 10.4315 13.8333 10.8944 14.3C11.3573 14.7667 11.924 15 12.5944 15ZM7.80002 18C7.30502 18 6.88127 17.8237 6.52877 17.4712C6.17627 17.1187 6.00002 16.695 6.00002 16.2V4.19999C6.00002 3.70499 6.17627 3.28124 6.52877 2.92874C6.88127 2.57624 7.30502 2.39999 7.80002 2.39999H19.8C20.295 2.39999 20.7188 2.57624 21.0713 2.92874C21.4238 3.28124 21.6 3.70499 21.6 4.19999V16.2C21.6 16.695 21.4238 17.1187 21.0713 17.4712C20.7188 17.8237 20.295 18 19.8 18H7.80002ZM4.20002 21.6C3.70502 21.6 3.28127 21.4237 2.92877 21.0712C2.57627 20.7187 2.40002 20.295 2.40002 19.8V6.89999C2.40002 6.64499 2.48577 6.43124 2.65725 6.25874C2.82875 6.08624 3.04125 5.99999 3.29475 5.99999C3.54827 5.99999 3.76252 6.08624 3.93752 6.25874C4.11252 6.43124 4.20002 6.64499 4.20002 6.89999V19.8H17.1C17.355 19.8 17.5688 19.8857 17.7413 20.0572C17.9138 20.2287 18 20.4412 18 20.6947C18 20.9482 17.9138 21.1625 17.7413 21.3375C17.5688 21.5125 17.355 21.6 17.1 21.6H4.20002Z" fill="#00A1D4"/>
</g>
</svg>
