<svg width="20" height="20" viewBox="0 0 20 20" fill="none" xmlns="http://www.w3.org/2000/svg">
<g clip-path="url(#clip0_25_109)">
<path d="M7.9175 13.835C6.26363 13.835 4.86392 13.2622 3.71835 12.1166C2.57278 10.9711 2 9.57136 2 7.9175C2 6.26363 2.57278 4.86392 3.71835 3.71835C4.86392 2.57278 6.26363 2 7.9175 2C9.57136 2 10.9711 2.57278 12.1166 3.71835C13.2622 4.86392 13.835 6.26363 13.835 7.9175C13.835 8.58511 13.7288 9.21479 13.5164 9.80654C13.3039 10.3983 13.0156 10.9218 12.6515 11.377L17.7496 16.4751C17.9165 16.642 18 16.8544 18 17.1124C18 17.3703 17.9165 17.5827 17.7496 17.7496C17.5827 17.9165 17.3703 18 17.1124 18C16.8544 18 16.642 17.9165 16.4751 17.7496L11.377 12.6515C10.9218 13.0156 10.3983 13.3039 9.80654 13.5164C9.21479 13.7288 8.58511 13.835 7.9175 13.835ZM7.9175 12.0142C9.05548 12.0142 10.0228 11.6159 10.8193 10.8193C11.6159 10.0228 12.0142 9.05548 12.0142 7.9175C12.0142 6.77952 11.6159 5.81223 10.8193 5.01565C10.0228 4.21906 9.05548 3.82077 7.9175 3.82077C6.77952 3.82077 5.81223 4.21906 5.01565 5.01565C4.21906 5.81223 3.82077 6.77952 3.82077 7.9175C3.82077 9.05548 4.21906 10.0228 5.01565 10.8193C5.81223 11.6159 6.77952 12.0142 7.9175 12.0142Z" fill="#1C1B1F"/>
</g>
<defs>
<clipPath id="clip0_25_109">
<rect width="20" height="20" fill="white"/>
</clipPath>
</defs>
</svg>
