<svg xmlns="http://www.w3.org/2000/svg" width="24" height="24" viewBox="0 0 24 24" fill="none">
  <path d="M12 22.2759C7.18966 22.2759 2 19.2586 2 12.6379C2 6.01724 7.18966 3 12 3C14.6724 3 17.1379 3.87931 18.9655 5.48276C20.9483 7.24138 22 9.72414 22 12.6379C22 15.5517 20.9483 18.0172 18.9655 19.7759C17.1379 21.3793 14.6552 22.2759 12 22.2759Z" fill="url(#paint0_radial_273_1096)"/>
  <path d="M20.2569 6.90862C21.1759 8.39137 21.6552 10.1569 21.6552 12.1207C21.6552 15.0345 20.6035 17.5 18.6207 19.2586C16.7931 20.8621 14.3103 21.7586 11.6552 21.7586C8.54138 21.7586 5.27586 20.4914 3.34828 17.8034C5.20345 20.8483 8.6931 22.2759 12 22.2759C14.6552 22.2759 17.1379 21.3793 18.9655 19.7759C20.9483 18.0172 22 15.5517 22 12.6379C22 10.4414 21.4017 8.48965 20.2569 6.90862Z" fill="#D84213"/>
  <path d="M15.5069 19.5759C15.4483 19.5535 15.3948 19.5172 15.3535 19.469C13.6759 17.7259 10.9017 17.6724 9.15862 19.35C9.11897 19.3897 9.07759 19.4293 9.03966 19.469C8.99828 19.5172 8.94483 19.5535 8.88621 19.5759C8.7569 19.6241 8.61035 19.5966 8.5069 19.5052C8.40517 19.4155 8.37069 19.2724 8.42242 19.1466C8.93621 17.8276 10.4638 16.7931 12.1966 16.7931C13.9293 16.7931 15.4569 17.8276 15.9707 19.1448C16.0224 19.2707 15.9879 19.4138 15.8862 19.5035C15.7828 19.5948 15.6362 19.6224 15.5069 19.5759Z" fill="#422B0D"/>
  <path d="M11.0586 13.6586C10.6724 13.1724 9.08104 12.2379 8.5069 11.9655C8.2931 11.8672 8.07069 11.7879 7.8431 11.7293C7.80173 11.7172 7.7569 11.7121 7.71379 11.7121C7.48448 11.7172 7.28793 11.881 7.24138 12.1069C7.18793 12.3414 7.30862 12.5828 7.52931 12.6793C7.8 12.8121 8.27241 13.0638 8.76207 13.3414C8.35345 13.5845 8.10345 14.0259 8.10345 14.5017V14.7534C8.10345 15.4672 8.68276 16.0465 9.39655 16.0465C10.1103 16.0465 10.6897 15.4672 10.6897 14.7534V14.5017C10.6897 14.4914 10.6897 14.4828 10.6897 14.4724C10.8741 14.4603 11.0397 14.35 11.1207 14.1845C11.2052 14.0121 11.181 13.8069 11.0586 13.6586Z" fill="#422B0D"/>
  <path d="M17.1586 12.1069C17.1103 11.8793 16.9103 11.7172 16.6776 11.7155C16.6345 11.7155 16.5897 11.7207 16.5483 11.7328C16.3207 11.7897 16.0983 11.869 15.8845 11.9655C15.3103 12.2345 13.719 13.1724 13.3328 13.6552C13.2103 13.8052 13.1897 14.0121 13.2759 14.1845C13.3586 14.3517 13.5224 14.4603 13.7086 14.4724V14.5017V14.7534C13.7086 15.4672 14.2879 16.0465 15.0017 16.0465C15.7155 16.0465 16.2948 15.4672 16.2948 14.7534V14.5017C16.2948 14.0276 16.0448 13.5879 15.6379 13.3448C16.1276 13.0672 16.6 12.8155 16.8707 12.6828C17.0931 12.5862 17.2155 12.3431 17.1586 12.1069Z" fill="#422B0D"/>
  <path d="M9.33103 13.5948C9.08621 13.4776 8.79138 13.581 8.67241 13.8259C8.58103 14.0172 8.62241 14.2466 8.77586 14.3948C9.02069 14.5121 9.31552 14.4086 9.43448 14.1638C9.52586 13.9724 9.48448 13.7431 9.33103 13.5948Z" fill="#896024"/>
  <path d="M14.9362 13.5948C14.6914 13.4776 14.3966 13.581 14.2776 13.8259C14.1862 14.0172 14.2276 14.2466 14.381 14.3948C14.6259 14.5121 14.9207 14.4086 15.0397 14.1638C15.131 13.9724 15.0897 13.7431 14.9362 13.5948Z" fill="#896024"/>
  <defs>
    <radialGradient id="paint0_radial_273_1096" cx="0" cy="0" r="1" gradientUnits="userSpaceOnUse" gradientTransform="translate(12 12.6379) scale(9.82064)">
      <stop offset="0.12" stop-color="#FAC742"/>
      <stop offset="0.32" stop-color="#FAC440"/>
      <stop offset="0.48" stop-color="#FBBA3B"/>
      <stop offset="0.62" stop-color="#FBA931"/>
      <stop offset="0.76" stop-color="#FC9224"/>
      <stop offset="0.88" stop-color="#FE7413"/>
      <stop offset="1" stop-color="#FF5100"/>
    </radialGradient>
  </defs>
</svg>