<svg xmlns="http://www.w3.org/2000/svg" width="24" height="24" viewBox="0 0 24 24" fill="none">
  <path d="M12 22.2759C7.18966 22.2759 2 19.2586 2 12.6379C2 6.01724 7.18966 3 12 3C14.6724 3 17.1379 3.87931 18.9655 5.48276C20.9483 7.24138 22 9.72414 22 12.6379C22 15.5517 20.9483 18.0172 18.9655 19.7759C17.1379 21.3793 14.6552 22.2759 12 22.2759Z" fill="url(#paint0_radial_273_1113)"/>
  <path d="M20.2569 6.90863C21.1759 8.39139 21.6552 10.1569 21.6552 12.1207C21.6552 15.0345 20.6035 17.5 18.6207 19.2586C16.7931 20.8621 14.3103 21.7586 11.6552 21.7586C8.54138 21.7586 5.27586 20.4914 3.34828 17.8035C5.20345 20.8483 8.6931 22.2759 12 22.2759C14.6552 22.2759 17.1379 21.3793 18.9655 19.7759C20.9483 18.0173 22 15.5517 22 12.6379C22 10.4414 21.4017 8.48966 20.2569 6.90863Z" fill="#EB8F00"/>
  <path d="M14.4138 17.7241C14.4138 18.9431 13.4259 19.931 12.2069 19.931C10.9879 19.931 10 18.9431 10 17.7241C10 16.5052 10.9879 15.5173 12.2069 15.5173C13.4224 15.5138 14.4103 16.4948 14.4138 17.7104V17.7241Z" fill="#422B0D"/>
  <path d="M8.39138 9.8862C7.66896 9.8862 7.01207 10.4965 7.01207 11.5103C7.01207 12.5241 7.66896 13.1328 8.39138 13.1328C9.11379 13.1328 9.77069 12.5224 9.77069 11.5103C9.77069 10.4983 9.11379 9.8862 8.39138 9.8862Z" fill="#422B0D"/>
  <path d="M8.32414 10.5638C8.07931 10.4465 7.78448 10.55 7.66552 10.7948C7.57414 10.9862 7.61552 11.2155 7.76897 11.3638C8.01379 11.481 8.30862 11.3776 8.42759 11.1328C8.51897 10.9414 8.47759 10.7121 8.32414 10.5638Z" fill="#896024"/>
  <path d="M15.8621 9.8862C15.1397 9.8862 14.4828 10.4965 14.4828 11.5103C14.4828 12.5241 15.1397 13.1328 15.8621 13.1328C16.5845 13.1328 17.2414 12.5224 17.2414 11.5103C17.2414 10.4983 16.5879 9.8862 15.8621 9.8862Z" fill="#422B0D"/>
  <path d="M15.7983 10.5638C15.5535 10.4465 15.2586 10.55 15.1397 10.7948C15.0483 10.9862 15.0897 11.2155 15.2431 11.3638C15.4879 11.481 15.7828 11.3776 15.9017 11.1328C15.9931 10.9414 15.9517 10.7121 15.7983 10.5638Z" fill="#896024"/>
  <path d="M5.98276 8.34483C5.86207 8.4707 5.66035 8.47587 5.53448 8.35345C5.42069 8.24483 5.40517 8.06725 5.49655 7.93966C5.69138 7.65863 5.93104 7.4138 6.2069 7.21207C6.92931 6.65518 7.83448 6.39138 8.7431 6.47414C9.17242 6.52759 9.08793 7.07587 8.7069 7.11207C7.68276 7.19311 6.71897 7.62932 5.98276 8.34483Z" fill="#422B0D"/>
  <path d="M18.2362 8.38448C18.3569 8.51034 18.5586 8.51552 18.6845 8.3931C18.7983 8.28448 18.8138 8.1069 18.7224 7.97931C18.531 7.70172 18.2931 7.45862 18.0207 7.26034C17.2983 6.70345 16.3931 6.43965 15.4845 6.52414C15.0569 6.57759 15.1397 7.12414 15.5207 7.16034C16.5414 7.24138 17.5 7.67414 18.2362 8.38448Z" fill="#422B0D"/>
  <defs>
    <radialGradient id="paint0_radial_273_1113" cx="0" cy="0" r="1" gradientUnits="userSpaceOnUse" gradientTransform="translate(12 12.6379) scale(9.82064)">
      <stop offset="0.5" stop-color="#FDE030"/>
      <stop offset="0.92" stop-color="#F7C02B"/>
      <stop offset="1" stop-color="#F4A223"/>
    </radialGradient>
  </defs>
</svg>