<svg xmlns="http://www.w3.org/2000/svg" width="24" height="24" viewBox="0 0 24 24" fill="none">
  <path d="M11.974 21.7471C11.5535 21.7471 11.1581 21.6264 10.7997 21.3902C10.6522 21.2931 10.6522 20.6163 10.6539 20.0735C10.6556 19.2326 10.6573 18.1856 10.3189 17.2274C9.97882 16.2642 9.30875 15.3244 8.52979 14.7146C6.87136 13.418 4.67184 12.7011 4.57803 12.6709C4.56631 12.6676 4.5529 12.6642 4.5395 12.6625C3.7907 12.5453 3.24794 11.9087 3.25129 11.1515L3.26469 5.6653C3.26636 4.84614 3.83928 4.14089 4.65677 3.94656C4.7623 3.92144 4.88962 3.90636 5.02363 3.88961C5.33689 3.85108 5.69203 3.80585 6.01869 3.62158C7.17121 2.96826 8.68893 2.74881 10.1581 2.60977C12.2922 2.40875 14.4616 2.35179 15.9073 2.34007C16.4098 2.34007 16.8672 2.52936 17.2106 2.87445C17.554 3.21786 17.7433 3.67686 17.7433 4.16266L17.7349 11.2336C17.7332 12.6006 16.6192 13.7112 15.254 13.7112H15.2322C15.2322 13.7112 14.0194 13.6693 14.0177 13.6693C13.9138 13.6693 13.82 13.7347 13.7832 13.8318C13.5336 14.4935 13.81 15.4668 14.1282 16.5942C14.398 17.5474 14.676 18.5324 14.6409 19.3649C14.5872 20.5677 13.2672 21.7471 11.974 21.7471Z" fill="url(#paint0_radial_273_1095)"/>
  <path d="M15.9207 2.58966C16.3412 2.58966 16.7348 2.75383 17.0313 3.05033C17.3278 3.34684 17.4903 3.74051 17.4903 4.16098L17.482 11.2319C17.4803 12.4598 16.4802 13.4599 15.2523 13.4599H15.2422L14.0361 13.418H14.0177C13.81 13.418 13.6207 13.547 13.547 13.743C13.2689 14.4818 13.5537 15.4919 13.8853 16.6612C14.15 17.5943 14.4231 18.5608 14.3879 19.3532C14.341 20.4153 13.1231 21.4958 11.974 21.4958C11.6172 21.4958 11.2804 21.3969 10.9739 21.2026C10.9035 21.0351 10.9052 20.4823 10.9052 20.0735C10.9069 19.2142 10.9085 18.1437 10.5551 17.142C10.1999 16.1352 9.49972 15.1518 8.68391 14.5153C6.9903 13.1919 4.7489 12.4598 4.65509 12.4297C4.62997 12.4213 4.60484 12.4163 4.57971 12.4113C3.95487 12.3124 3.50089 11.7814 3.50424 11.1482L3.51764 5.66194C3.51932 4.96004 4.01182 4.35363 4.7154 4.18778C4.80921 4.16601 4.92815 4.15093 5.05546 4.13418C5.37542 4.09397 5.77411 4.04372 6.14265 3.836C7.25498 3.20613 8.74086 2.99338 10.1815 2.85601C12.3056 2.65499 14.4683 2.59971 15.909 2.58798L15.9207 2.58966ZM15.9207 2.0871H15.9039C14.3896 2.09883 12.2437 2.15914 10.1329 2.35848C8.4276 2.5193 7.0037 2.77225 5.89305 3.40045C5.47761 3.63665 4.97003 3.61152 4.59814 3.70031C3.67846 3.91808 3.01677 4.71714 3.01341 5.66194L3.00001 11.1498C2.99666 12.026 3.63491 12.7748 4.50098 12.9105C4.50098 12.9105 6.73232 13.6291 8.374 14.914C8.99047 15.3948 9.70577 16.2491 10.081 17.3128C10.7075 19.0852 10.1195 21.2428 10.6606 21.6013C11.0811 21.8794 11.53 22 11.974 22C13.4381 22 14.8335 20.6833 14.8905 19.3767C14.9709 17.5356 13.5989 15.0329 14.0177 13.9206L15.2305 13.9625H15.2506C16.7566 13.9625 17.9812 12.7413 17.9828 11.2336L17.9912 4.16266C17.9946 3.01516 17.0648 2.0871 15.9207 2.0871Z" fill="#EDA600"/>
  <path d="M12.6558 12.2504C12.9707 11.4128 12.9741 10.1062 12.6558 9.29876C12.1951 8.13284 11.0677 7.11265 9.76608 6.93341C9.44779 6.88985 9.63709 6.59669 9.9537 6.64025C11.3625 6.83457 13.2689 7.40581 13.7647 8.67057C15.125 12.1466 13.5336 13.9675 12.8233 13.4247C12.4815 13.1601 12.4782 12.7245 12.6558 12.2504Z" fill="#EDA600"/>
  <path d="M17.5992 14.4617C15.4014 14.4617 13.8401 14.0915 13.2069 13.418C12.964 13.1617 12.8568 12.8635 12.8786 12.5084C12.9506 11.2671 14.6358 11.0074 16.0346 11.0074C17.5992 11.0074 19.1504 11.3291 19.1655 11.3324C19.1772 11.3358 19.1906 11.3375 19.2024 11.3375C19.9378 11.381 20.4956 12.1047 20.4454 12.9507C20.3968 13.7698 19.8021 14.4114 19.0901 14.4114C19.0667 14.4114 19.0449 14.4114 19.0215 14.4097H19.0064C18.9997 14.4097 18.9913 14.4097 18.9846 14.4114C18.9779 14.4097 18.3966 14.4617 17.5992 14.4617Z" fill="url(#paint1_radial_273_1095)"/>
  <path d="M16.0329 11.2587C17.5674 11.2587 19.0968 11.5753 19.1119 11.5787C19.1354 11.5837 19.1605 11.5871 19.1856 11.5887C19.4637 11.6055 19.72 11.7462 19.9093 11.9874C20.112 12.2454 20.2125 12.5838 20.1924 12.9373C20.1522 13.6224 19.6681 14.1602 19.0885 14.1602C19.07 14.1602 19.0516 14.1601 19.0349 14.1585C19.0248 14.1585 19.0148 14.1568 19.0064 14.1568C18.9913 14.1568 18.9762 14.1568 18.9611 14.1585C18.9561 14.1585 18.3832 14.2087 17.5992 14.2087C15.5019 14.2087 13.9674 13.8569 13.3895 13.2438C13.1952 13.0378 13.1114 12.8066 13.1282 12.5201C13.1449 12.2454 13.2454 11.8467 13.9339 11.5653C14.4365 11.3626 15.1417 11.2587 16.0329 11.2587ZM16.0329 10.7562C14.3896 10.7562 12.7077 11.1013 12.6256 12.4933C12.5134 14.4232 15.6862 14.713 17.5992 14.713C18.4184 14.713 19.0064 14.6594 19.0064 14.6594C19.0349 14.661 19.0617 14.661 19.0901 14.661C19.9294 14.661 20.6397 13.9206 20.695 12.9641C20.7519 11.9774 20.0902 11.1364 19.2158 11.0845C19.2158 11.0862 17.6428 10.7562 16.0329 10.7562Z" fill="#EDA600"/>
  <path d="M17.0833 11.3593C15.2556 11.3593 13.0779 11.0527 13.0779 9.58858C13.0779 8.12615 15.2556 7.81792 17.0833 7.81792C18.6345 7.81792 20.045 8.04407 20.0584 8.04574C20.0718 8.04742 20.0852 8.04909 20.0986 8.04909C20.8038 8.04909 21.3516 8.90679 21.3516 9.64554C21.3516 10.3458 20.8374 11.1264 20.0986 11.1264C20.0852 11.1264 20.0718 11.1281 20.0584 11.1298C20.0433 11.1331 18.6328 11.3593 17.0833 11.3593Z" fill="url(#paint2_radial_273_1095)"/>
  <path d="M17.0833 8.07085C18.611 8.07085 20.0048 8.29365 20.0182 8.29533C20.045 8.30035 20.0718 8.30203 20.0986 8.30203C20.638 8.30203 21.1004 9.04078 21.1004 9.6472C21.1004 10.2285 20.6715 10.8768 20.0986 10.8768C20.0718 10.8768 20.045 10.8785 20.0182 10.8835C20.0048 10.8852 18.6144 11.108 17.0833 11.108C15.9391 11.108 15.0295 10.9873 14.3778 10.7478C13.4381 10.4027 13.3292 9.92025 13.3292 9.58857C13.3292 9.25521 13.4381 8.77443 14.3778 8.42934C15.0278 8.19147 15.9391 8.07085 17.0833 8.07085ZM17.0833 7.5683C15.0848 7.5683 12.8266 7.93516 12.8266 9.59024C12.8266 11.2453 15.0831 11.6122 17.0833 11.6122C18.673 11.6122 20.0986 11.381 20.0986 11.381C20.963 11.381 21.6029 10.5049 21.6029 9.64887C21.6029 8.79286 20.963 7.80115 20.0986 7.80115C20.0986 7.79947 18.6713 7.5683 17.0833 7.5683Z" fill="#EDA600"/>
  <path d="M16.966 5.39727C14.3427 5.39727 12.8384 4.89304 12.835 4.01357C12.835 3.7824 12.9255 3.57802 13.1148 3.38873C14.1953 2.30488 17.7701 2.2496 18.4753 2.2496C18.5792 2.2496 18.6395 2.25128 18.6395 2.25128C19.462 2.25128 20.1237 2.93978 20.1271 3.78407C20.1288 4.19617 19.9746 4.58481 19.6949 4.87629C19.4168 5.1661 19.0483 5.32524 18.6563 5.32691C18.6496 5.32691 18.6412 5.32691 18.6345 5.32859C18.6261 5.33026 17.8991 5.39727 16.966 5.39727Z" fill="url(#paint3_radial_273_1095)"/>
  <path d="M18.4753 2.50255C18.5759 2.50255 18.6328 2.50423 18.6345 2.50423H18.6496C19.323 2.50423 19.8724 3.08049 19.8741 3.78742C19.8758 4.13418 19.7468 4.46084 19.5123 4.70542C19.2828 4.94497 18.9779 5.07731 18.6546 5.07899C18.6395 5.07899 18.6244 5.07899 18.6094 5.08066C18.6027 5.08066 17.889 5.14767 16.9677 5.14767C14.5772 5.14767 13.0896 4.7138 13.088 4.01524C13.088 3.91306 13.1081 3.75559 13.294 3.56965C13.7832 3.07547 15.4332 2.50255 18.4753 2.50255ZM18.4753 2C17.4937 2 12.5787 2.09549 12.5854 4.01524C12.5904 5.40732 15.1736 5.64855 16.9677 5.64855C17.9242 5.64855 18.6563 5.57986 18.6563 5.57986C19.6094 5.57651 20.38 4.77243 20.3767 3.78407C20.3733 2.79739 19.6011 2 18.6496 2H18.6445H18.4753Z" fill="#EDA600"/>
  <path d="M16.8722 8.18979C15.3679 8.18979 12.8417 7.99045 12.8417 6.66203C12.8417 5.07898 16.3428 4.90811 17.8488 4.90811C18.725 4.90811 19.3682 4.96004 19.3749 4.96004H19.395C20.1874 4.96004 20.9077 5.79763 20.9077 6.71898C20.9077 7.69226 20.0919 8.03735 19.395 8.03735C19.385 8.03735 19.3732 8.03735 19.3632 8.03903C19.3515 8.04405 18.2006 8.18979 16.8722 8.18979Z" fill="url(#paint4_radial_273_1095)"/>
  <path d="M17.8488 5.16106C18.7115 5.16106 19.3481 5.21299 19.3548 5.21299C19.3682 5.21467 19.3816 5.21467 19.3967 5.21467C20.045 5.21467 20.6581 5.94672 20.6581 6.72233C20.6581 7.50967 20.0065 7.78942 19.3967 7.78942C19.3749 7.78942 19.3531 7.7911 19.3314 7.79277C19.3196 7.79445 18.1839 7.94019 16.8722 7.94019C15.7314 7.94019 14.8167 7.83465 14.1567 7.62693C13.0947 7.2919 13.0947 6.81949 13.0947 6.6637C13.0947 6.15445 13.6006 5.76245 14.5973 5.4961C15.6292 5.21802 16.9358 5.16106 17.8488 5.16106ZM17.8488 4.65851C15.8403 4.65851 12.5904 4.92654 12.5904 6.6637C12.5904 8.13786 14.9357 8.44275 16.8722 8.44275C18.2341 8.44275 19.395 8.29198 19.395 8.29198C20.3398 8.29198 21.159 7.75592 21.159 6.72233C21.159 5.68875 20.3398 4.71211 19.395 4.71211C19.395 4.71211 18.745 4.65851 17.8488 4.65851Z" fill="#EDA600"/>
  <path d="M6.23479 3.47249L5.43238 6.63858L5.09734 3.79077L6.23479 3.47249Z" fill="#EDA600"/>
  <defs>
    <radialGradient id="paint0_radial_273_1095" cx="0" cy="0" r="1" gradientUnits="userSpaceOnUse" gradientTransform="translate(10.2517 17.4609) rotate(-90.125) scale(14.5807 11.4793)">
      <stop offset="0.6" stop-color="#FFCA28"/>
      <stop offset="1" stop-color="#FFB300"/>
    </radialGradient>
    <radialGradient id="paint1_radial_273_1095" cx="0" cy="0" r="1" gradientUnits="userSpaceOnUse" gradientTransform="translate(18.8305 12.8807) rotate(-176.727) scale(4.73602 2.31741)">
      <stop offset="0.5993" stop-color="#FFCA28"/>
      <stop offset="1" stop-color="#FFB300"/>
    </radialGradient>
    <radialGradient id="paint2_radial_273_1095" cx="0" cy="0" r="1" gradientUnits="userSpaceOnUse" gradientTransform="translate(19.5783 9.63426) rotate(179.936) scale(5.33013 2.13746)">
      <stop offset="0.5993" stop-color="#FFCA28"/>
      <stop offset="1" stop-color="#FFB300"/>
    </radialGradient>
    <radialGradient id="paint3_radial_273_1095" cx="0" cy="0" r="1" gradientUnits="userSpaceOnUse" gradientTransform="translate(18.5476 3.85852) rotate(179.726) scale(4.47628 2.33047)">
      <stop offset="0.5993" stop-color="#FFCA28"/>
      <stop offset="1" stop-color="#FFB300"/>
    </radialGradient>
    <radialGradient id="paint4_radial_273_1095" cx="0" cy="0" r="1" gradientUnits="userSpaceOnUse" gradientTransform="translate(19.1728 6.59211) rotate(179.934) scale(5.09991 2.12128)">
      <stop offset="0.5993" stop-color="#FFCA28"/>
      <stop offset="1" stop-color="#FFB300"/>
    </radialGradient>
  </defs>
</svg>