<svg xmlns="http://www.w3.org/2000/svg" width="24" height="24" viewBox="0 0 24 24" fill="none">
  <path d="M16.9916 3C13.34 3 11.9983 6.73166 11.9983 6.73166C11.9983 6.73166 10.675 3 6.99833 3C4.235 3 1.08501 5.19 2.24834 10.1683C3.41167 15.1466 12.0083 21.3483 12.0083 21.3483C12.0083 21.3483 20.5733 15.1466 21.7383 10.1683C22.9016 5.19 19.9783 3 16.9916 3Z" fill="#F44336"/>
  <path d="M6.435 3.37167C9.30166 3.37167 10.725 6.45333 11.185 7.70166C11.25 7.87999 11.4983 7.88499 11.5733 7.71166L11.9933 6.72999C11.4017 4.84 9.77499 3 6.99833 3C5.84833 3 4.63333 3.38 3.68834 4.18166C4.52333 3.63333 5.50167 3.37167 6.435 3.37167Z" fill="#CC3333"/>
  <path d="M16.9916 3C16.11 3 15.3067 3.19167 14.68 3.57833C15.12 3.40833 15.665 3.37167 16.205 3.37167C18.9066 3.37167 21.325 5.42 20.2333 10.155C19.2966 14.22 13.8233 19.1516 12.1517 21.0333C12.045 21.1533 12.0083 21.3466 12.0083 21.3466C12.0083 21.3466 20.5733 15.145 21.7383 10.1667C22.9016 5.19 19.9833 3 16.9916 3Z" fill="#CC3333"/>
  <path d="M4.16667 5.64166C4.79167 4.86166 5.90833 4.21666 6.855 4.95999C7.36667 5.36166 7.14333 6.18499 6.685 6.53166C6.01834 7.03832 5.43834 7.34332 5.03167 8.13666C4.78834 8.61332 4.64167 9.13499 4.56667 9.66665C4.53667 9.87665 4.26167 9.92832 4.15834 9.74332C3.45501 8.49665 3.25501 6.77999 4.16667 5.64166Z" fill="#FF8A80"/>
  <path d="M14.1867 7.28166C13.8933 7.28166 13.6867 6.99832 13.7933 6.72499C13.9917 6.22166 14.2483 5.73499 14.5566 5.30166C15.0133 4.66166 15.8816 4.28833 16.4316 4.67666C16.995 5.07333 16.9216 5.86666 16.5266 6.24999C15.6783 7.07166 14.6083 7.28166 14.1867 7.28166Z" fill="#FF8A80"/>
</svg>