<svg xmlns="http://www.w3.org/2000/svg" width="24" height="24" viewBox="0 0 24 24" fill="none">
  <path d="M12 22.2759C7.18966 22.2759 2 19.2586 2 12.6379C2 6.01724 7.18966 3 12 3C14.6724 3 17.1379 3.87931 18.9655 5.48276C20.9483 7.24138 22 9.72414 22 12.6379C22 15.5517 20.9483 18.0172 18.9655 19.7759C17.1379 21.3793 14.6552 22.2759 12 22.2759Z" fill="url(#paint0_radial_273_1105)"/>
  <path d="M20.2569 6.90863C21.1759 8.39139 21.6552 10.1569 21.6552 12.1207C21.6552 15.0345 20.6035 17.5 18.6207 19.2586C16.7931 20.8621 14.3103 21.7586 11.6552 21.7586C8.54138 21.7586 5.27586 20.4914 3.34828 17.8035C5.20345 20.8483 8.6931 22.2759 12 22.2759C14.6552 22.2759 17.1379 21.3793 18.9655 19.7759C20.9483 18.0173 22 15.5517 22 12.6379C22 10.4414 21.4017 8.48966 20.2569 6.90863Z" fill="#EB8F00"/>
  <path d="M15.2845 7.58966C15.9414 7.58966 16.5362 8.5638 16.5362 10.1759C16.5362 11.7879 15.9414 12.7621 15.2845 12.7621C14.6293 12.7621 14.0345 11.7897 14.0345 10.1759C14.0345 8.56207 14.6293 7.58966 15.2845 7.58966Z" fill="#422B0D"/>
  <path d="M8.83966 7.58966C8.14138 7.58966 7.50517 8.5638 7.50517 10.1759C7.50517 11.7879 8.14138 12.7621 8.83966 12.7621C9.53966 12.7621 10.1759 11.7897 10.1759 10.1759C10.1759 8.56207 9.53966 7.58966 8.83966 7.58966Z" fill="#422B0D"/>
  <path d="M8.80173 8.22241C8.59311 8.09654 8.32242 8.16551 8.19655 8.37413C8.19311 8.38103 8.18793 8.38792 8.18449 8.39482C8.02586 8.5793 8.04483 8.85861 8.22931 9.01723C8.23448 9.02241 8.23966 9.02585 8.24655 9.03103C8.45345 9.15689 8.72414 9.08965 8.85 8.88275C8.85517 8.87413 8.85862 8.86723 8.8638 8.85861C9.02242 8.67241 9.00173 8.3931 8.81552 8.23447C8.81035 8.2293 8.8069 8.22585 8.80173 8.22241Z" fill="#896024"/>
  <path d="M15.381 8.2224C15.1707 8.09826 14.8983 8.16722 14.7741 8.37757C14.7707 8.38274 14.7672 8.38964 14.7638 8.39481C14.6069 8.58274 14.6328 8.86033 14.8207 9.01722C14.8224 9.01895 14.8259 9.02067 14.8276 9.0224C15.0345 9.14826 15.3052 9.08102 15.431 8.87412C15.4362 8.8655 15.4397 8.8586 15.4448 8.84998C15.6017 8.66205 15.5759 8.38447 15.3879 8.22757C15.3862 8.22585 15.3828 8.22412 15.381 8.2224Z" fill="#896024"/>
  <path d="M18.6328 14.1414C18.3914 13.7052 17.8672 13.5138 17.4017 13.6897C15.6328 14.2052 13.7983 14.4621 11.9552 14.4535C10.1121 14.4621 8.27759 14.2052 6.50862 13.6897C6.04483 13.5138 5.52069 13.7035 5.27931 14.1379C5.04483 14.5707 5.2138 15.0724 5.41207 15.5052C6.51897 17.9362 8.95862 19.3914 11.9414 19.4H11.969C14.9517 19.4 17.3914 17.9362 18.5 15.5052C18.6966 15.069 18.8672 14.5742 18.6328 14.1414Z" fill="#422B0D"/>
  <path d="M14.7155 18.7138C14.6517 18.6552 14.5862 18.6017 14.5207 18.5414C13.8172 17.9224 12.9069 17.5897 11.969 17.6086C11.0034 17.5931 10.0638 17.9138 9.31034 18.5172C9.24483 18.5707 9.17586 18.6224 9.11207 18.6897C9.04828 18.7569 9.01379 18.8052 8.97241 18.8621C9.92069 19.2328 10.931 19.4224 11.95 19.4172H11.9776C12.9534 19.4172 13.9207 19.2431 14.8345 18.9C14.8 18.8345 14.7603 18.7724 14.7155 18.7138Z" fill="#ED7770"/>
  <path d="M17.4017 13.6897C15.6328 14.2052 13.7983 14.4621 11.9552 14.4535C10.1121 14.4621 8.27759 14.2052 6.50862 13.6897C6.04483 13.5138 5.52069 13.7035 5.27931 14.1379C5.24483 14.2035 5.21724 14.2724 5.2 14.3431C5.2569 14.3724 5.32242 14.4017 5.4 14.4328C7.47586 15.4724 9.77069 16 12.0914 15.9724C14.3172 15.9983 16.5172 15.5138 18.5276 14.5586C18.6086 14.5241 18.6759 14.4914 18.7362 14.4604C18.7224 14.3483 18.6862 14.2379 18.6328 14.1379C18.3914 13.7035 17.8672 13.5121 17.4017 13.6897Z" fill="white"/>
  <path d="M18.6397 14.1431C18.3948 13.7069 17.869 13.5138 17.4 13.6897C15.631 14.2052 13.7966 14.4621 11.9552 14.4535C10.1121 14.4621 8.27759 14.2052 6.50862 13.6897C6.04483 13.5138 5.52069 13.7035 5.27931 14.1379C5.04483 14.5707 5.2138 15.0724 5.41207 15.5052C5.5 15.7 5.59828 15.8914 5.7069 16.0759C5.7069 16.0759 5.34483 14.7345 5.65862 14.3448C5.76552 14.1793 5.94483 14.0759 6.14138 14.0655C6.22242 14.0655 6.30173 14.0793 6.37931 14.1035C8.17931 14.6328 10.0466 14.9 11.9241 14.8966H11.9845C13.8621 14.9 15.7293 14.6328 17.5293 14.1035C17.6069 14.0793 17.6862 14.0655 17.7672 14.0655C17.9638 14.0759 18.1448 14.1793 18.2517 14.3448C18.5707 14.7345 18.2035 16.081 18.2035 16.081C18.3103 15.8966 18.4172 15.7069 18.5069 15.5104C18.7035 15.0776 18.8741 14.5776 18.6397 14.1431Z" fill="#EB8F00"/>
  <defs>
    <radialGradient id="paint0_radial_273_1105" cx="0" cy="0" r="1" gradientUnits="userSpaceOnUse" gradientTransform="translate(12 12.6379) scale(9.82064)">
      <stop offset="0.5" stop-color="#FDE030"/>
      <stop offset="0.92" stop-color="#F7C02B"/>
      <stop offset="1" stop-color="#F4A223"/>
    </radialGradient>
  </defs>
</svg>