<svg xmlns="http://www.w3.org/2000/svg" width="24" height="24" viewBox="0 0 24 24" fill="none">
  <path d="M15.9067 21.6616C14.4609 21.6499 12.2913 21.5929 10.157 21.3919C8.68772 21.2528 7.16988 21.0333 6.01726 20.38C5.69225 20.1957 5.33708 20.1504 5.02212 20.1119C4.88809 20.0952 4.76244 20.0801 4.65522 20.055C3.83767 19.8623 3.26638 19.1553 3.26303 18.3361L3.2513 12.8494C3.24963 12.0905 3.79076 11.4555 4.53963 11.3382C4.55303 11.3366 4.56476 11.3332 4.57816 11.3299C4.6703 11.2997 6.87168 10.5827 8.53024 9.28598C9.31094 8.67616 9.9794 7.7363 10.3195 6.77299C10.6579 5.81303 10.6562 4.76596 10.6546 3.92494C10.6546 3.38214 10.6529 2.70698 10.8003 2.60814C11.1588 2.37192 11.5542 2.2513 11.9747 2.2513C13.2681 2.2513 14.5882 3.4324 14.6401 4.63528C14.677 5.46959 14.3972 6.45468 14.1275 7.40626C13.8092 8.53376 13.5328 9.50712 13.7824 10.1689C13.8192 10.2677 13.9131 10.3314 14.0169 10.3314C14.0203 10.3314 15.2382 10.2895 15.2382 10.2895H15.25C16.617 10.2895 17.7294 11.4019 17.7311 12.7673L17.7395 19.8388C17.7395 20.3264 17.5519 20.7837 17.2067 21.1272C16.8633 21.4706 16.4059 21.6616 15.9184 21.6616H15.9067Z" fill="url(#paint0_radial_273_1094)"/>
  <path d="M11.9747 2.5026C13.124 2.5026 14.3419 3.58486 14.3888 4.64533C14.424 5.43944 14.1509 6.40442 13.8862 7.33758C13.5545 8.50695 13.2697 9.51717 13.5478 10.256C13.6215 10.452 13.8092 10.581 14.0186 10.581H14.037L15.2433 10.5391H15.2533C16.4813 10.5391 17.4815 11.5376 17.4832 12.7673L17.4915 19.8388C17.4915 20.2577 17.329 20.653 17.0325 20.9496C16.736 21.2461 16.3423 21.4103 15.9218 21.4103H15.9084C14.4676 21.3986 12.3047 21.3416 10.1804 21.1422C8.73966 21.0065 7.25197 20.7921 6.14123 20.1622C5.77266 19.9528 5.37394 19.9042 5.05395 19.864C4.92662 19.8489 4.80768 19.8338 4.71386 19.8104C4.01022 19.6445 3.51768 19.038 3.516 18.3361L3.5026 12.8494C3.50092 12.2161 3.95326 11.685 4.57816 11.5879C4.60329 11.5845 4.63009 11.5778 4.65355 11.5694C4.74736 11.5393 6.98895 10.8072 8.6827 9.48367C9.49858 8.84537 10.1989 7.86363 10.554 6.85676C10.9075 5.85659 10.9058 4.78606 10.9042 3.92495C10.9042 3.51617 10.9025 2.96331 10.9729 2.79578C11.2811 2.59977 11.6179 2.5026 11.9747 2.5026ZM11.9747 2C11.5307 2 11.0818 2.12062 10.6613 2.39873C10.1184 2.75725 10.7065 4.91506 10.0816 6.68755C9.70632 7.75138 8.99096 8.6058 8.37444 9.08661C6.73262 10.3699 4.50109 11.0903 4.50109 11.0903C3.63495 11.226 2.99833 11.9732 3 12.8511L3.01341 18.3377C3.01676 19.2826 3.67851 20.0818 4.59826 20.2995C4.97018 20.3867 5.47781 20.3632 5.89329 20.5994C7.00402 21.2294 8.42805 21.4807 10.1335 21.6415C12.2444 21.8408 14.3888 21.8995 15.905 21.9129H15.9218C17.066 21.9129 17.9958 20.9848 17.9941 19.8388L17.9858 12.7673C17.9841 11.2578 16.7594 10.0382 15.2533 10.0382H15.2332L14.0203 10.0801C13.6014 8.96767 14.9735 6.46473 14.8931 4.62355C14.8345 3.31513 13.4389 2 11.9747 2Z" fill="#EDA600"/>
  <path d="M12.6566 11.7487C12.9715 12.5864 12.9749 13.8931 12.6566 14.7006C12.1959 15.8666 11.0684 16.8869 9.76663 17.0662C9.44832 17.1097 9.63763 17.4029 9.95427 17.3594C11.3632 17.165 13.2697 16.5937 13.7656 15.3289C15.126 11.8526 13.5344 10.0315 12.8241 10.5743C12.4823 10.839 12.479 11.2746 12.6566 11.7487Z" fill="#EDA600"/>
  <path d="M16.034 12.9918C14.6334 12.9918 12.9497 12.7321 12.8777 11.4907C12.8576 11.1355 12.9648 10.8373 13.2061 10.581C13.841 9.90752 15.4007 9.53728 17.5988 9.53728C18.3962 9.53728 18.9776 9.58921 18.9843 9.58921C18.991 9.58921 18.9993 9.59089 19.006 9.59089H19.0211C19.0446 9.58921 19.0663 9.58921 19.0898 9.58921C19.8018 9.58921 20.3965 10.2309 20.4451 11.0501C20.4954 11.8978 19.9375 12.6215 19.202 12.6634C19.1903 12.6634 19.1769 12.6651 19.1652 12.6685C19.1501 12.6701 17.5988 12.9918 16.034 12.9918Z" fill="url(#paint1_radial_273_1094)"/>
  <path d="M17.6004 9.78857C18.3845 9.78857 18.9575 9.83883 18.9625 9.83883C18.9776 9.8405 18.9926 9.8405 19.0077 9.8405C19.0178 9.8405 19.0278 9.8405 19.0362 9.83883C19.0546 9.83715 19.0731 9.83715 19.0898 9.83715C19.6678 9.83715 20.1536 10.3749 20.1938 11.0601C20.2139 11.4153 20.1134 11.752 19.9107 12.01C19.7214 12.2513 19.4634 12.392 19.187 12.4088C19.1618 12.4104 19.1367 12.4138 19.1133 12.4188C19.0982 12.4222 17.5686 12.7388 16.034 12.7388C15.1427 12.7388 14.4358 12.6349 13.9348 12.4306C13.2463 12.1491 13.1441 11.7504 13.129 11.4756C13.1123 11.1891 13.196 10.9596 13.3904 10.7519C13.9683 10.1404 15.5029 9.78857 17.6004 9.78857ZM17.6004 9.28597C15.6872 9.28597 12.5142 9.5758 12.6264 11.5058C12.7085 12.8996 14.3905 13.2431 16.034 13.2431C17.644 13.2431 19.2171 12.913 19.2171 12.913C20.0916 12.8611 20.7551 12.0201 20.6964 11.0333C20.6412 10.0784 19.9308 9.33623 19.0915 9.33623C19.063 9.33623 19.0362 9.33623 19.0077 9.33791C19.0077 9.33791 18.4197 9.28597 17.6004 9.28597Z" fill="#EDA600"/>
  <path d="M17.0844 16.1799C15.2567 16.1799 13.0787 15.8733 13.0787 14.4091C13.0787 12.9449 15.2567 12.6383 17.0844 12.6383C18.6341 12.6383 20.0464 12.8645 20.0598 12.8661C20.0732 12.8678 20.0866 12.8695 20.1 12.8695C20.8388 12.8695 21.3532 13.6502 21.3532 14.3505C21.3532 15.0893 20.8053 15.9471 20.1 15.9471C20.0866 15.9471 20.0732 15.9487 20.0598 15.9504C20.0447 15.9538 18.6324 16.1799 17.0844 16.1799Z" fill="url(#paint2_radial_273_1094)"/>
  <path d="M17.0844 12.8913C18.6123 12.8913 20.0062 13.1141 20.0196 13.1158C20.0464 13.1208 20.0732 13.1225 20.1 13.1225C20.673 13.1225 21.1019 13.7725 21.1019 14.3521C21.1019 14.9569 20.6395 15.6974 20.1 15.6974C20.0732 15.6974 20.0464 15.6991 20.0196 15.7041C20.0062 15.7058 18.6107 15.9286 17.0844 15.9286C15.9402 15.9286 15.0305 15.808 14.3788 15.5684C13.4389 15.2233 13.33 14.7408 13.33 14.4091C13.33 14.0757 13.4389 13.5949 14.3788 13.2498C15.0288 13.0119 15.9402 12.8913 17.0844 12.8913ZM17.0844 12.3887C15.0858 12.3887 12.8274 12.7556 12.8274 14.4108C12.8274 16.066 15.0841 16.4329 17.0844 16.4329C18.6743 16.4329 20.1 16.2017 20.1 16.2017C20.9645 16.2017 21.6045 15.2116 21.6045 14.3538C21.6045 13.4961 20.9645 12.6215 20.1 12.6215C20.1 12.6199 18.6726 12.3887 17.0844 12.3887Z" fill="#EDA600"/>
  <path d="M18.4766 21.7487C17.7713 21.7487 14.1979 21.6934 13.1156 20.6095C12.9263 20.4202 12.8358 20.2158 12.8358 19.9846C12.8392 19.105 14.3453 18.6008 16.9672 18.6008C17.902 18.6008 18.6257 18.6678 18.6341 18.6678C18.6408 18.6678 18.6492 18.6695 18.6559 18.6695C19.0479 18.6711 19.4182 18.8303 19.6946 19.1201C19.9744 19.4116 20.1268 19.8003 20.1268 20.2124C20.1235 21.0585 19.4617 21.7453 18.6509 21.7453C18.6391 21.7487 18.5805 21.7487 18.4766 21.7487Z" fill="url(#paint3_radial_273_1094)"/>
  <path d="M16.9688 18.8537C17.8886 18.8537 18.604 18.9191 18.6107 18.9208C18.6257 18.9224 18.6408 18.9224 18.6559 18.9224C18.9792 18.9241 19.2841 19.0565 19.5137 19.296C19.7482 19.5406 19.8772 19.8673 19.8755 20.2141C19.8738 20.9211 19.3243 21.4974 18.6458 21.4974H18.6442H18.6341C18.6308 21.4974 18.5738 21.4991 18.475 21.4991C15.4342 21.4991 13.7824 20.9244 13.2915 20.4336C13.1055 20.2476 13.0854 20.0901 13.0854 19.9879C13.0905 19.2877 14.5765 18.8537 16.9688 18.8537ZM16.9688 18.3512C15.1729 18.3512 12.5895 18.5924 12.5862 19.9846C12.5795 21.9045 17.4949 22 18.4766 22C18.5855 22 18.6458 21.9983 18.6458 21.9983H18.6509C19.6024 21.9983 20.3748 21.2009 20.3781 20.2141C20.3815 19.2257 19.6108 18.4215 18.6576 18.4182C18.6576 18.4198 17.9254 18.3512 16.9688 18.3512Z" fill="#EDA600"/>
  <path d="M17.8501 19.09C16.3439 19.09 12.8425 18.9191 12.8425 17.3359C12.8425 16.0057 15.3672 15.808 16.8733 15.808C18.2052 15.808 19.3528 15.9554 19.3646 15.9571C19.3746 15.9588 19.3863 15.9588 19.3964 15.9588C20.095 15.9588 20.9092 16.3039 20.9092 17.2773C20.9092 18.1987 20.1888 19.0364 19.3964 19.0364H19.3763C19.3696 19.038 18.7246 19.09 17.8501 19.09Z" fill="url(#paint4_radial_273_1094)"/>
  <path d="M16.8733 15.5584V16.061C18.1851 16.061 19.321 16.2067 19.331 16.2084C19.3528 16.2118 19.3746 16.2118 19.3964 16.2118C20.0062 16.2118 20.6579 16.4915 20.6579 17.2789C20.6579 18.0546 20.0447 18.7867 19.3964 18.7867C19.383 18.7867 19.3696 18.7867 19.3545 18.7884C19.3478 18.7884 18.7129 18.8403 17.8484 18.8403C16.9353 18.8403 15.6303 18.7817 14.5966 18.5069C13.5998 18.2406 13.0938 17.8469 13.0938 17.3392C13.0938 17.1834 13.0938 16.7093 14.156 16.3759C14.8177 16.1682 15.7308 16.0627 16.8717 16.0627L16.8733 15.5584ZM16.8733 15.5584C14.9367 15.5584 12.5912 15.8633 12.5912 17.3376C12.5912 19.0749 15.8414 19.3429 17.8501 19.3429C18.748 19.3429 19.3964 19.2893 19.3964 19.2893C20.3413 19.2893 21.1605 18.3126 21.1605 17.2789C21.1605 16.2453 20.3413 15.7092 19.3964 15.7092C19.3964 15.7092 18.2354 15.5584 16.8733 15.5584Z" fill="#EDA600"/>
  <path d="M6.23505 20.5274L5.43257 17.361L5.09751 20.2091L6.23505 20.5274Z" fill="#EDA600"/>
  <defs>
    <radialGradient id="paint0_radial_273_1094" cx="0" cy="0" r="1" gradientUnits="userSpaceOnUse" gradientTransform="translate(10.2523 6.53863) rotate(90.125) scale(14.5819 11.4803)">
      <stop offset="0.6" stop-color="#FFCA28"/>
      <stop offset="1" stop-color="#FFB300"/>
    </radialGradient>
    <radialGradient id="paint1_radial_273_1094" cx="0" cy="0" r="1" gradientUnits="userSpaceOnUse" gradientTransform="translate(18.8272 11.1183) rotate(176.727) scale(4.73641 2.3176)">
      <stop offset="0.5993" stop-color="#FFCA28"/>
      <stop offset="1" stop-color="#FFB300"/>
    </radialGradient>
    <radialGradient id="paint2_radial_273_1094" cx="0" cy="0" r="1" gradientUnits="userSpaceOnUse" gradientTransform="translate(19.5752 14.365) rotate(-179.936) scale(5.33058 2.13764)">
      <stop offset="0.5993" stop-color="#FFCA28"/>
      <stop offset="1" stop-color="#FFB300"/>
    </radialGradient>
    <radialGradient id="paint3_radial_273_1094" cx="0" cy="0" r="1" gradientUnits="userSpaceOnUse" gradientTransform="translate(18.5358 20.1414) rotate(-179.726) scale(4.47666 2.33067)">
      <stop offset="0.5993" stop-color="#FFCA28"/>
      <stop offset="1" stop-color="#FFB300"/>
    </radialGradient>
    <radialGradient id="paint4_radial_273_1094" cx="0" cy="0" r="1" gradientUnits="userSpaceOnUse" gradientTransform="translate(19.1729 17.4091) rotate(-179.934) scale(5.10033 2.12146)">
      <stop offset="0.5993" stop-color="#FFCA28"/>
      <stop offset="1" stop-color="#FFB300"/>
    </radialGradient>
  </defs>
</svg>