<svg xmlns="http://www.w3.org/2000/svg" width="24" height="24" viewBox="0 0 24 24" fill="none">
  <path d="M12 22.2759C7.18966 22.2759 2 19.2586 2 12.6379C2 6.01724 7.18966 3 12 3C14.6724 3 17.1379 3.87931 18.9655 5.48276C20.9483 7.24138 22 9.72414 22 12.6379C22 15.5517 20.9483 18.0172 18.9655 19.7759C17.1379 21.3793 14.6552 22.2759 12 22.2759Z" fill="url(#paint0_radial_273_1121)"/>
  <path d="M20.2569 6.90863C21.1759 8.39139 21.6552 10.1569 21.6552 12.1207C21.6552 15.0345 20.6035 17.5 18.6207 19.2586C16.7931 20.8621 14.3103 21.7586 11.6552 21.7586C8.54138 21.7586 5.27586 20.4914 3.34828 17.8035C5.20345 20.8483 8.6931 22.2759 12 22.2759C14.6552 22.2759 17.1379 21.3793 18.9655 19.7759C20.9483 18.0173 22 15.5517 22 12.6379C22 10.4414 21.4017 8.48966 20.2569 6.90863Z" fill="#EB8F00"/>
  <path d="M12.069 15.4828C13.931 15.4828 15.2414 16.4483 15.6379 17.0517C15.7897 17.2431 15.8224 17.5017 15.7241 17.7241C15.6483 17.8638 15.5035 17.95 15.3448 17.9483C15.2862 17.9448 15.2276 17.9328 15.1724 17.9138C14.1638 17.6259 13.119 17.481 12.069 17.4828C11.0241 17.4759 9.98276 17.6276 8.98276 17.931C8.92759 17.95 8.86897 17.9621 8.81035 17.9655C8.65173 17.9707 8.50345 17.8845 8.43104 17.7414C8.33104 17.519 8.36552 17.2586 8.51725 17.069C8.89656 16.4483 10.2241 15.4828 12.069 15.4828Z" fill="#422B0D"/>
  <path d="M7.4138 19.8103C6.29311 19.8103 5.43104 18.7241 5.43104 17.7931C5.43104 17.1379 5.72414 16.3793 6.13793 15.3276C6.18966 15.1724 6.25862 15.0172 6.32759 14.8448C6.56897 14.2207 6.84483 13.6103 7.15518 13.0172C7.21725 12.8983 7.35862 12.8465 7.48276 12.8965C7.53449 12.9224 7.57759 12.9655 7.60345 13.0172C7.86207 13.5517 8.15518 14.2069 8.44828 14.8793C9.17242 16.5 9.37931 17.1552 9.37931 17.8103C9.39656 18.7241 8.51725 19.8103 7.4138 19.8103Z" fill="url(#paint1_radial_273_1121)"/>
  <path d="M8.62069 18.5672C8.36724 18.9586 7.7931 18.8845 7.7931 18.2345C7.7931 17.819 7.87758 15.6845 8.23448 15.9828C8.82068 16.469 8.9862 18.0138 8.62069 18.5672Z" fill="#81D4FA"/>
  <path d="M6.20689 9.84483C5.99138 10.1638 5.47931 9.95862 5.62931 9.57242C5.98276 8.73276 6.6431 8.06035 7.47758 7.69483C7.78276 7.55 8.11207 7.45862 8.44827 7.42242C8.61896 7.38793 8.7862 7.49828 8.82069 7.66897C8.85517 7.83966 8.74482 8.0069 8.57241 8.04138H8.55C7.58793 8.36035 6.76207 8.99655 6.20689 9.84483Z" fill="#422B0D"/>
  <path d="M17.8086 9.84483C18.0241 10.1638 18.5362 9.95862 18.3862 9.57242C18.031 8.73104 17.3672 8.05862 16.5293 7.69483C16.2241 7.55 15.8983 7.45862 15.5621 7.42242C15.3914 7.38793 15.2241 7.49828 15.1914 7.66897C15.1569 7.83966 15.2672 8.0069 15.4379 8.04138H15.4603C16.4241 8.35862 17.2534 8.99483 17.8086 9.84483Z" fill="#422B0D"/>
  <path d="M8.73618 9.8862C8.01377 9.8862 7.35687 10.4965 7.35687 11.5103C7.35687 12.5241 8.01377 13.1328 8.73618 13.1328C9.4586 13.1328 10.1155 12.5224 10.1155 11.5103C10.1155 10.4983 9.4586 9.8862 8.73618 9.8862Z" fill="#422B0D"/>
  <path d="M8.66896 10.5638C8.42414 10.4465 8.12931 10.55 8.01034 10.7948C7.91896 10.9862 7.96034 11.2155 8.11379 11.3638C8.35862 11.481 8.65345 11.3776 8.77241 11.1328C8.86379 10.9414 8.82241 10.7121 8.66896 10.5638Z" fill="#896024"/>
  <path d="M15.3448 9.8862C14.6224 9.8862 13.9655 10.4965 13.9655 11.5103C13.9655 12.5241 14.6224 13.1328 15.3448 13.1328C16.0672 13.1328 16.7241 12.5224 16.7241 11.5103C16.7241 10.4983 16.0707 9.8862 15.3448 9.8862Z" fill="#422B0D"/>
  <path d="M15.281 10.5638C15.0362 10.4465 14.7414 10.55 14.6224 10.7948C14.531 10.9862 14.5724 11.2155 14.7259 11.3638C14.9707 11.481 15.2655 11.3776 15.3845 11.1328C15.4759 10.9414 15.4345 10.7121 15.281 10.5638Z" fill="#896024"/>
  <defs>
    <radialGradient id="paint0_radial_273_1121" cx="0" cy="0" r="1" gradientUnits="userSpaceOnUse" gradientTransform="translate(12 12.6379) scale(9.82064)">
      <stop offset="0.5" stop-color="#FDE030"/>
      <stop offset="0.92" stop-color="#F7C02B"/>
      <stop offset="1" stop-color="#F4A223"/>
    </radialGradient>
    <radialGradient id="paint1_radial_273_1121" cx="0" cy="0" r="1" gradientUnits="userSpaceOnUse" gradientTransform="translate(7.55518 13.7574) scale(4.55517 7.01496)">
      <stop offset="0.46" stop-color="#29B6F6"/>
      <stop offset="1" stop-color="#1E88E5"/>
    </radialGradient>
  </defs>
</svg>